<svg xmlns="http://www.w3.org/2000/svg" width="515" height="158.161" viewBox="0 0 515 158.161">
  <g id="Grupo_155527" data-name="Grupo 155527" transform="translate(9247 6963.161)">
    <g id="T7boOg.tif" transform="translate(-8654.911 -12332.2)">
      <g id="Grupo_155524" data-name="Grupo 155524" transform="translate(-580.805 5376.341)">
        <path id="Trazado_197498" data-name="Trazado 197498" d="M-540.2,5376.341h4.864a2.942,2.942,0,0,0,.591.2,22.622,22.622,0,0,1,19.938,22.961c-.125,5.145-.021,10.295-.021,15.443v1.176c2.68,0,5.213-.015,7.746,0a12.62,12.62,0,0,1,12.544,12.5q.044,21.737,0,43.474a12.588,12.588,0,0,1-12.5,12.546q-30.607.037-61.214,0a12.292,12.292,0,0,1-10.064-5.125,15.256,15.256,0,0,1-2.488-5.859v-46.544a30.172,30.172,0,0,1,2.226-5.395,11.99,11.99,0,0,1,10.417-5.6c2.523-.03,5.046,0,7.656,0v-1.263q0-7.768,0-15.536a20.313,20.313,0,0,1,.079-2.744c1.289-9.322,6.385-15.637,15.167-18.934A47.09,47.09,0,0,1-540.2,5376.341Zm2.536,48.233h-29.391c-3.723,0-5.291,1.554-5.291,5.244q0,20.573,0,41.146c0,3.652,1.572,5.24,5.189,5.24h58.993c3.615,0,5.185-1.589,5.185-5.244q0-20.572,0-41.146c0-3.652-1.572-5.24-5.189-5.24Zm-14.382-8.533h28.713c0-6.1.037-12.122-.032-18.142a11.505,11.505,0,0,0-.693-3.5,14.382,14.382,0,0,0-16.4-9.312,13.949,13.949,0,0,0-11.464,12.306,56.859,56.859,0,0,0-.118,6.546C-552.06,5407.951-552.05,5411.963-552.05,5416.041Z" transform="translate(580.805 -5376.341)" fill="#12263f"/>
        <path id="Trazado_197499" data-name="Trazado 197499" d="M-410.81,5681.307c0-.635-.029-1.271.005-1.9a5.5,5.5,0,0,0-1.632-4.725c-3.044-3.034-2.515-8.219.714-10.93a7.777,7.777,0,0,1,11.13.875,7.769,7.769,0,0,1-1.093,11.107,1.556,1.556,0,0,0-.682,1.4c.032,2.713.024,5.427.011,8.141a4.2,4.2,0,0,1-4.2,4.457,4.185,4.185,0,0,1-4.247-4.4C-410.821,5683.985-410.81,5682.646-410.81,5681.307Z" transform="translate(449.718 -5601.299)" fill="#12263f"/>
      </g>
    </g>
    <text id="Lock-in_cost" data-name="Lock-in cost" transform="translate(-9247 -6810)" fill="#12263f" font-size="17" font-family="Roboto-Bold, Roboto" font-weight="700"><tspan x="0" y="0">Lock-in cost</tspan></text>
    <text id="Migration_cost" data-name="Migration cost" transform="translate(-9061 -6810)" fill="#12263f" font-size="17" font-family="Roboto-Bold, Roboto" font-weight="700"><tspan x="0" y="0">Migration cost</tspan></text>
    <text id="_" data-name="=" transform="translate(-9130 -6884)" fill="#12263f" font-size="42" font-family="Roboto-Bold, Roboto" font-weight="700"><tspan x="0" y="0">=</tspan></text>
    <text id="_-" data-name="-" transform="translate(-8904 -6884)" fill="#12263f" font-size="42" font-family="Roboto-Bold, Roboto" font-weight="700"><tspan x="0" y="0">-</tspan></text>
    <text id="Opportunity_gain" data-name="Opportunity gain" transform="translate(-8860 -6810)" fill="#12263f" font-size="17" font-family="Roboto-Bold, Roboto" font-weight="700"><tspan x="0" y="0">Opportunity gain</tspan></text>
    <g id="LWbXNS.tif" transform="translate(-7632.285 -12469.437)">
      <g id="Grupo_155525" data-name="Grupo 155525" transform="translate(-1450.329 5519.185)">
        <path id="Trazado_197500" data-name="Trazado 197500" d="M-1448.616,5519.187q49.553,0,99.107,0h2.069v61.558h-10.124v5.023h15.344v-1.849q0-18.035.007-36.069c.007-4.034,2.111-6.907,5.736-7.871a9.147,9.147,0,0,1,2.306-.238c6.8-.018,13.609-.039,20.414,0a23.018,23.018,0,0,1,23,23.076q.016,15.236,0,30.472a12.9,12.9,0,0,1-13.116,13.251c-1.35.019-2.709-.075-4.047.05a1.663,1.663,0,0,0-1.191.958c-2.116,8.633-9.038,14.29-17.614,14.32s-15.522-5.589-17.684-14.215c-.109-.436-.739-1.059-1.131-1.062-8.622-.061-17.245-.047-25.867-.047h-1.787c-1.777,7.9-6.311,13.3-14.381,14.933-8.026,1.622-14.287-1.524-18.979-8.115-5.022,6.9-11.624,10.023-20.042,7.876-7.461-1.9-11.647-7.122-13.326-14.7-4.9.477-8.721-1.084-10.406-6.152v-8.4a29.205,29.205,0,0,1,2.756-4.185c1.432-1.551,3.481-1.917,5.556-1.932.607,0,1.214,0,1.9,0v-5.078h-10.211v-61.57C-1449.758,5519.208-1449.187,5519.187-1448.616,5519.187Zm3.635,5.248v51.037h92.358v-51.037Zm143.56,25.6c-.735-.673-1.13-1.095-1.583-1.441a17.988,17.988,0,0,0-11.309-3.706c-6.545.017-13.09-.011-19.635.013-2.2.008-3.078.842-3.082,2.983q-.034,18.5-.007,37a8.171,8.171,0,0,0,.1.864h40.869v-10.016h-1.774c-6.857,0-13.714.029-20.57-.009s-12.08-4.137-13.283-10.557a34.012,34.012,0,0,1-.221-5.888c-.03-3.043-.008-6.087-.008-9.247Zm4.469,6.794a2.074,2.074,0,0,0-2.3-1.681c-8.568.076-17.137.038-25.705.038h-1.908c.156,3.369-.007,6.647.542,9.8a6.955,6.955,0,0,0,6.905,5.49c7.731.11,15.464.035,23.486.035C-1296.2,5565.834-1295.354,5561.268-1296.953,5556.831Zm-65.944,24.076h-71.83v4.852h71.83Zm18.229,20.37a19.029,19.029,0,0,1,5.18-10.119h-38.854a19.1,19.1,0,0,1,5.055,10.119Zm30.706,2.618a12.883,12.883,0,0,0-12.872-12.824,12.982,12.982,0,0,0-12.815,12.767,12.857,12.857,0,0,0,12.835,12.85A12.781,12.781,0,0,0-1313.962,5603.895Zm-95.215.186a12.918,12.918,0,0,0-12.852-13.009,12.845,12.845,0,0,0-12.778,12.737,12.712,12.712,0,0,0,12.738,12.877A12.8,12.8,0,0,0-1409.177,5604.081Zm30.866.021a12.887,12.887,0,0,0-12.816-13.029,12.854,12.854,0,0,0-12.8,12.717,12.72,12.72,0,0,0,12.724,12.9A12.768,12.768,0,0,0-1378.31,5604.1Zm64.575-12.973c1.115,1.764,2.316,3.43,3.256,5.23a35.785,35.785,0,0,1,1.356,3.937c.149.394.562.967.867.976a30.737,30.737,0,0,0,5.9-.106c4.665-.783,7.025-4.675,6.231-10.037Zm-120.921-.066h-5.454c-4.74,0-5,.261-5,4.949,0,.723-.007,1.446,0,2.168.032,2.3.886,3.128,3.216,3.142.663,0,1.326,0,2.033,0A18.892,18.892,0,0,1-1434.657,5591.062Zm28.083,3.426,2.565-3.3h-5.119Z" transform="translate(1450.329 -5519.186)" fill="#12263f"/>
        <path id="Trazado_197501" data-name="Trazado 197501" d="M-1219.362,5605.649h5.026v-20.385h-5.026Z" transform="translate(1291.494 -5564.628)" fill="#12263f"/>
        <path id="Trazado_197502" data-name="Trazado 197502" d="M-1313.184,5585.1h-5.01v20.384h5.01Z" transform="translate(1359.46 -5564.517)" fill="#12263f"/>
        <path id="Trazado_197503" data-name="Trazado 197503" d="M-1367.781,5585.257v20.376h4.987v-20.376Z" transform="translate(1393.561 -5564.623)" fill="#12263f"/>
        <path id="Trazado_197504" data-name="Trazado 197504" d="M-1412.042,5585.105h-5v20.382h5Z" transform="translate(1427.438 -5564.519)" fill="#12263f"/>
        <path id="Trazado_197505" data-name="Trazado 197505" d="M-1169.75,5605.577h4.956V5585.2h-4.956Z" transform="translate(1257.375 -5564.583)" fill="#12263f"/>
        <path id="Trazado_197506" data-name="Trazado 197506" d="M-1263.826,5585.19h-4.953v20.379h4.953Z" transform="translate(1325.478 -5564.577)" fill="#12263f"/>
        <path id="Trazado_197507" data-name="Trazado 197507" d="M-1214.358,5667.223h-5.063v4.973h5.063Z" transform="translate(1291.534 -5620.991)" fill="#12263f"/>
        <path id="Trazado_197508" data-name="Trazado 197508" d="M-1367.8,5552.344v4.947h5v-4.947Z" transform="translate(1393.575 -5541.989)" fill="#12263f"/>
        <path id="Trazado_197509" data-name="Trazado 197509" d="M-1416.984,5557.315h4.98V5552.3h-4.98Z" transform="translate(1427.398 -5541.96)" fill="#12263f"/>
        <path id="Trazado_197510" data-name="Trazado 197510" d="M-1318.293,5667.386v4.928h5.072v-4.928Z" transform="translate(1359.528 -5621.103)" fill="#12263f"/>
        <path id="Trazado_197511" data-name="Trazado 197511" d="M-1367.747,5672.3h4.972v-5.015h-4.972Z" transform="translate(1393.538 -5621.034)" fill="#12263f"/>
        <path id="Trazado_197512" data-name="Trazado 197512" d="M-1417.127,5666.662v4.927h5.04c.038-.359.091-.654.1-.951C-1411.9,5666.077-1412.3,5665.766-1417.127,5666.662Z" transform="translate(1427.496 -5620.328)" fill="#12263f"/>
        <path id="Trazado_197513" data-name="Trazado 197513" d="M-1318.294,5552.5v4.943h5.059V5552.5Z" transform="translate(1359.529 -5542.094)" fill="#12263f"/>
        <path id="Trazado_197514" data-name="Trazado 197514" d="M-1219.433,5557.413h5.073v-4.951h-5.073Z" transform="translate(1291.542 -5542.07)" fill="#12263f"/>
        <path id="Trazado_197515" data-name="Trazado 197515" d="M-1264.023,5672.007v-5.1c-1.47,0-2.856-.048-4.233.039a1.168,1.168,0,0,0-.8.808c-.085,1.38-.038,2.769-.038,4.249Z" transform="translate(1325.702 -5620.767)" fill="#12263f"/>
        <path id="Trazado_197516" data-name="Trazado 197516" d="M-1164.816,5672.218V5667.2h-4.945v5.016Z" transform="translate(1257.383 -5620.976)" fill="#12263f"/>
        <path id="Trazado_197517" data-name="Trazado 197517" d="M-1264,5552.316h-5.058c0,1.471-.037,2.936.037,4.394.012.242.5.643.787.657,1.378.069,2.762.032,4.234.032Z" transform="translate(1325.676 -5541.969)" fill="#12263f"/>
        <path id="Trazado_197518" data-name="Trazado 197518" d="M-1169.819,5552.455v4.961h4.962v-4.961Z" transform="translate(1257.423 -5542.064)" fill="#12263f"/>
        <path id="Trazado_197519" data-name="Trazado 197519" d="M-1079.523,5773.435a7.769,7.769,0,0,1,7.708-7.728,7.688,7.688,0,0,1,7.736,7.813,7.612,7.612,0,0,1-7.747,7.608A7.69,7.69,0,0,1-1079.523,5773.435Zm7.841,2.49a2.416,2.416,0,0,0,2.4-2.516,2.528,2.528,0,0,0-2.448-2.518,2.653,2.653,0,0,0-2.6,2.571A2.522,2.522,0,0,0-1071.682,5775.925Z" transform="translate(1195.327 -5688.718)" fill="#12263f"/>
        <path id="Trazado_197520" data-name="Trazado 197520" d="M-1384.417,5773.41a7.757,7.757,0,0,1,7.721-7.705,7.845,7.845,0,0,1,7.784,7.685,7.74,7.74,0,0,1-7.842,7.737A7.663,7.663,0,0,1-1384.417,5773.41Zm10.276.078a2.639,2.639,0,0,0-2.566-2.6,2.514,2.514,0,0,0-2.472,2.641,2.419,2.419,0,0,0,2.52,2.389A2.516,2.516,0,0,0-1374.141,5773.487Z" transform="translate(1405.001 -5688.716)" fill="#12263f"/>
        <path id="Trazado_197521" data-name="Trazado 197521" d="M-1285.584,5773.52a7.8,7.8,0,0,1,7.625-7.82,7.838,7.838,0,0,1,7.892,7.57,7.723,7.723,0,0,1-7.563,7.847A7.7,7.7,0,0,1-1285.584,5773.52Zm7.627,2.4a2.483,2.483,0,0,0,2.65-2.441,2.593,2.593,0,0,0-2.557-2.588,2.543,2.543,0,0,0-2.476,2.493A2.434,2.434,0,0,0-1277.956,5775.916Z" transform="translate(1337.034 -5688.71)" fill="#12263f"/>
      </g>
    </g>
    <g id="_6TknEW" data-name="6TknEW" transform="translate(-7907.771 -12867.917)">
      <g id="Grupo_155526" data-name="Grupo 155526" transform="translate(-958.23 5904.756)">
        <path id="Trazado_197522" data-name="Trazado 197522" d="M-924.135,5955.841c-5.753,5.792-11.41,11.492-17.072,17.186-2.209,2.222-4.393,4.47-6.654,6.637-2.688,2.575-6.273,2.652-8.616.274-2.418-2.455-2.356-5.891.327-8.591q13.7-13.786,27.476-27.487c2.955-2.94,6.174-2.934,9.146,0q8.493,8.39,16.893,16.875a14.9,14.9,0,0,1,1.424,1.938l41.861-41.872-8.417-7.337,32.539-8.711-8.517,31.779-.8.287-6.508-7.4c-6.054,6.108-11.634,11.766-17.244,17.394q-13.628,13.673-27.291,27.312c-3.715,3.712-6.654,3.682-10.427-.1C-912,5968.036-917.966,5962.035-924.135,5955.841Z" transform="translate(958.23 -5904.756)" fill="#12263f"/>
        <path id="Trazado_197523" data-name="Trazado 197523" d="M-761.806,5968.112c1.858,1.565,3.4,2.744,4.779,4.093a3.036,3.036,0,0,1,.649,2q.047,33.028.015,66.056c0,2.915-1.034,3.892-4.007,3.91-3.556.022-7.112.006-10.668,0-4.17-.005-4.785-.627-4.788-4.914q-.009-12.449,0-24.9c0-9.823.038-19.647-.053-29.471a5.6,5.6,0,0,1,1.871-4.436C-769.9,5976.433-765.91,5972.284-761.806,5968.112Z" transform="translate(868.518 -5935.925)" fill="#12263f"/>
        <path id="Trazado_197524" data-name="Trazado 197524" d="M-810.026,6012.887v27.4c0,7.278.014,14.557-.008,21.835-.009,3.008-.92,3.895-3.95,3.91-3.893.021-7.785.03-11.677,0-2.69-.024-3.737-1.015-3.744-3.626q-.041-14.726.015-29.452a3.215,3.215,0,0,1,.618-2.068c6.013-6.146,12.09-12.231,18.152-18.332Z" transform="translate(894.86 -5957.786)" fill="#12263f"/>
        <path id="Trazado_197525" data-name="Trazado 197525" d="M-882.625,6028.327c3.142,3.162,6.361,6.251,9.4,9.508,2.585,2.768,5.505,4.728,9.647,4.92,0,3.819,0,7.525,0,11.23,0,5.167.016,10.334-.01,15.5-.016,3.313-.967,4.288-4.173,4.305-3.9.021-7.791-.036-11.686.017-2.432.032-3.7-1.172-3.709-3.5-.042-13.883-.02-27.765-.02-41.648Z" transform="translate(921.307 -5965.549)" fill="#12263f"/>
        <path id="Trazado_197526" data-name="Trazado 197526" d="M-917.179,6027.636v13.712q0,13.969-.006,27.938c-.006,3.339-.852,4.157-4.238,4.169-3.809.013-7.618.026-11.427-.006-2.694-.023-3.71-.994-3.72-3.638q-.047-11.049.016-22.1a3.185,3.185,0,0,1,.567-2.067c6.018-5.94,12.1-11.812,18.172-17.7A4.909,4.909,0,0,1-917.179,6027.636Z" transform="translate(947.583 -5965.209)" fill="#12263f"/>
      </g>
    </g>
  </g>
</svg>
