<svg xmlns="http://www.w3.org/2000/svg" width="563.666" height="316.564" viewBox="0 0 563.666 316.564">
  <g id="Grupo_155529" data-name="Grupo 155529" transform="translate(9270.441 7564.55)">
    <g id="Grupo_155506" data-name="Grupo 155506" transform="translate(-9203.509 -7539.268)">
      <g id="gbVqRU.tif" transform="translate(-20.581 0)">
        <g id="Grupo_155512" data-name="Grupo 155512">
          <path id="Trazado_197440" data-name="Trazado 197440" d="M-837.616,4654.247v112.377c-.076.09-.2.171-.221.272-1.54,8.058-8.581,12.961-17.022,12.862-20.912-.244-41.828-.08-62.742-.08-29.74,0-59.479.037-89.218-.066a18.868,18.868,0,0,1-7.695-1.552c-6.047-2.819-8.851-7.918-8.851-14.567,0-51.137,0-55.018,0-106.154,0-.544-.008-1.09.037-1.631.36-4.352,1.977-8.2,5.534-10.763,2.235-1.613,4.971-2.531,7.482-3.76h159.634a8.186,8.186,0,0,0,.974.373,14.491,14.491,0,0,1,9.067,6.055A47,47,0,0,1-837.616,4654.247Zm-179.576,18.033v1.836c0,45.405,0,43.553,0,88.957,0,6.629,3.838,10.429,10.514,10.43q76.087.007,152.175,0c6.992,0,10.7-3.743,10.7-10.789,0-45.223,0-43.189,0-88.413v-2.022Zm173.342-6.458c0-3.317.1-6.454-.048-9.58a9.6,9.6,0,0,0-1.041-3.8c-1.958-3.835-5.375-5.089-9.477-5.088q-76.062.018-152.124.008c-.423,0-.847-.014-1.269.011-4.492.269-8.266,2.867-8.906,6.88-.6,3.764-.455,7.647-.641,11.565Z" transform="translate(1023.366 -4641.185)" fill="#12263f"/>
          <path id="Trazado_197441" data-name="Trazado 197441" d="M-944.9,4767.275q-19.034,0-38.067,0a11.9,11.9,0,0,1-1.5-.051,2.809,2.809,0,0,1-2.178-2.934,3.081,3.081,0,0,1,1.9-3.119,5.742,5.742,0,0,1,1.493-.1q38.545-.006,77.09.007a4.515,4.515,0,0,1,1.876.276c1.129.516,1.61,1.7,1.455,3.274-.149,1.508-.829,2.38-1.955,2.576a9.609,9.609,0,0,1-1.634.075Q-925.659,4767.279-944.9,4767.275Z" transform="translate(999.993 -4717.486)" fill="#12263f"/>
          <path id="Trazado_197442" data-name="Trazado 197442" d="M-955.369,4801.881q-14.259,0-28.519,0a9.164,9.164,0,0,1-1.123-.037,2.041,2.041,0,0,1-1.632-2.118,2.218,2.218,0,0,1,1.421-2.25,4.415,4.415,0,0,1,1.119-.075q28.877-.005,57.754,0a3.483,3.483,0,0,1,1.405.2,2.1,2.1,0,0,1,1.09,2.364c-.112,1.088-.621,1.718-1.464,1.859a7.48,7.48,0,0,1-1.224.054Q-940.956,4801.883-955.369,4801.881Z" transform="translate(999.993 -4740.611)" fill="#12263f"/>
          <path id="Trazado_197443" data-name="Trazado 197443" d="M-963.942,4832.249q-10.35,0-20.7,0a4.94,4.94,0,0,1-.815-.037c-.675-.114-1.161-1-1.184-2.119a2.354,2.354,0,0,1,1.031-2.25,2.373,2.373,0,0,1,.812-.075q20.96,0,41.921,0a1.9,1.9,0,0,1,1.02.2,2.411,2.411,0,0,1,.791,2.363c-.081,1.088-.451,1.718-1.063,1.859a3.954,3.954,0,0,1-.888.054Q-953.481,4832.251-963.942,4832.249Z" transform="translate(999.992 -4759.94)" fill="#12263f"/>
          <path id="Trazado_197444" data-name="Trazado 197444" d="M-976.189,4681.283c-.543,0-1.09.044-1.627-.008a2.943,2.943,0,0,1-2.85-2.931,2.972,2.972,0,0,1,2.636-3.148,18.234,18.234,0,0,1,3.614-.042,3.027,3.027,0,0,1,2.945,3.064,2.992,2.992,0,0,1-3.089,3.08c-.54.039-1.085.006-1.629.006Z" transform="translate(996.189 -4662.762)" fill="#12263f"/>
          <path id="Trazado_197445" data-name="Trazado 197445" d="M-897.934,4678.158a3.089,3.089,0,0,1-2.979,3.189,3.047,3.047,0,0,1-3.219-2.931,3.168,3.168,0,0,1,2.962-3.226A3.163,3.163,0,0,1-897.934,4678.158Z" transform="translate(947.476 -4662.828)" fill="#12263f"/>
          <path id="Trazado_197446" data-name="Trazado 197446" d="M-932.1,4678.328a3,3,0,0,1-3.122,3.043,3.113,3.113,0,0,1-3.065-2.958,3.238,3.238,0,0,1,3.072-3.185A3.127,3.127,0,0,1-932.1,4678.328Z" transform="translate(969.214 -4662.853)" fill="#12263f"/>
        </g>
      </g>
      <path id="Trazado_197447" data-name="Trazado 197447" d="M-700.179,4791.776c-3.805,0-7.611.013-11.416,0-2.831-.012-3.934-1.125-3.944-3.964-.013-3.624-.018-30.148,0-33.772.014-2.536,1.071-3.757,3.57-3.774,7.972-.059,41.391-.057,49.364,0,2.313.018,3.452,1.162,3.509,3.491.094,3.863.1,30.633,0,34.5-.064,2.463-1.308,3.506-3.858,3.519C-666.881,4791.791-696.253,4791.776-700.179,4791.776Zm34.7-35.1H-709.2v28.779h43.718Z" transform="translate(806.864 -4710.583)" fill="#12263f"/>
      <path id="Trazado_197448" data-name="Trazado 197448" d="M-784.93,4934.015h32.615l6.355-6.355-6.475-6.475H-785.17l5.935,5.936Z" transform="translate(851.176 -4819.401)" fill="none" stroke="#12263f" stroke-linejoin="round" stroke-width="2"/>
      <path id="Trazado_197449" data-name="Trazado 197449" d="M-886.525,4934.015h32.615l6.355-6.355-6.475-6.475h-32.734l5.935,5.936Z" transform="translate(915.84 -4819.401)" fill="none" stroke="#12263f" stroke-linejoin="round" stroke-width="2"/>
      <path id="Trazado_197450" data-name="Trazado 197450" d="M-988.12,4934.015h32.615l6.355-6.355-6.475-6.475H-988.36l5.935,5.936Z" transform="translate(980.504 -4819.401)" fill="none" stroke="#12263f" stroke-linejoin="round" stroke-width="2"/>
      <path id="Trazado_197451" data-name="Trazado 197451" d="M-634.8,4913.922v15.842a39.125,39.125,0,0,0,26.517,0l-.344-15.842" transform="translate(755.471 -4814.778)" fill="none" stroke="#12263f" stroke-linejoin="round" stroke-width="2"/>
      <path id="Trazado_197452" data-name="Trazado 197452" d="M-706.488,4807.148l13.316-14.235,6.888,4.133,5.51-6.429,6.428.919,9.643-10.562" transform="translate(801.097 -4730.159)" fill="none" stroke="#12263f" stroke-linejoin="round" stroke-width="3"/>
      <ellipse id="Elipse_5993" data-name="Elipse 5993" cx="13.086" cy="4.821" rx="13.086" ry="4.821" transform="translate(120.667 94.322)" fill="none" stroke="#12263f" stroke-linejoin="round" stroke-width="2"/>
      <path id="Trazado_197527" data-name="Trazado 197527" d="M-784.93,4934.015h32.615l6.355-6.355-6.475-6.475H-785.17l5.935,5.936Z" transform="translate(1081.5 -4844.196)" fill="none" stroke="#12263f" stroke-linejoin="round" stroke-width="2"/>
      <path id="Trazado_197528" data-name="Trazado 197528" d="M-886.525,4934.015h32.615l6.355-6.355-6.475-6.475h-32.734l5.935,5.936Z" transform="translate(1200.421 -4860.769)" fill="none" stroke="#12263f" stroke-linejoin="round" stroke-width="2"/>
      <path id="Trazado_197529" data-name="Trazado 197529" d="M-988.12,4934.015h32.615l6.355-6.355-6.475-6.475H-988.36l5.935,5.936Z" transform="translate(1265.085 -4860.769)" fill="none" stroke="#12263f" stroke-linejoin="round" stroke-width="2"/>
    </g>
    <path id="Trazado_197436" data-name="Trazado 197436" d="M-10419.125-6917.625h46.352" transform="translate(1148.684 -557.164)" fill="none" stroke="#12263f" stroke-width="5"/>
    <path id="Trazado_197437" data-name="Trazado 197437" d="M0,0H69.565" transform="translate(-9131.216 -7334.587) rotate(-90)" fill="none" stroke="#12263f" stroke-width="5"/>
    <path id="Trazado_197439" data-name="Trazado 197439" d="M-10419.125-6917.625h88.012" transform="translate(1377.585 -557.164)" fill="none" stroke="#12263f" stroke-width="5"/>
    <path id="Trazado_197440-2" data-name="Trazado 197440" d="M-10419.125-6917.625h36.4" transform="translate(1657.828 -557.164)" fill="none" stroke="#12263f" stroke-width="5"/>
    <path id="Polígono_73" data-name="Polígono 73" d="M12.2,0l12.2,20.457H0Z" transform="translate(-8706.775 -7487.031) rotate(90)" fill="#12263f"/>
    <g id="Rectángulo_46384" data-name="Rectángulo 46384" transform="translate(-9185.121 -7337.388)" fill="none" stroke="#12263f" stroke-width="8">
      <rect width="110.286" height="89.403" rx="5" stroke="none"/>
      <rect x="4" y="4" width="102.286" height="81.403" rx="1" fill="none"/>
    </g>
    <path id="Trazado_197441-2" data-name="Trazado 197441" d="M-10088.652-6500.5h81.2" transform="translate(917.762 -821.659)" fill="none" stroke="#12263f" stroke-width="3"/>
    <path id="Trazado_197443-2" data-name="Trazado 197443" d="M-10088.652-6500.5h81.2" transform="translate(917.762 -804.937)" fill="none" stroke="#12263f" stroke-width="3"/>
    <path id="Trazado_197445-2" data-name="Trazado 197445" d="M-10088.652-6500.5h81.2" transform="translate(917.398 -789.669)" fill="none" stroke="#12263f" stroke-width="3"/>
    <path id="Trazado_197447-2" data-name="Trazado 197447" d="M-10088.652-6500.5h81.2" transform="translate(917.398 -775.856)" fill="none" stroke="#12263f" stroke-width="3"/>
    <path id="Trazado_197449-2" data-name="Trazado 197449" d="M-10088.652-6500.5h81.2" transform="translate(917.762 -813.298)" fill="none" stroke="#12263f" stroke-width="3"/>
    <path id="Trazado_197451-2" data-name="Trazado 197451" d="M-10088.652-6500.5h81.2" transform="translate(917.762 -796.576)" fill="none" stroke="#12263f" stroke-width="3"/>
    <path id="Trazado_197453" data-name="Trazado 197453" d="M-10088.652-6500.5h81.2" transform="translate(917.762 -782.763)" fill="none" stroke="#12263f" stroke-width="3"/>
    <g id="Elipse_5993-2" data-name="Elipse 5993" transform="translate(-9140.207 -7272.229)" fill="none" stroke="#12263f" stroke-width="3">
      <circle cx="7.475" cy="7.475" r="7.475" stroke="none"/>
      <circle cx="7.475" cy="7.475" r="5.975" fill="none"/>
    </g>
    <circle id="Elipse_5995" data-name="Elipse 5995" cx="3.541" cy="3.541" r="3.541" transform="translate(-9136.273 -7268.295)" fill="#12263f"/>
    <path id="Trazado_197455" data-name="Trazado 197455" d="M-706.668,4774.231c-2.2,0-4.4.007-6.6,0-1.636-.007-2.273-.65-2.279-2.291-.008-2.093-.01-17.42,0-19.514.008-1.465.619-2.171,2.063-2.182,4.606-.033,23.917-.032,28.523,0a1.811,1.811,0,0,1,2.027,2.017c.054,2.232.056,17.7,0,19.932-.037,1.424-.756,2.026-2.229,2.033C-687.428,4774.24-704.4,4774.231-706.668,4774.231Zm20.047-20.279h-25.261v16.629h25.261Z" transform="translate(-8191.429 -12263.266)" fill="#12263f" stroke="rgba(0,0,0,0)" stroke-width="4"/>
    <path id="Trazado_197456" data-name="Trazado 197456" d="M-706.488,4796.1l7.694-8.225,3.98,2.388,3.184-3.715,3.714.531,5.572-6.1" transform="translate(-8198.588 -12287.561)" fill="none" stroke="#12263f" stroke-linejoin="round" stroke-width="2"/>
    <path id="Trazado_197457" data-name="Trazado 197457" d="M-634.8,4913.922v15.842a39.125,39.125,0,0,0,26.517,0l-.344-15.842" transform="translate(-8169.369 -12390.561)" fill="none" stroke="#12263f" stroke-linejoin="round" stroke-width="4"/>
    <ellipse id="Elipse_5997" data-name="Elipse 5997" cx="13.086" cy="4.821" rx="13.086" ry="4.821" transform="translate(-8804.173 -7481.459)" fill="none" stroke="#12263f" stroke-linejoin="round" stroke-width="4"/>
    <g id="Jh8W0t" transform="translate(-8953.528 -7536.616)">
      <g id="Grupo_155516" data-name="Grupo 155516">
        <path id="Trazado_197486" data-name="Trazado 197486" d="M-1381.237,4905.7a61.756,61.756,0,0,1-5.987,1.7c-9.485,1.7-19.137-3.855-22.392-14.871-3.018-10.215-.618-19.11,5.75-26.639a21.938,21.938,0,0,1,15.7-7.982c.251-.019.5-.059.751-.1.036-.007.066-.06.119-.112-.3-1.509-.72-3.014-.9-4.558a19.709,19.709,0,0,1,4.664-15.371,28.62,28.62,0,0,1,13.754-9.11,35.77,35.77,0,0,1,20.775-.452,52.336,52.336,0,0,1,7.539,3.062,1.159,1.159,0,0,0,1.656-.321,28.945,28.945,0,0,1,12.941-8.753,33.687,33.687,0,0,1,18.133-.909,38.48,38.48,0,0,1,16.885,8.509,1.942,1.942,0,0,0,1.677.36c5.43-1.892,10.933-3.284,16.626-3.156,4.846.11,9.531,1.121,13.682,4.316,4.528,3.487,6.673,8.5,6.858,14.754.017.585,0,1.171,0,1.874,1.688-.266,3.25-.621,4.823-.737,6.3-.468,10.882,4.093,10.736,11.338-.037,1.857-.191,3.713-.289,5.515,2.006.428,4.074.692,6.056,1.323a20.242,20.242,0,0,1,13.97,14.006,22.206,22.206,0,0,1-.985,15.727,28,28,0,0,1-17.688,16.095,25.734,25.734,0,0,1-11.964.915c-1-.146-1.358.218-1.657,1.372-2,7.737-6.648,12.454-13.021,15.015-6.4,2.569-12.877,2.431-19.432.761a47.9,47.9,0,0,1-14.339-6.649,1.606,1.606,0,0,0-1.557.062c-10.636,7.443-22.09,9.551-34.154,6.821a28.353,28.353,0,0,1-17-10.78c-.443-.589-.79-.672-1.406-.29a20.021,20.021,0,0,1-12.246,3.178c-7.6-.582-14.778-5.764-17.638-14.814C-1380.905,4906.427-1381.08,4906.081-1381.237,4905.7Zm21.155-77.582a32.223,32.223,0,0,0-16.385,4.994,23.725,23.725,0,0,0-9.277,10.3,17.018,17.018,0,0,0-.883,12.36c.72,2.353.3,3.1-1.764,3.343-.506.061-1.008.172-1.511.258-9.1,1.557-15.459,7.257-18.693,17.351-2.936,9.161-.665,18.916,5.75,24.8,5.881,5.395,12.481,6.214,19.493,3.545,2.416-.918,2.772-.724,3.748,1.98,2.843,7.878,9.91,13.355,17.232,13.414a20.219,20.219,0,0,0,10.672-2.892c1.383-.818,2.273-.673,3.188.568a24.824,24.824,0,0,0,8.721,7.319,36.09,36.09,0,0,0,21.136,3.69,42.127,42.127,0,0,0,19.9-7.562,2.964,2.964,0,0,1,2.607.106c1.644.773,3.15,1.938,4.768,2.8,7.376,3.922,15.07,5.779,23.155,4.249,8.42-1.594,14.871-6.229,17.461-16.38.369-1.449,1.28-1.519,2.318-1.443a40.548,40.548,0,0,0,4.7.26c9.713-.44,17.687-4.833,23.111-14.514,4.61-8.227,3.618-19.116-3.47-25.607a22.272,22.272,0,0,0-12.678-5.6c-1.8-.23-2.124-.854-1.933-2.9a34.09,34.09,0,0,0,.14-5.92c-.336-4.08-3.116-7.49-6.58-7.917a22.384,22.384,0,0,0-6.053.215c-2.29.347-2.784.036-2.821-2.624-.005-.4,0-.8-.029-1.19-.409-5.418-2.476-9.687-6.374-12.742-3.811-2.986-8.12-3.98-12.568-4.156a39.194,39.194,0,0,0-15.648,2.769,4.069,4.069,0,0,1-5.03-1.118,8.382,8.382,0,0,0-1.469-1.172,35.355,35.355,0,0,0-15.94-6.6c-10.43-1.395-19.924,1-27.838,9.572a2.3,2.3,0,0,1-3.128.564C-1347.3,4829.42-1352.835,4828.142-1360.082,4828.119Z" transform="translate(1410.911 -4820.458)" fill="#12263f" stroke="#12263f" stroke-width="4"/>
      </g>
    </g>
    <text id="Before" transform="translate(-9131.215 -7542.55)" fill="#12263f" font-size="12" font-family="Roboto-Bold, Roboto" font-weight="700"><tspan x="0" y="0">Before</tspan></text>
    <text id="After" transform="translate(-8867.973 -7551.55)" fill="#12263f" font-size="12" font-family="Roboto-Bold, Roboto" font-weight="700"><tspan x="0" y="0">After</tspan></text>
    <text id="SaaS" transform="translate(-8856.608 -7494.42)" fill="#12263f" font-size="18" font-family="Roboto-Bold, Roboto" font-weight="700"><tspan x="0" y="0">SaaS</tspan></text>
    <text id="Repurchase" transform="translate(-9029.034 -7484.459)" fill="#12263f" font-size="12" font-family="Roboto-Bold, Roboto" font-weight="700"><tspan x="0" y="0">Repurchase</tspan></text>
    <path id="Trazado_197530" data-name="Trazado 197530" d="M-968.247,4763.745h-16.776a5.231,5.231,0,0,1-.661-.023,1.237,1.237,0,0,1-.96-1.293,1.358,1.358,0,0,1,.836-1.375,2.557,2.557,0,0,1,.658-.045c11.324,0,14.149-.15,25.473-.145a1.988,1.988,0,0,1,.827.122,1.3,1.3,0,0,1,.641,1.443c-.065.664-.365,1.048-.862,1.135a4.221,4.221,0,0,1-.72.033C-965.442,4763.6-962.595,4763.745-968.247,4763.745Z" transform="translate(-7859.329 -12221.7)" fill="#12263f"/>
    <path id="Trazado_197531" data-name="Trazado 197531" d="M-972.861,4799.372h-12.568a4.182,4.182,0,0,1-.495-.016.9.9,0,0,1-.719-.934.978.978,0,0,1,.626-.992,1.957,1.957,0,0,1,.493-.034q12.726,0,25.451,0a1.536,1.536,0,0,1,.619.087.928.928,0,0,1,.48,1.042c-.049.479-.274.757-.645.819a3.316,3.316,0,0,1-.54.024Z" transform="translate(-7859.329 -12252.269)" fill="#12263f"/>
    <path id="Trazado_197532" data-name="Trazado 197532" d="M-976.639,4829.741h-9.123a2.1,2.1,0,0,1-.359-.017c-.3-.05-.512-.44-.522-.934a1.037,1.037,0,0,1,.454-.991,1.041,1.041,0,0,1,.358-.033q9.237,0,18.474,0a.843.843,0,0,1,.449.088,1.063,1.063,0,0,1,.349,1.042c-.036.48-.2.757-.469.819a1.7,1.7,0,0,1-.392.024Z" transform="translate(-7859.33 -12277.771)" fill="#12263f"/>
  </g>
</svg>
