<svg xmlns="http://www.w3.org/2000/svg" width="64" height="64" viewBox="0 0 64 64">
  <g id="Grupo_142441" data-name="Grupo 142441" transform="translate(-0.403 -0.152)">
    <circle id="Elipse_4870" data-name="Elipse 4870" cx="32" cy="32" r="32" transform="translate(0.403 0.152)" fill="#f59d36"/>
    <g id="YFfHPv.tif" transform="translate(15.545 17.038)">
      <g id="Grupo_155493" data-name="Grupo 155493" transform="translate(0)">
        <path id="Trazado_197403" data-name="Trazado 197403" d="M-1341.833,245.592h-1.7c-.333-.059-.668-.109-1-.179a9.1,9.1,0,0,1-5.611-3.624.643.643,0,0,0-.587-.3q-8.282.012-16.564.005a1.018,1.018,0,0,1-1.12-1.118q0-13.226,0-26.452a1.023,1.023,0,0,1,1.14-1.131q2.335,0,4.669,0h.393c0-.363,0-.69,0-1.017a1.016,1.016,0,0,1,1.005-1.1,1.016,1.016,0,0,1,1.036,1.1c0,.335,0,.671,0,.995h4.093c0-.369-.005-.719,0-1.069a1.008,1.008,0,0,1,1.007-1.025,1.009,1.009,0,0,1,1.033,1.033c.006.349,0,.7,0,1.059h4.094c0-.37-.005-.72,0-1.07a1.008,1.008,0,0,1,1.01-1.022,1.009,1.009,0,0,1,1.03,1.036c.006.349,0,.7,0,1.056h4.093c0-.349,0-.676,0-1a1.015,1.015,0,0,1,1.013-1.087,1.013,1.013,0,0,1,1.028,1.072c0,.337,0,.675,0,1.04h4.972c.87,0,1.232.366,1.232,1.245q0,8.113.008,16.226a1.058,1.058,0,0,0,.193.583,9.2,9.2,0,0,1,1.646,3.661c.066.33.133.659.2.989v1.773c-.024.085-.052.17-.071.256a15.437,15.437,0,0,1-.427,1.813,9.055,9.055,0,0,1-6.563,5.986C-1340.991,245.436-1341.415,245.505-1341.833,245.592Zm-24.52-24.6v18.445h14.907l-.455-2.029c-.325,0-.664,0-1,0a1.012,1.012,0,0,1-1.062-1,1.012,1.012,0,0,1,1.063-1.038c.339,0,.677,0,1,0l.457-2.05c-.543,0-1.054.012-1.564,0a1,1,0,0,1-.959-.967.98.98,0,0,1,.86-1.054,20.858,20.858,0,0,1,2.35.008.5.5,0,0,0,.539-.24,9.177,9.177,0,0,1,11.139-3.121c.492.216.961.485,1.454.736v-7.683Zm30.791,15.432a7.2,7.2,0,0,0-7.12-7.2,7.2,7.2,0,0,0-7.194,7.121,7.2,7.2,0,0,0,7.12,7.2A7.2,7.2,0,0,0-1335.562,236.424Zm-2.068-17.5v-4.052h-4.137c0,.323,0,.618,0,.913a1.017,1.017,0,0,1-1.031,1.1,1.015,1.015,0,0,1-1.011-1.09c0-.313,0-.626,0-.927h-4.093c0,.323,0,.618,0,.914a1.017,1.017,0,0,1-1.032,1.1,1.015,1.015,0,0,1-1.01-1.091c0-.313,0-.626,0-.938h-4.093c0,.319,0,.623,0,.926a1.017,1.017,0,0,1-1.033,1.1,1.015,1.015,0,0,1-1.009-1.092c0-.313,0-.626,0-.936h-4.093c0,.319,0,.623,0,.927a1.016,1.016,0,0,1-1.034,1.1,1.016,1.016,0,0,1-1.008-1.092c0-.313,0-.625,0-.935h-4.141v4.063Z" transform="translate(1368.419 -210.685)" fill="#fff"/>
        <path id="Trazado_197404" data-name="Trazado 197404" d="M-1275.534,394.336c-.351,0-.7.008-1.053,0a1.007,1.007,0,0,1-.988-1.037,1,1,0,0,1,.991-1q1.053-.017,2.107,0a1,1,0,0,1,.988,1.036,1.007,1.007,0,0,1-.991,1C-1274.831,394.344-1275.183,394.336-1275.534,394.336Z" transform="translate(1283.78 -379.886)" fill="#fff"/>
        <path id="Trazado_197405" data-name="Trazado 197405" d="M-1154.77,394.345c-.34,0-.68.006-1.019,0a1.007,1.007,0,0,1-1.008-1.018,1,1,0,0,1,1-1.02q1.036-.015,2.073,0a1,1,0,0,1,1.009,1.017,1.007,1.007,0,0,1-1.005,1.021C-1154.068,394.351-1154.419,394.345-1154.77,394.345Z" transform="translate(1171.251 -379.894)" fill="#fff"/>
        <path id="Trazado_197406" data-name="Trazado 197406" d="M-1034.944,392.332c.34,0,.68-.008,1.019,0a1.007,1.007,0,0,1,.99,1.035,1,1,0,0,1-.989,1q-1.053.017-2.107,0a1,1,0,0,1-.99-1.034,1.006,1.006,0,0,1,.989-1C-1035.67,392.324-1035.307,392.332-1034.944,392.332Z" transform="translate(1059.655 -379.923)" fill="#fff"/>
        <path id="Trazado_197407" data-name="Trazado 197407" d="M-1275.531,452.229c.351,0,.7-.008,1.053,0a1.007,1.007,0,0,1,.988,1.037,1,1,0,0,1-.991,1q-1.053.017-2.106,0a1,1,0,0,1-.988-1.036,1.006,1.006,0,0,1,.991-1C-1276.233,452.221-1275.882,452.229-1275.531,452.229Z" transform="translate(1283.78 -435.729)" fill="#fff"/>
        <path id="Trazado_197408" data-name="Trazado 197408" d="M-1154.778,454.242c-.34,0-.68.007-1.019,0a1.007,1.007,0,0,1-1-1.026,1,1,0,0,1,1.013-1.013q1.036-.013,2.073,0a1,1,0,0,1,1,1.025,1.007,1.007,0,0,1-1.013,1.013C-1154.076,454.249-1154.427,454.243-1154.778,454.242Z" transform="translate(1171.251 -435.701)" fill="#fff"/>
        <path id="Trazado_197409" data-name="Trazado 197409" d="M-1275.532,514.132c-.351,0-.7.008-1.053,0a1.007,1.007,0,0,1-.99-1.036,1,1,0,0,1,.99-1q1.053-.017,2.107,0a1,1,0,0,1,.99,1.035,1.006,1.006,0,0,1-.99,1C-1274.829,514.14-1275.181,514.132-1275.532,514.132Z" transform="translate(1283.78 -491.499)" fill="#fff"/>
        <path id="Trazado_197410" data-name="Trazado 197410" d="M-1275.564,574.029c-.34,0-.68.008-1.019,0a1.007,1.007,0,0,1-.991-1.034,1,1,0,0,1,.988-1q1.053-.017,2.106,0a1,1,0,0,1,.991,1.034,1.006,1.006,0,0,1-.989,1C-1274.839,574.037-1275.2,574.029-1275.564,574.029Z" transform="translate(1283.78 -547.306)" fill="#fff"/>
        <path id="Trazado_197411" data-name="Trazado 197411" d="M-1005.06,516.26c1.059,0,2.069-.005,3.079,0a1.009,1.009,0,0,1,1.007.883,1.017,1.017,0,0,1-.741,1.118,1.254,1.254,0,0,1-.336.037q-1.977,0-3.954,0a1.014,1.014,0,0,1-1.1-1.106q0-1.96,0-3.92a1.015,1.015,0,0,1,1.029-1.106,1.019,1.019,0,0,1,1.013,1.122C-1005.058,514.267-1005.06,515.242-1005.06,516.26Z" transform="translate(1031.781 -491.579)" fill="#fff"/>
      </g>
    </g>
  </g>
</svg>
