<svg xmlns="http://www.w3.org/2000/svg" xmlns:xlink="http://www.w3.org/1999/xlink" width="1327.991" height="798.498" viewBox="0 0 1327.991 798.498">
  <defs>
    <linearGradient id="linear-gradient" x1="0.5" x2="0.5" y2="1" gradientUnits="objectBoundingBox">
      <stop offset="0" stop-color="#7e7e7e"/>
      <stop offset="1" stop-color="#fff"/>
    </linearGradient>
    <clipPath id="clip-path">
      <ellipse id="Elipse_4979" data-name="Elipse 4979" cx="44.421" cy="44.421" rx="44.421" ry="44.421" fill="none"/>
    </clipPath>
    <linearGradient id="linear-gradient-3" x1="0.5" x2="0.5" y2="1" gradientUnits="objectBoundingBox">
      <stop offset="0" stop-color="#039be5"/>
      <stop offset="1" stop-color="#027fbc"/>
    </linearGradient>
    <linearGradient id="linear-gradient-4" x1="0.5" x2="0.5" y2="1" gradientUnits="objectBoundingBox">
      <stop offset="0" stop-color="#f5f5f5"/>
      <stop offset="0.25" stop-color="#f5f5f5"/>
      <stop offset="1" stop-color="#afafaf"/>
    </linearGradient>
  </defs>
  <g id="Grupo_161557" data-name="Grupo 161557" transform="translate(-147.329 -820.436)">
    <g id="Grupo_161555" data-name="Grupo 161555">
      <g id="Grupo_161554" data-name="Grupo 161554">
        <g id="Grupo_161556" data-name="Grupo 161556">
          <g id="Grupo_155380" data-name="Grupo 155380" transform="translate(11.337 -256.481)" opacity="0.423">
            <g id="Grupo_149857" data-name="Grupo 149857" transform="translate(135.991 1076.917)">
              <rect id="Rectángulo_44012" data-name="Rectángulo 44012" width="1327.991" height="578.96" transform="translate(0 219.537)" opacity="0.15" fill="url(#linear-gradient)"/>
              <rect id="Rectángulo_44432" data-name="Rectángulo 44432" width="1327.991" height="219.398" transform="translate(1327.991 219.398) rotate(180)" opacity="0.15" fill="url(#linear-gradient)"/>
            </g>
            <g id="Grupo_149858" data-name="Grupo 149858" transform="translate(136.731 1129.911)" opacity="0.711">
              <path id="Trazado_174289" data-name="Trazado 174289" d="M197.961,383.022A113.883,113.883,0,1,0,311.844,496.9,113.883,113.883,0,0,0,197.961,383.022Zm0,205A91.119,91.119,0,1,1,289.08,496.9,91.12,91.12,0,0,1,197.961,588.024Z" transform="translate(596.304 2.815)" fill="#fdfdfd"/>
              <g id="Grupo_124665" data-name="Grupo 124665" transform="translate(10 191.642)" opacity="0.23">
                <path id="Trazado_174290" data-name="Trazado 174290" d="M59.688,315.342-111.288,486.318a14.937,14.937,0,0,1-21.126,0h0a14.939,14.939,0,0,1,0-21.126L38.562,294.215a14.939,14.939,0,0,1,21.126,0h0A14.939,14.939,0,0,1,59.688,315.342Z" transform="translate(136.79 -289.84)" fill="none" stroke="#8f9294" stroke-miterlimit="10" stroke-width="2"/>
                <path id="Trazado_174291" data-name="Trazado 174291" d="M57.955,407.627l-130.5,130.5a11.4,11.4,0,0,1-16.125,0h0a11.4,11.4,0,0,1,0-16.126l130.5-130.5a11.4,11.4,0,0,1,16.126,0h0A11.4,11.4,0,0,1,57.955,407.627Z" transform="translate(128.113 -308.893)" fill="none" stroke="#8f9294" stroke-miterlimit="10" stroke-width="2"/>
              </g>
              <g id="Grupo_124669" data-name="Grupo 124669" transform="translate(1151.729 414.086)">
                <g id="Grupo_124668" data-name="Grupo 124668">
                  <line id="Línea_1655" data-name="Línea 1655" x1="10.948" y2="10.948" fill="none" stroke="#d8d9da" stroke-miterlimit="10" stroke-width="0.78"/>
                  <line id="Línea_1656" data-name="Línea 1656" x1="10.948" y2="10.948" transform="translate(5.334)" fill="none" stroke="#d8d9da" stroke-miterlimit="10" stroke-width="0.78"/>
                  <line id="Línea_1657" data-name="Línea 1657" x1="10.948" y2="10.948" transform="translate(10.667)" fill="none" stroke="#d8d9da" stroke-miterlimit="10" stroke-width="0.78"/>
                  <line id="Línea_1658" data-name="Línea 1658" x1="10.948" y2="10.948" transform="translate(16.001)" fill="none" stroke="#d8d9da" stroke-miterlimit="10" stroke-width="0.78"/>
                  <line id="Línea_1659" data-name="Línea 1659" x1="10.948" y2="10.948" transform="translate(21.335)" fill="none" stroke="#d8d9da" stroke-miterlimit="10" stroke-width="0.78"/>
                  <line id="Línea_1660" data-name="Línea 1660" x1="10.948" y2="10.948" transform="translate(26.668)" fill="none" stroke="#d8d9da" stroke-miterlimit="10" stroke-width="0.78"/>
                  <line id="Línea_1661" data-name="Línea 1661" x1="10.948" y2="10.948" transform="translate(32.002)" fill="none" stroke="#d8d9da" stroke-miterlimit="10" stroke-width="0.78"/>
                  <line id="Línea_1662" data-name="Línea 1662" x1="10.948" y2="10.948" transform="translate(37.336)" fill="none" stroke="#d8d9da" stroke-miterlimit="10" stroke-width="0.78"/>
                  <line id="Línea_1663" data-name="Línea 1663" x1="10.948" y2="10.948" transform="translate(42.669)" fill="none" stroke="#d8d9da" stroke-miterlimit="10" stroke-width="0.78"/>
                  <line id="Línea_1664" data-name="Línea 1664" x1="10.948" y2="10.948" transform="translate(48.003)" fill="none" stroke="#d8d9da" stroke-miterlimit="10" stroke-width="0.78"/>
                  <line id="Línea_1665" data-name="Línea 1665" x1="10.948" y2="10.948" transform="translate(53.336)" fill="none" stroke="#d8d9da" stroke-miterlimit="10" stroke-width="0.78"/>
                  <line id="Línea_1666" data-name="Línea 1666" x1="10.948" y2="10.948" transform="translate(58.67)" fill="none" stroke="#d8d9da" stroke-miterlimit="10" stroke-width="0.78"/>
                  <line id="Línea_1667" data-name="Línea 1667" x1="10.948" y2="10.948" transform="translate(64.004)" fill="none" stroke="#d8d9da" stroke-miterlimit="10" stroke-width="0.78"/>
                </g>
              </g>
              <g id="Grupo_149859" data-name="Grupo 149859" transform="translate(215.347 232.48)" opacity="0.394">
                <g id="Grupo_124677" data-name="Grupo 124677">
                  <g id="Grupo_124673" data-name="Grupo 124673">
                    <line id="Línea_1668" data-name="Línea 1668" y2="8.834" transform="translate(4.417)" fill="none" stroke="#8f9294" stroke-miterlimit="10" stroke-width="0.388"/>
                    <line id="Línea_1669" data-name="Línea 1669" x2="8.834" transform="translate(0 4.417)" fill="none" stroke="#8f9294" stroke-miterlimit="10" stroke-width="0.388"/>
                  </g>
                  <g id="Grupo_124674" data-name="Grupo 124674" transform="translate(24.072)">
                    <line id="Línea_1670" data-name="Línea 1670" y2="8.834" transform="translate(4.417)" fill="none" stroke="#8f9294" stroke-miterlimit="10" stroke-width="0.388"/>
                    <line id="Línea_1671" data-name="Línea 1671" x2="8.834" transform="translate(0 4.417)" fill="none" stroke="#8f9294" stroke-miterlimit="10" stroke-width="0.388"/>
                  </g>
                  <g id="Grupo_124675" data-name="Grupo 124675" transform="translate(48.144)">
                    <line id="Línea_1672" data-name="Línea 1672" y2="8.834" transform="translate(4.417)" fill="none" stroke="#8f9294" stroke-miterlimit="10" stroke-width="0.388"/>
                    <line id="Línea_1673" data-name="Línea 1673" x2="8.834" transform="translate(0 4.417)" fill="none" stroke="#8f9294" stroke-miterlimit="10" stroke-width="0.388"/>
                  </g>
                  <g id="Grupo_124676" data-name="Grupo 124676" transform="translate(72.215)">
                    <line id="Línea_1674" data-name="Línea 1674" y2="8.834" transform="translate(4.417)" fill="none" stroke="#8f9294" stroke-miterlimit="10" stroke-width="0.388"/>
                    <line id="Línea_1675" data-name="Línea 1675" x2="8.834" transform="translate(0 4.417)" fill="none" stroke="#8f9294" stroke-miterlimit="10" stroke-width="0.388"/>
                  </g>
                </g>
                <g id="Grupo_124682" data-name="Grupo 124682" transform="translate(0 18.33)">
                  <g id="Grupo_124678" data-name="Grupo 124678">
                    <line id="Línea_1676" data-name="Línea 1676" y2="8.834" transform="translate(4.417)" fill="none" stroke="#8f9294" stroke-miterlimit="10" stroke-width="0.388"/>
                    <line id="Línea_1677" data-name="Línea 1677" x2="8.834" transform="translate(0 4.417)" fill="none" stroke="#8f9294" stroke-miterlimit="10" stroke-width="0.388"/>
                  </g>
                  <g id="Grupo_124679" data-name="Grupo 124679" transform="translate(24.072)">
                    <line id="Línea_1678" data-name="Línea 1678" y2="8.834" transform="translate(4.417)" fill="none" stroke="#8f9294" stroke-miterlimit="10" stroke-width="0.388"/>
                    <line id="Línea_1679" data-name="Línea 1679" x2="8.834" transform="translate(0 4.417)" fill="none" stroke="#8f9294" stroke-miterlimit="10" stroke-width="0.388"/>
                  </g>
                  <g id="Grupo_124680" data-name="Grupo 124680" transform="translate(48.144)">
                    <line id="Línea_1680" data-name="Línea 1680" y2="8.834" transform="translate(4.417)" fill="none" stroke="#8f9294" stroke-miterlimit="10" stroke-width="0.388"/>
                    <line id="Línea_1681" data-name="Línea 1681" x2="8.834" transform="translate(0 4.417)" fill="none" stroke="#8f9294" stroke-miterlimit="10" stroke-width="0.388"/>
                  </g>
                  <g id="Grupo_124681" data-name="Grupo 124681" transform="translate(72.215)">
                    <line id="Línea_1682" data-name="Línea 1682" y2="8.834" transform="translate(4.417)" fill="none" stroke="#8f9294" stroke-miterlimit="10" stroke-width="0.388"/>
                    <line id="Línea_1683" data-name="Línea 1683" x2="8.834" transform="translate(0 4.417)" fill="none" stroke="#8f9294" stroke-miterlimit="10" stroke-width="0.388"/>
                  </g>
                </g>
                <g id="Grupo_124687" data-name="Grupo 124687" transform="translate(0 36.66)">
                  <g id="Grupo_124683" data-name="Grupo 124683">
                    <line id="Línea_1684" data-name="Línea 1684" y2="8.834" transform="translate(4.417)" fill="none" stroke="#8f9294" stroke-miterlimit="10" stroke-width="0.388"/>
                    <line id="Línea_1685" data-name="Línea 1685" x2="8.834" transform="translate(0 4.417)" fill="none" stroke="#8f9294" stroke-miterlimit="10" stroke-width="0.388"/>
                  </g>
                  <g id="Grupo_124684" data-name="Grupo 124684" transform="translate(24.072)">
                    <line id="Línea_1686" data-name="Línea 1686" y2="8.834" transform="translate(4.417)" fill="none" stroke="#8f9294" stroke-miterlimit="10" stroke-width="0.388"/>
                    <line id="Línea_1687" data-name="Línea 1687" x2="8.834" transform="translate(0 4.417)" fill="none" stroke="#8f9294" stroke-miterlimit="10" stroke-width="0.388"/>
                  </g>
                  <g id="Grupo_124685" data-name="Grupo 124685" transform="translate(48.144)">
                    <line id="Línea_1688" data-name="Línea 1688" y2="8.834" transform="translate(4.417)" fill="none" stroke="#8f9294" stroke-miterlimit="10" stroke-width="0.388"/>
                    <line id="Línea_1689" data-name="Línea 1689" x2="8.834" transform="translate(0 4.417)" fill="none" stroke="#8f9294" stroke-miterlimit="10" stroke-width="0.388"/>
                  </g>
                  <g id="Grupo_124686" data-name="Grupo 124686" transform="translate(72.215)">
                    <line id="Línea_1690" data-name="Línea 1690" y2="8.834" transform="translate(4.417)" fill="none" stroke="#8f9294" stroke-miterlimit="10" stroke-width="0.388"/>
                    <line id="Línea_1691" data-name="Línea 1691" x2="8.834" transform="translate(0 4.417)" fill="none" stroke="#8f9294" stroke-miterlimit="10" stroke-width="0.388"/>
                  </g>
                </g>
                <g id="Grupo_124692" data-name="Grupo 124692" transform="translate(0 54.99)">
                  <g id="Grupo_124688" data-name="Grupo 124688">
                    <line id="Línea_1692" data-name="Línea 1692" y2="8.834" transform="translate(4.417)" fill="none" stroke="#8f9294" stroke-miterlimit="10" stroke-width="0.388"/>
                    <line id="Línea_1693" data-name="Línea 1693" x2="8.834" transform="translate(0 4.417)" fill="none" stroke="#8f9294" stroke-miterlimit="10" stroke-width="0.388"/>
                  </g>
                  <g id="Grupo_124689" data-name="Grupo 124689" transform="translate(24.072)">
                    <line id="Línea_1694" data-name="Línea 1694" y2="8.834" transform="translate(4.417)" fill="none" stroke="#8f9294" stroke-miterlimit="10" stroke-width="0.388"/>
                    <line id="Línea_1695" data-name="Línea 1695" x2="8.834" transform="translate(0 4.417)" fill="none" stroke="#8f9294" stroke-miterlimit="10" stroke-width="0.388"/>
                  </g>
                  <g id="Grupo_124690" data-name="Grupo 124690" transform="translate(48.144)">
                    <line id="Línea_1696" data-name="Línea 1696" y2="8.834" transform="translate(4.417)" fill="none" stroke="#8f9294" stroke-miterlimit="10" stroke-width="0.388"/>
                    <line id="Línea_1697" data-name="Línea 1697" x2="8.834" transform="translate(0 4.417)" fill="none" stroke="#8f9294" stroke-miterlimit="10" stroke-width="0.388"/>
                  </g>
                  <g id="Grupo_124691" data-name="Grupo 124691" transform="translate(72.215)">
                    <line id="Línea_1698" data-name="Línea 1698" y2="8.834" transform="translate(4.417)" fill="none" stroke="#8f9294" stroke-miterlimit="10" stroke-width="0.388"/>
                    <line id="Línea_1699" data-name="Línea 1699" x2="8.834" transform="translate(0 4.417)" fill="none" stroke="#8f9294" stroke-miterlimit="10" stroke-width="0.388"/>
                  </g>
                </g>
              </g>
              <rect id="Rectángulo_35685" data-name="Rectángulo 35685" width="97.944" height="8.212" transform="translate(1000.729 126.348)" fill="none" stroke="#8f9294" stroke-linecap="round" stroke-linejoin="round" stroke-width="1"/>
              <g id="Grupo_124746" data-name="Grupo 124746" transform="translate(854.972 204.026)" opacity="0.367">
                <g id="Grupo_124745" data-name="Grupo 124745" transform="translate(0)" clip-path="url(#clip-path)">
                  <path id="Trazado_174310" data-name="Trazado 174310" d="M501.577,136.445c-12.286,13.041-25.479,25.179-37.768,38.271" transform="translate(-468.586 -138.529)" fill="none" stroke="#606060" stroke-miterlimit="10" stroke-width="0.655"/>
                  <path id="Trazado_174311" data-name="Trazado 174311" d="M507.19,136.393c-13.685,14.666-28.989,28.914-43.418,43.4" transform="translate(-468.579 -138.518)" fill="none" stroke="#606060" stroke-miterlimit="10" stroke-width="0.655"/>
                  <path id="Trazado_174312" data-name="Trazado 174312" d="M512.364,136.4c-16.245,16.241-32.6,32.6-48.72,48.728" transform="translate(-468.554 -138.521)" fill="none" stroke="#606060" stroke-miterlimit="10" stroke-width="0.655"/>
                  <path id="Trazado_174313" data-name="Trazado 174313" d="M517.526,136.55q-26.553,26.559-53.831,53.822" transform="translate(-468.564 -138.549)" fill="none" stroke="#606060" stroke-miterlimit="10" stroke-width="0.655"/>
                  <path id="Trazado_174314" data-name="Trazado 174314" d="M523.855,136.489c-19.8,19.339-39.849,38.864-60.086,58.967" transform="translate(-468.578 -138.537)" fill="none" stroke="#606060" stroke-miterlimit="10" stroke-width="0.655"/>
                  <path id="Trazado_174315" data-name="Trazado 174315" d="M527.971,136.579c-20.768,21.377-41.349,41.43-62.457,63.066-.527.528-1.583.528-1.862,1.252" transform="translate(-468.556 -138.555)" fill="none" stroke="#606060" stroke-miterlimit="10" stroke-width="0.655"/>
                  <path id="Trazado_174316" data-name="Trazado 174316" d="M533.749,136.461c-12.784,13.556-26.5,25.694-40.226,39.414-10.026,10.554-20.053,19.526-29.661,30.06" transform="translate(-468.597 -138.532)" fill="none" stroke="#606060" stroke-miterlimit="10" stroke-width="0.655"/>
                  <path id="Trazado_174317" data-name="Trazado 174317" d="M537.292,137.765c-24.261,24.642-49.592,48.389-73.522,73.694" transform="translate(-468.579 -138.784)" fill="none" stroke="#606060" stroke-miterlimit="10" stroke-width="0.655"/>
                  <path id="Trazado_174318" data-name="Trazado 174318" d="M537.262,144.249c-24.21,24.164-49.013,48.967-73.382,73.475" transform="translate(-468.6 -140.041)" fill="none" stroke="#606060" stroke-miterlimit="10" stroke-width="0.655"/>
                  <path id="Trazado_174319" data-name="Trazado 174319" d="M539.925,147.767c-25.286,25.549-51.144,50.352-76.027,75.947" transform="translate(-468.604 -140.722)" fill="none" stroke="#606060" stroke-miterlimit="10" stroke-width="0.655"/>
                  <path id="Trazado_174320" data-name="Trazado 174320" d="M545.127,147.736c-27.376,27.158-53.762,55.126-81.511,81.437" transform="translate(-468.549 -140.716)" fill="none" stroke="#606060" stroke-miterlimit="10" stroke-width="0.655"/>
                  <path id="Trazado_174321" data-name="Trazado 174321" d="M550.692,147.97,467.2,231.457" transform="translate(-469.244 -140.762)" fill="none" stroke="#606060" stroke-miterlimit="10" stroke-width="0.655"/>
                  <path id="Trazado_174322" data-name="Trazado 174322" d="M557.061,147.974c-27.874,27.494-55.315,55.462-83.446,83.531" transform="translate(-470.487 -140.763)" fill="none" stroke="#606060" stroke-miterlimit="10" stroke-width="0.655"/>
                  <path id="Trazado_174323" data-name="Trazado 174323" d="M561.069,150.913c-26.94,26.707-53.325,54.148-81.012,81.183" transform="translate(-471.735 -141.332)" fill="none" stroke="#606060" stroke-miterlimit="10" stroke-width="0.655"/>
                  <path id="Trazado_174324" data-name="Trazado 174324" d="M562.482,157.09c-25.516,25.421-49.791,51.807-75.953,76.2" transform="translate(-472.989 -142.529)" fill="none" stroke="#606060" stroke-miterlimit="10" stroke-width="0.655"/>
                  <path id="Trazado_174325" data-name="Trazado 174325" d="M563.548,164.17c-23.739,23.407-46.959,47.154-70.519,70.467" transform="translate(-474.248 -143.901)" fill="none" stroke="#606060" stroke-miterlimit="10" stroke-width="0.655"/>
                  <path id="Trazado_174326" data-name="Trazado 174326" d="M564.966,170.164c-21.782,21.741-43.418,43.9-65.413,65.589" transform="translate(-475.513 -145.063)" fill="none" stroke="#606060" stroke-miterlimit="10" stroke-width="0.655"/>
                  <path id="Trazado_174327" data-name="Trazado 174327" d="M566.146,176.763q-30.212,30.172-60.2,60.333" transform="translate(-476.751 -146.341)" fill="none" stroke="#606060" stroke-miterlimit="10" stroke-width="0.655"/>
                  <path id="Trazado_174328" data-name="Trazado 174328" d="M567.479,183.234c-18.091,18.591-36.561,37.061-54.971,55.038" transform="translate(-478.023 -147.595)" fill="none" stroke="#606060" stroke-miterlimit="10" stroke-width="0.655"/>
                  <path id="Trazado_174329" data-name="Trazado 174329" d="M568.659,189.833c-16.443,16.437-33.329,33.324-49.727,49.754" transform="translate(-479.268 -148.874)" fill="none" stroke="#606060" stroke-miterlimit="10" stroke-width="0.655"/>
                  <path id="Trazado_174330" data-name="Trazado 174330" d="M569.768,196.537q-22.081,22.09-44.4,44.374" transform="translate(-480.515 -150.173)" fill="none" stroke="#606060" stroke-miterlimit="10" stroke-width="0.655"/>
                  <path id="Trazado_174331" data-name="Trazado 174331" d="M571.178,202.6q-15.364,15.3-30.648,30.68-4.363,4.4-8.714,8.821" transform="translate(-481.765 -151.348)" fill="none" stroke="#606060" stroke-miterlimit="10" stroke-width="0.655"/>
                  <path id="Trazado_174332" data-name="Trazado 174332" d="M572.392,209.851c-11.15,11.381-22.76,22.99-34.117,33.664" transform="translate(-483.016 -152.753)" fill="none" stroke="#606060" stroke-miterlimit="10" stroke-width="0.655"/>
                </g>
              </g>
              <ellipse id="Elipse_4980" data-name="Elipse 4980" cx="4.324" cy="4.324" rx="4.324" ry="4.324" transform="translate(1131.116 239.528)" fill="none" stroke="#606060" stroke-miterlimit="10" stroke-width="0.655"/>
              <g id="Grupo_124749" data-name="Grupo 124749" transform="translate(1172.136 209.217)">
                <g id="Grupo_124668-2" data-name="Grupo 124668" transform="translate(0 0)">
                  <line id="Línea_1655-2" data-name="Línea 1655" x1="8.613" y2="8.613" fill="none" stroke="#d8d9da" stroke-miterlimit="10" stroke-width="0.78"/>
                  <line id="Línea_1656-2" data-name="Línea 1656" x1="8.613" y2="8.613" transform="translate(4.196)" fill="none" stroke="#d8d9da" stroke-miterlimit="10" stroke-width="0.78"/>
                  <line id="Línea_1657-2" data-name="Línea 1657" x1="8.613" y2="8.613" transform="translate(8.392)" fill="none" stroke="#d8d9da" stroke-miterlimit="10" stroke-width="0.78"/>
                  <line id="Línea_1658-2" data-name="Línea 1658" x1="8.613" y2="8.613" transform="translate(12.589)" fill="none" stroke="#d8d9da" stroke-miterlimit="10" stroke-width="0.78"/>
                  <line id="Línea_1659-2" data-name="Línea 1659" x1="8.613" y2="8.613" transform="translate(16.785)" fill="none" stroke="#d8d9da" stroke-miterlimit="10" stroke-width="0.78"/>
                  <line id="Línea_1660-2" data-name="Línea 1660" x1="8.613" y2="8.613" transform="translate(20.981)" fill="none" stroke="#d8d9da" stroke-miterlimit="10" stroke-width="0.78"/>
                  <line id="Línea_1661-2" data-name="Línea 1661" x1="8.613" y2="8.613" transform="translate(25.177)" fill="none" stroke="#d8d9da" stroke-miterlimit="10" stroke-width="0.78"/>
                  <line id="Línea_1662-2" data-name="Línea 1662" x1="8.613" y2="8.613" transform="translate(29.373)" fill="none" stroke="#d8d9da" stroke-miterlimit="10" stroke-width="0.78"/>
                  <line id="Línea_1663-2" data-name="Línea 1663" x1="8.613" y2="8.613" transform="translate(33.57)" fill="none" stroke="#d8d9da" stroke-miterlimit="10" stroke-width="0.78"/>
                  <line id="Línea_1664-2" data-name="Línea 1664" x1="8.613" y2="8.613" transform="translate(37.766)" fill="none" stroke="#d8d9da" stroke-miterlimit="10" stroke-width="0.78"/>
                  <line id="Línea_1665-2" data-name="Línea 1665" x1="8.613" y2="8.613" transform="translate(41.962)" fill="none" stroke="#d8d9da" stroke-miterlimit="10" stroke-width="0.78"/>
                  <line id="Línea_1666-2" data-name="Línea 1666" x1="8.613" y2="8.613" transform="translate(46.158)" fill="none" stroke="#d8d9da" stroke-miterlimit="10" stroke-width="0.78"/>
                  <line id="Línea_1667-2" data-name="Línea 1667" x1="8.613" y2="8.613" transform="translate(50.354)" fill="none" stroke="#d8d9da" stroke-miterlimit="10" stroke-width="0.78"/>
                </g>
              </g>
            </g>
          </g>
          <g id="Grupo_155434" data-name="Grupo 155434" transform="translate(0.324 -20)">
            <g id="Grupo_155381" data-name="Grupo 155381" transform="translate(-11.575 -19.564)">
              <g id="Grupo_146087" data-name="Grupo 146087" transform="translate(641.646 908.675)">
                <rect id="Rectángulo_37274" data-name="Rectángulo 37274" width="407.464" height="60.061" rx="10" transform="translate(1.155 0)" fill="url(#linear-gradient-3)"/>
                <g id="Rectángulo_37275" data-name="Rectángulo 37275" transform="translate(0 0)" fill="#fff" stroke="#1565c0" stroke-width="1">
                  <rect width="56.596" height="60.061" rx="10" stroke="none"/>
                  <rect x="0.5" y="0.5" width="55.596" height="59.061" rx="9.5" fill="none"/>
                </g>
                <text id="Diseño_y_documentación_de_propuesta_para_servicios_de_la_nube" data-name="Diseño y documentación de propuesta
para servicios de la nube" transform="translate(228.742 23.351)" fill="#fff" font-size="17" font-family="Roboto-Regular, Roboto"><tspan x="-144.815" y="0">Diseño y documentación de propuesta</tspan><tspan x="-93.533" y="24">para servicios de la nube</tspan></text>
                <g id="cBpRW6" transform="translate(-4948.979 -846.635)">
                  <g id="Grupo_143032" data-name="Grupo 143032" transform="translate(4955.523 852.734)">
                    <path id="Trazado_184068" data-name="Trazado 184068" d="M4962.55,862.669a10.494,10.494,0,0,1,2.548-6.4,10.252,10.252,0,0,1,16.019.66,1.161,1.161,0,0,0,1.068.546,8.912,8.912,0,0,1,8.171,4.744,1.464,1.464,0,0,0,.824.643,7.776,7.776,0,0,1,6.033,7.8,7.689,7.689,0,0,1-6.864,7.4c-.324.039-.647.086-1.08.143,0,.521-.021,1.033,0,1.542.035.686-.246,1.076-.951,1-.622-.07-.891.177-1,.769a4.019,4.019,0,0,1-.414,1.067c-.375.734-.825,1.433.145,2.106.12.083.053.71-.126.9-.908.99-1.88,1.922-2.833,2.87a.746.746,0,0,1-1.258-.095c-.376-.491-.725-.459-1.246-.182-.741.4-1.553.66-2.348.986-.2,1.571-.2,1.571-2.157,1.726v3.658c.041.028.083.083.126.083,1.7.033,1.672-.109,1.662,1.776,0,.8-.018,1.592,0,2.387.019.623-.261.92-.875.92-1.069,0-2.14-.005-3.21,0-.646,0-.953-.273-.937-.945.024-1.015,0-2.031.009-3.046.006-.966.105-1.055,1.109-1.07.214,0,.428-.018.686-.03v-3.723c-.588-.052-1.276.076-1.676-.206-.362-.256-.409-.958-.635-1.57-.758-.332-1.668-.762-2.607-1.113-.187-.07-.539.1-.726.265-.718.63-.894.648-1.567-.019-.78-.772-1.554-1.551-2.329-2.328-.828-.83-.827-.913.008-1.785.093-.1.179-.2.236-.268-.369-.955-.694-1.882-1.1-2.773a.883.883,0,0,0-.7-.339c-.814.024-1.168-.3-1.1-1.126.038-.46.007-.925.007-1.472a7.957,7.957,0,0,1-6.376-3.112,7.453,7.453,0,0,1-1.569-4.749A7.818,7.818,0,0,1,4962.55,862.669Zm26.718,14.124a13.45,13.45,0,0,0,1.582-.167,6.3,6.3,0,0,0,4.986-6.375,6.218,6.218,0,0,0-5.3-6.094,1.517,1.517,0,0,1-1.253-.974,7.406,7.406,0,0,0-7.629-4.294,1.112,1.112,0,0,1-1.227-.557,8.906,8.906,0,0,0-16.5,4.583c-.026.785-.236,1.105-1.077,1.147a6.353,6.353,0,0,0-1.125,12.515,13.845,13.845,0,0,0,1.649.211c.179-1.38.182-1.373,1.54-1.725a.662.662,0,0,0,.368-.359c.373-.9.719-1.815,1.086-2.758-.087-.093-.2-.214-.311-.331-.756-.777-.756-.882.017-1.659.658-.661,1.324-1.315,1.978-1.98,1.078-1.1,1.129-1.275,2.327-.065.033.034.1.038.056.023.852-.35,1.618-.721,2.422-.976.527-.167.786-.379.7-.963-.071-.51.057-.961.7-.966,1.4-.011,2.8-.034,4.2.025.246.01.7.43.674.6-.157,1,.422,1.233,1.2,1.46a16.39,16.39,0,0,1,1.965.853c.112-.1.234-.212.351-.325.784-.758.937-.755,1.73.038l1.979,1.978c1.092,1.092,1.092,1.091.043,2.252a.272.272,0,0,0-.045.108,22.872,22.872,0,0,1,.979,2.375c.166.566.41.755.97.694.644-.07.984.24.962.908C4989.262,876.21,4989.268,876.425,4989.268,876.794Zm-22.008-5.957c.834,1,.8.98.184,2.228a15.8,15.8,0,0,0-.957,2.518c-.174.592-.431.916-1.076.856a2.482,2.482,0,0,0-.541.067v2.9c1.153-.273,1.526.342,1.738,1.315a8.69,8.69,0,0,0,.821,2.046c.629,1.235.653,1.223-.178,2.249l1.988,2.045c1.04-.872,1.028-.851,2.23-.228a9.218,9.218,0,0,0,1.963.816c.961.24,1.794.481,1.414,1.786h2.94c.164-1.372.178-1.336.74-1.559,1.139-.451,2.249-.976,3.4-1.4a1.676,1.676,0,0,1,1.012.12c.21.073.36.317.549.5l2.021-2.069c-.854-1.02-.832-1.009-.193-2.262a9.341,9.341,0,0,0,.8-1.969c.232-.947.517-1.712,1.747-1.389V876.4c-1.266.343-1.5-.447-1.762-1.373a11.827,11.827,0,0,0-1.091-2.462.94.94,0,0,1,.177-1.367,2.2,2.2,0,0,0,.289-.35l-1.975-2.081c-.518.349-.823,1.051-1.686.589-1.049-.562-2.216-.9-3.3-1.4a1.68,1.68,0,0,1-.637-.8,2,2,0,0,1-.018-.757h-3.033c.441,1.334-.407,1.56-1.376,1.79a6.175,6.175,0,0,0-1.883.788c-.857.552-1.614.893-2.271-.261Zm8.015,25.173V898.3h2.187v-2.291Z" transform="translate(-4955.523 -852.734)" fill="#12263f"/>
                    <path id="Trazado_184069" data-name="Trazado 184069" d="M5157.521,1059.7c-1.4,0-2.768-.008-4.131,0-.5,0-1.011-.045-1.007-.668s.5-.679,1.012-.675c1.508.012,3.017.023,4.523,0,.756-.014,1.014.323,1.007,1.046-.021,2.3-.008,4.6-.008,6.872.077.066.117.13.157.13,1.938-.04,1.656.2,1.67,1.847.006.768-.021,1.536.008,2.3.024.68-.3.942-.941.938-1.042-.007-2.085-.015-3.126,0-.7.011-.992-.319-.981-1,.017-.959,0-1.919,0-2.879,0-1.047.126-1.167,1.179-1.182.191,0,.382-.017.634-.028Zm1.831,10.368v-2.274h-2.206v2.274Z" transform="translate(-5119.965 -1024.493)" fill="#12263f"/>
                    <path id="Trazado_184070" data-name="Trazado 184070" d="M4967.936,1059.719c0,2.11,0,4.106,0,6.1,0,.186.017.372.025.545,1.812.252,1.812.252,1.812,2.123,0,.712-.015,1.426.005,2.137a.744.744,0,0,1-.829.878q-1.685.014-3.371,0c-.576,0-.833-.313-.827-.886.011-1.014,0-2.028,0-3.042s.109-1.108,1.139-1.127c.212,0,.424-.023.714-.04v-6.6c0-1.426,0-1.426,1.416-1.426,1.4,0,2.8.008,4.193,0,.507,0,.9.149.891.711-.01.529-.407.635-.87.631C4970.844,1059.712,4969.451,1059.719,4967.936,1059.719Zm-1.757,8.1v2.265h2.189v-2.265Z" transform="translate(-4963.233 -1024.515)" fill="#12263f"/>
                    <path id="Trazado_184071" data-name="Trazado 184071" d="M5025.321,872.632a9.033,9.033,0,0,1,4.3,1.215c.452.264.792.6.463,1.115-.311.489-.756.293-1.157.054a6.786,6.786,0,0,0-4.982-.875c-2.591.54-4.038,2.369-4.4,5.442-.057.483-.067,1.018-.713.975-.669-.044-.686-.588-.649-1.113A6.992,6.992,0,0,1,5025.321,872.632Z" transform="translate(-5007.856 -869.355)" fill="#12263f"/>
                    <path id="Trazado_184072" data-name="Trazado 184072" d="M5041.008,971.371a6.735,6.735,0,0,0,6.671-6.484c.026-.524.155-1,.75-.956.616.042.623.572.6,1.066a8.118,8.118,0,0,1-16.222-.655c.139-4.295,3.749-7.932,7.832-7.855a1.206,1.206,0,0,1,.873.414c.287.43-.1.843-.777.892a6.79,6.79,0,0,0,.27,13.577Z" transform="translate(-5020.08 -939.401)" fill="#12263f"/>
                    <path id="Trazado_184073" data-name="Trazado 184073" d="M5065.267,984.573a4.1,4.1,0,0,1-3.757,4.148c-.47.047-.935.034-1.016-.545-.089-.632.371-.755.882-.815a2.755,2.755,0,0,0,2.561-2.722,2.8,2.8,0,0,0-5.584-.324c-.059.519-.132.974-.765.917-.669-.061-.6-.6-.568-1.072a4.134,4.134,0,0,1,8.247.413Z" transform="translate(-5040.292 -959.406)" fill="#12263f"/>
                  </g>
                </g>
              </g>
            </g>
            <g id="Grupo_155408" data-name="Grupo 155408" transform="translate(268.582 970.974)">
              <path id="Unión_57" data-name="Unión 57" d="M0,0H51.536V12.4H0Z" transform="translate(8.775 51.536) rotate(-90)" fill="#bec1c7"/>
              <path id="Unión_58" data-name="Unión 58" d="M20.141,14.381,0,28.765V0Z" transform="translate(28.765 42.591) rotate(90)" fill="#bec1c7"/>
            </g>
            <g id="Grupo_155412" data-name="Grupo 155412" transform="translate(277.088 1204.722) rotate(-90)">
              <path id="Unión_57-2" data-name="Unión 57" d="M0,0H31.136V12.4H0Z" transform="translate(10.775 30.536) rotate(-90)" fill="#bec1c7"/>
              <path id="Unión_58-2" data-name="Unión 58" d="M20.141,14.381,0,28.765V0Z" transform="translate(30.765 21.591) rotate(90)" fill="#bec1c7"/>
            </g>
            <g id="Grupo_155418" data-name="Grupo 155418" transform="translate(589.868 1204.722) rotate(-90)">
              <path id="Unión_57-3" data-name="Unión 57" d="M0,0H31.136V12.4H0Z" transform="translate(10.775 30.536) rotate(-90)" fill="#bec1c7"/>
              <path id="Unión_58-3" data-name="Unión 58" d="M20.141,14.381,0,28.765V0Z" transform="translate(30.765 21.591) rotate(90)" fill="#bec1c7"/>
            </g>
            <g id="Grupo_155430" data-name="Grupo 155430" transform="translate(1192.67 1204.722) rotate(-90)">
              <path id="Unión_57-4" data-name="Unión 57" d="M0,0H31.136V12.4H0Z" transform="translate(10.775 30.536) rotate(-90)" fill="#bec1c7"/>
              <path id="Unión_58-4" data-name="Unión 58" d="M20.141,14.381,0,28.765V0Z" transform="translate(30.765 21.591) rotate(90)" fill="#bec1c7"/>
            </g>
            <g id="Grupo_155413" data-name="Grupo 155413" transform="translate(277.088 1274.722) rotate(-90)">
              <path id="Unión_57-5" data-name="Unión 57" d="M0,0H31.136V12.4H0Z" transform="translate(10.775 30.536) rotate(-90)" fill="#bec1c7"/>
              <path id="Unión_58-5" data-name="Unión 58" d="M20.141,14.381,0,28.765V0Z" transform="translate(30.765 21.591) rotate(90)" fill="#bec1c7"/>
            </g>
            <g id="Grupo_155419" data-name="Grupo 155419" transform="translate(589.868 1274.722) rotate(-90)">
              <path id="Unión_57-6" data-name="Unión 57" d="M0,0H31.136V12.4H0Z" transform="translate(10.775 30.536) rotate(-90)" fill="#bec1c7"/>
              <path id="Unión_58-6" data-name="Unión 58" d="M20.141,14.381,0,28.765V0Z" transform="translate(30.765 21.591) rotate(90)" fill="#bec1c7"/>
            </g>
            <g id="Grupo_155431" data-name="Grupo 155431" transform="translate(1192.67 1274.722) rotate(-90)">
              <path id="Unión_57-7" data-name="Unión 57" d="M0,0H31.136V12.4H0Z" transform="translate(10.775 30.536) rotate(-90)" fill="#bec1c7"/>
              <path id="Unión_58-7" data-name="Unión 58" d="M20.141,14.381,0,28.765V0Z" transform="translate(30.765 21.591) rotate(90)" fill="#bec1c7"/>
            </g>
            <g id="Grupo_155425" data-name="Grupo 155425" transform="translate(905.648 1208.722) rotate(-90)">
              <path id="Unión_57-8" data-name="Unión 57" d="M0,0H31.136V12.4H0Z" transform="translate(10.775 30.536) rotate(-90)" fill="#bec1c7"/>
              <path id="Unión_58-8" data-name="Unión 58" d="M20.141,14.381,0,28.765V0Z" transform="translate(30.765 21.591) rotate(90)" fill="#bec1c7"/>
            </g>
            <g id="Grupo_155415" data-name="Grupo 155415" transform="translate(277.088 1418.09) rotate(-90)">
              <path id="Unión_57-9" data-name="Unión 57" d="M0,0H31.136V12.4H0Z" transform="translate(10.775 30.536) rotate(-90)" fill="#bec1c7"/>
              <path id="Unión_58-9" data-name="Unión 58" d="M20.141,14.381,0,28.765V0Z" transform="translate(30.765 21.591) rotate(90)" fill="#bec1c7"/>
            </g>
            <g id="Grupo_155433" data-name="Grupo 155433" transform="translate(1192.67 1418.09) rotate(-90)">
              <path id="Unión_57-10" data-name="Unión 57" d="M0,0H31.136V12.4H0Z" transform="translate(10.775 30.536) rotate(-90)" fill="#bec1c7"/>
              <path id="Unión_58-10" data-name="Unión 58" d="M20.141,14.381,0,28.765V0Z" transform="translate(30.765 21.591) rotate(90)" fill="#bec1c7"/>
            </g>
            <g id="Grupo_155416" data-name="Grupo 155416" transform="translate(277.088 1491.458) rotate(-90)">
              <path id="Unión_57-11" data-name="Unión 57" d="M0,0H31.136V12.4H0Z" transform="translate(10.775 30.536) rotate(-90)" fill="#bec1c7"/>
              <path id="Unión_58-11" data-name="Unión 58" d="M20.141,14.381,0,28.765V0Z" transform="translate(30.765 21.591) rotate(90)" fill="#bec1c7"/>
            </g>
            <g id="Grupo_155427" data-name="Grupo 155427" transform="translate(1024.634 1302.908)">
              <path id="Unión_57-12" data-name="Unión 57" d="M0,0H31.136V12.4H0Z" transform="translate(10.775 30.536) rotate(-90)" fill="#bec1c7"/>
              <path id="Unión_58-12" data-name="Unión 58" d="M20.141,14.381,0,28.765V0Z" transform="translate(30.765 21.591) rotate(90)" fill="#bec1c7"/>
            </g>
            <g id="Grupo_155428" data-name="Grupo 155428" transform="translate(1024.634 1421.815)">
              <path id="Unión_57-13" data-name="Unión 57" d="M0,0H31.136V12.4H0Z" transform="translate(10.775 30.536) rotate(-90)" fill="#bec1c7"/>
              <path id="Unión_58-13" data-name="Unión 58" d="M20.141,14.381,0,28.765V0Z" transform="translate(30.765 21.591) rotate(90)" fill="#bec1c7"/>
            </g>
            <g id="Grupo_155414" data-name="Grupo 155414" transform="translate(277.088 1348.09) rotate(-90)">
              <path id="Unión_57-14" data-name="Unión 57" d="M0,0H31.136V12.4H0Z" transform="translate(10.775 30.536) rotate(-90)" fill="#bec1c7"/>
              <path id="Unión_58-14" data-name="Unión 58" d="M20.141,14.381,0,28.765V0Z" transform="translate(30.765 21.591) rotate(90)" fill="#bec1c7"/>
            </g>
            <g id="Grupo_155432" data-name="Grupo 155432" transform="translate(1192.67 1348.09) rotate(-90)">
              <path id="Unión_57-15" data-name="Unión 57" d="M0,0H31.136V12.4H0Z" transform="translate(10.775 30.536) rotate(-90)" fill="#bec1c7"/>
              <path id="Unión_58-15" data-name="Unión 58" d="M20.141,14.381,0,28.765V0Z" transform="translate(30.765 21.591) rotate(90)" fill="#bec1c7"/>
            </g>
            <g id="Grupo_155426" data-name="Grupo 155426" transform="translate(905.648 1282.09) rotate(-90)">
              <path id="Unión_57-16" data-name="Unión 57" d="M0,0H31.136V12.4H0Z" transform="translate(10.775 30.536) rotate(-90)" fill="#bec1c7"/>
              <path id="Unión_58-16" data-name="Unión 58" d="M20.141,14.381,0,28.765V0Z" transform="translate(30.765 21.591) rotate(90)" fill="#bec1c7"/>
            </g>
            <g id="Grupo_155409" data-name="Grupo 155409" transform="translate(890.828 970.974)">
              <path id="Unión_57-17" data-name="Unión 57" d="M0,0H51.536V12.4H0Z" transform="translate(8.775 51.536) rotate(-90)" fill="#bec1c7"/>
              <path id="Unión_58-17" data-name="Unión 58" d="M20.141,14.381,0,28.765V0Z" transform="translate(28.765 42.591) rotate(90)" fill="#bec1c7"/>
            </g>
            <g id="Grupo_155411" data-name="Grupo 155411" transform="translate(1187.188 970.974)">
              <path id="Unión_57-18" data-name="Unión 57" d="M0,0H51.536V12.4H0Z" transform="translate(8.775 51.536) rotate(-90)" fill="#bec1c7"/>
              <path id="Unión_58-18" data-name="Unión 58" d="M20.141,14.381,0,28.765V0Z" transform="translate(28.765 42.591) rotate(90)" fill="#bec1c7"/>
            </g>
            <g id="Grupo_155410" data-name="Grupo 155410" transform="translate(580.173 970.974)">
              <path id="Unión_57-19" data-name="Unión 57" d="M0,0H51.536V12.4H0Z" transform="translate(8.775 51.536) rotate(-90)" fill="#bec1c7"/>
              <path id="Unión_58-19" data-name="Unión 58" d="M20.141,14.381,0,28.765V0Z" transform="translate(28.765 42.591) rotate(90)" fill="#bec1c7"/>
            </g>
            <path id="Unión_68" data-name="Unión 68" d="M0,0H21.8V11.217H0Z" transform="translate(839.41 949.172) rotate(90)" fill="#bec1c7"/>
            <path id="Unión_70" data-name="Unión 70" d="M0,0H924.93V11.217H0Z" transform="translate(1205.684 982.189) rotate(180)" fill="#bec1c7"/>
            <rect id="Rectángulo_46313" data-name="Rectángulo 46313" width="188.853" height="60.061" rx="10" transform="translate(188.537 1040.076)" fill="url(#linear-gradient-4)"/>
            <rect id="Rectángulo_46320" data-name="Rectángulo 46320" width="188.853" height="60.061" rx="10" transform="translate(318.819 1158.309)" fill="url(#linear-gradient-4)"/>
            <rect id="Rectángulo_46327" data-name="Rectángulo 46327" width="188.853" height="60.061" rx="10" transform="translate(631.6 1158.309)" fill="url(#linear-gradient-4)"/>
            <rect id="Rectángulo_46346" data-name="Rectángulo 46346" width="188.853" height="60.061" rx="10" transform="translate(1234.401 1158.309)" fill="url(#linear-gradient-4)"/>
            <rect id="Rectángulo_46321" data-name="Rectángulo 46321" width="188.853" height="60.061" rx="10" transform="translate(318.819 1228.309)" fill="url(#linear-gradient-4)"/>
            <rect id="Rectángulo_46328" data-name="Rectángulo 46328" width="188.853" height="60.061" rx="10" transform="translate(631.6 1228.309)" fill="url(#linear-gradient-4)"/>
            <rect id="Rectángulo_46345" data-name="Rectángulo 46345" width="188.853" height="60.061" rx="10" transform="translate(1234.401 1228.309)" fill="url(#linear-gradient-4)"/>
            <rect id="Rectángulo_46336" data-name="Rectángulo 46336" width="188.853" height="60.061" rx="10" transform="translate(947.38 1162.309)" fill="url(#linear-gradient-4)"/>
            <rect id="Rectángulo_46323" data-name="Rectángulo 46323" width="188.853" height="60.061" rx="10" transform="translate(318.819 1371.677)" fill="url(#linear-gradient-4)"/>
            <rect id="Rectángulo_46343" data-name="Rectángulo 46343" width="188.853" height="60.061" rx="10" transform="translate(1234.401 1371.677)" fill="url(#linear-gradient-4)"/>
            <rect id="Rectángulo_46324" data-name="Rectángulo 46324" width="188.853" height="60.061" rx="10" transform="translate(318.819 1445.045)" fill="url(#linear-gradient-4)"/>
            <rect id="Rectángulo_46340" data-name="Rectángulo 46340" width="188.853" height="60.061" rx="10" transform="translate(947.38 1354.584)" fill="#f59d36"/>
            <rect id="Rectángulo_46341" data-name="Rectángulo 46341" width="188.853" height="60.061" rx="10" transform="translate(947.38 1473.491)" fill="#f59d36"/>
            <rect id="Rectángulo_46322" data-name="Rectángulo 46322" width="188.853" height="60.061" rx="10" transform="translate(318.819 1301.677)" fill="url(#linear-gradient-4)"/>
            <rect id="Rectángulo_46344" data-name="Rectángulo 46344" width="188.853" height="60.061" rx="10" transform="translate(1234.401 1301.677)" fill="url(#linear-gradient-4)"/>
            <rect id="Rectángulo_46335" data-name="Rectángulo 46335" width="188.853" height="60.061" rx="10" transform="translate(947.38 1235.677)" fill="url(#linear-gradient-4)"/>
            <rect id="Rectángulo_46314" data-name="Rectángulo 46314" width="188.853" height="60.061" rx="10" transform="translate(499.258 1040.076)" fill="url(#linear-gradient-4)"/>
            <rect id="Rectángulo_46315" data-name="Rectángulo 46315" width="188.853" height="60.061" rx="10" transform="translate(816.401 1040.076)" fill="url(#linear-gradient-4)"/>
            <rect id="Rectángulo_46316" data-name="Rectángulo 46316" width="188.853" height="60.061" rx="10" transform="translate(1111.257 1040.076)" fill="url(#linear-gradient-4)"/>
            <text id="Estrategias_de_migración" data-name="Estrategias
de migración" transform="translate(283.754 1067.121)" fill="#12263f" font-size="18" font-family="Roboto-Regular, Roboto"><tspan x="-44.938" y="0">Estrategias</tspan><tspan x="-51.952" y="20">de migración</tspan></text>
            <text id="Re-hospedaje_lift_and_shift_" data-name="Re-hospedaje 
(“lift and shift”) " transform="translate(414.036 1185.354)" fill="#12263f" font-size="18" font-family="Roboto-Regular, Roboto"><tspan x="-56.457" y="0">Re-hospedaje </tspan><tspan x="-61.686" y="20">(“</tspan><tspan y="20" font-family="Roboto-Italic, Roboto" font-style="italic">lift and shift</tspan><tspan y="20">”) </tspan></text>
            <text id="Ley_de_protección_de_datos" data-name="Ley de protección
de datos" transform="translate(726.816 1186.354)" fill="#12263f" font-size="18" font-family="Roboto-Regular, Roboto"><tspan x="-70.721" y="0">Ley de protección</tspan><tspan x="-34.668" y="20">de datos</tspan></text>
            <text id="Riesgos" transform="translate(1329.618 1195.354)" fill="#12263f" font-size="18" font-family="Roboto-Regular, Roboto"><tspan x="-31.957" y="0">Riesgos</tspan></text>
            <text id="Re-Plataforma" transform="translate(414.036 1265.354)" fill="#12263f" font-size="18" font-family="Roboto-Regular, Roboto"><tspan x="-57.472" y="0">Re-Plataforma</tspan></text>
            <text id="Decreto_Número_1317_DE_2013" data-name="Decreto Número
1317 DE 2013" transform="translate(726.816 1255.354)" fill="#12263f" font-size="18" font-family="Roboto-Regular, Roboto"><tspan x="-65.531" y="0">Decreto Número</tspan><tspan x="-55.903" y="20">1317 DE 2013</tspan></text>
            <text id="Aspectos" transform="translate(1329.618 1265.354)" fill="#12263f" font-size="18" font-family="Roboto-Regular, Roboto"><tspan x="-37.666" y="0">Aspectos</tspan></text>
            <text id="Características" transform="translate(1042.597 1198.354)" fill="#12263f" font-size="18" font-family="Roboto-Regular, Roboto"><tspan x="-60.218" y="0">Características</tspan></text>
            <text id="Re-diseño" transform="translate(414.036 1405.722)" fill="#12263f" font-size="18" font-family="Roboto-Regular, Roboto"><tspan x="-39.56" y="0">Re-diseño</tspan></text>
            <text id="Fases" transform="translate(1329.618 1407.722)" fill="#12263f" font-size="18" font-family="Roboto-Regular, Roboto"><tspan x="-23.77" y="0">Fases</tspan></text>
            <text id="Retirada" transform="translate(414.036 1480.09)" fill="#12263f" font-size="18" font-family="Roboto-Regular, Roboto"><tspan x="-33.17" y="0">Retirada</tspan></text>
            <text id="Comunicación_verbal" data-name="Comunicación
verbal" transform="translate(1042.597 1381.629)" fill="#12263f" font-size="18" font-family="Roboto-Regular, Roboto"><tspan x="-57.59" y="0">Comunicación</tspan><tspan x="-24.302" y="20">verbal</tspan></text>
            <text id="Comunicación_no_verbal" data-name="Comunicación
no verbal" transform="translate(1042.597 1500.536)" fill="#12263f" font-size="18" font-family="Roboto-Regular, Roboto"><tspan x="-57.59" y="0">Comunicación</tspan><tspan x="-36.628" y="20">no verbal</tspan></text>
            <text id="Re-compra" transform="translate(414.036 1338.722)" fill="#12263f" font-size="18" font-family="Roboto-Regular, Roboto"><tspan x="-43.339" y="0">Re-compra</tspan></text>
            <text id="Criterios" transform="translate(1329.618 1338.722)" fill="#12263f" font-size="18" font-family="Roboto-Regular, Roboto"><tspan x="-33.798" y="0">Criterios</tspan></text>
            <text id="Tipos" transform="translate(1042.597 1272.722)" fill="#12263f" font-size="18" font-family="Roboto-Regular, Roboto"><tspan x="-22.377" y="0">Tipos</tspan></text>
            <text id="Contratación_" data-name="Contratación " transform="translate(594.475 1077.121)" fill="#12263f" font-size="18" font-family="Roboto-Regular, Roboto"><tspan x="-53.719" y="0">Contratación </tspan></text>
            <text id="Comunicación" transform="translate(911.618 1077.121)" fill="#12263f" font-size="18" font-family="Roboto-Regular, Roboto"><tspan x="-57.59" y="0">Comunicación</tspan></text>
            <text id="Proyectos_TI" data-name="Proyectos TI" transform="translate(1206.474 1077.121)" fill="#12263f" font-size="18" font-family="Roboto-Regular, Roboto"><tspan x="-50.001" y="0">Proyectos TI</tspan></text>
            <text id="_Cuyes_son_" data-name="¿Cuyes son?" transform="translate(234.892 1144.364)" fill="#12263f" font-size="15" font-family="Roboto-Regular, Roboto"><tspan x="0" y="0">¿Cuyes son?</tspan></text>
            <text id="Marcos_de_referencia" data-name="Marcos de referencia" transform="translate(535.672 1144.364)" fill="#12263f" font-size="15" font-family="Roboto-Regular, Roboto"><tspan x="0" y="0">Marcos de referencia</tspan></text>
            <text id="Involucra" transform="translate(1164.474 1144.364)" fill="#12263f" font-size="15" font-family="Roboto-Regular, Roboto"><tspan x="0" y="0">Involucra</tspan></text>
            <text id="Corresponde_con" data-name="Corresponde con" transform="translate(851.452 1144.364)" fill="#12263f" font-size="15" font-family="Roboto-Regular, Roboto"><tspan x="0" y="0">Corresponde con</tspan></text>
            <path id="Unión_71" data-name="Unión 71" d="M0,0H21.8V11.217H0Z" transform="translate(287.071 1102.62) rotate(90)" fill="#bec1c7"/>
            <path id="Unión_73" data-name="Unión 73" d="M0,0H21.8V11.217H0Z" transform="translate(599.852 1102.62) rotate(90)" fill="#bec1c7"/>
            <path id="Unión_78" data-name="Unión 78" d="M0,0H21.8V11.217H0Z" transform="translate(1202.653 1102.62) rotate(90)" fill="#bec1c7"/>
            <path id="Unión_76" data-name="Unión 76" d="M0,0H21.8V11.217H0Z" transform="translate(915.632 1102.62) rotate(90)" fill="#bec1c7"/>
            <path id="Unión_72" data-name="Unión 72" d="M0,0H320.176V11.217H0Z" transform="translate(287.071 1159.863) rotate(90)" fill="#bec1c7"/>
            <path id="Unión_74" data-name="Unión 74" d="M0,0H104.176V11.217H0Z" transform="translate(599.852 1159.863) rotate(90)" fill="#bec1c7"/>
            <path id="Unión_77" data-name="Unión 77" d="M0,0H247.176V11.217H0Z" transform="translate(1202.653 1159.863) rotate(90)" fill="#bec1c7"/>
            <path id="Unión_75" data-name="Unión 75" d="M0,0H112.858V11.217H0Z" transform="translate(915.632 1159.863) rotate(90)" fill="#bec1c7"/>
          </g>
        </g>
      </g>
    </g>
  </g>
</svg>
