<svg xmlns="http://www.w3.org/2000/svg" width="114.815" height="130.254" viewBox="0 0 114.815 130.254">
  <g id="Grupo_161554" data-name="Grupo 161554" transform="translate(-1302.96 -305.15)">
    <g id="Design-elements" transform="translate(1359.792 381)">
      <path id="dots-03" d="M54.372,52.6a1.805,1.805,0,1,1,1.806,1.8A1.8,1.8,0,0,1,54.372,52.6ZM43.5,52.6a1.8,1.8,0,1,1,1.8,1.8A1.8,1.8,0,0,1,43.5,52.6Zm-10.871,0a1.8,1.8,0,1,1,1.8,1.8A1.8,1.8,0,0,1,32.63,52.6Zm-10.877,0a1.8,1.8,0,1,1,1.8,1.8A1.8,1.8,0,0,1,21.752,52.6Zm-10.875,0a1.8,1.8,0,1,1,1.8,1.8A1.8,1.8,0,0,1,10.877,52.6ZM0,52.6a1.805,1.805,0,1,1,1.8,1.8A1.8,1.8,0,0,1,0,52.6ZM54.372,42.438a1.805,1.805,0,1,1,1.806,1.8A1.8,1.8,0,0,1,54.372,42.438Zm-10.871,0a1.8,1.8,0,1,1,1.8,1.8A1.8,1.8,0,0,1,43.5,42.438Zm-10.871,0a1.8,1.8,0,1,1,1.8,1.8A1.8,1.8,0,0,1,32.63,42.438Zm-10.877,0a1.8,1.8,0,1,1,1.8,1.8A1.8,1.8,0,0,1,21.752,42.438Zm-10.875,0a1.8,1.8,0,1,1,1.8,1.8A1.8,1.8,0,0,1,10.877,42.438ZM0,42.438a1.805,1.805,0,1,1,1.8,1.8A1.8,1.8,0,0,1,0,42.438ZM54.372,32.285a1.805,1.805,0,1,1,1.806,1.8A1.8,1.8,0,0,1,54.372,32.285Zm-10.871,0a1.8,1.8,0,1,1,1.8,1.8A1.8,1.8,0,0,1,43.5,32.285Zm-10.871,0a1.8,1.8,0,1,1,1.8,1.8A1.8,1.8,0,0,1,32.63,32.285Zm-10.877,0a1.8,1.8,0,1,1,1.8,1.8A1.8,1.8,0,0,1,21.752,32.285Zm-10.875,0a1.8,1.8,0,1,1,1.8,1.8A1.8,1.8,0,0,1,10.877,32.285ZM0,32.285a1.805,1.805,0,1,1,1.8,1.8A1.8,1.8,0,0,1,0,32.285ZM54.372,22.119a1.805,1.805,0,1,1,1.806,1.8A1.8,1.8,0,0,1,54.372,22.119Zm-10.871,0a1.8,1.8,0,1,1,1.8,1.8A1.8,1.8,0,0,1,43.5,22.119Zm-10.871,0a1.8,1.8,0,1,1,1.8,1.8A1.8,1.8,0,0,1,32.63,22.119Zm-10.877,0a1.8,1.8,0,1,1,1.8,1.8A1.8,1.8,0,0,1,21.752,22.119Zm-10.875,0a1.8,1.8,0,1,1,1.8,1.8A1.8,1.8,0,0,1,10.877,22.119ZM0,22.119a1.805,1.805,0,1,1,1.8,1.8A1.8,1.8,0,0,1,0,22.119ZM54.372,11.965a1.805,1.805,0,1,1,1.806,1.8A1.8,1.8,0,0,1,54.372,11.965Zm-10.871,0a1.8,1.8,0,1,1,1.8,1.8A1.8,1.8,0,0,1,43.5,11.965Zm-10.871,0a1.8,1.8,0,1,1,1.8,1.8A1.8,1.8,0,0,1,32.63,11.965Zm-10.877,0a1.8,1.8,0,1,1,1.8,1.8A1.8,1.8,0,0,1,21.752,11.965Zm-10.875,0a1.8,1.8,0,1,1,1.8,1.8A1.8,1.8,0,0,1,10.877,11.965ZM0,11.965a1.805,1.805,0,1,1,1.8,1.8A1.8,1.8,0,0,1,0,11.965ZM54.372,1.806a1.805,1.805,0,1,1,1.806,1.8A1.806,1.806,0,0,1,54.372,1.806Zm-10.871,0a1.8,1.8,0,1,1,1.8,1.8A1.8,1.8,0,0,1,43.5,1.806Zm-10.871,0a1.8,1.8,0,1,1,1.8,1.8A1.8,1.8,0,0,1,32.63,1.806Zm-10.877,0a1.8,1.8,0,1,1,1.8,1.8A1.8,1.8,0,0,1,21.752,1.806Zm-10.875,0a1.8,1.8,0,1,1,1.8,1.8A1.8,1.8,0,0,1,10.877,1.806ZM0,1.806a1.805,1.805,0,1,1,1.8,1.8A1.806,1.806,0,0,1,0,1.806Z" transform="translate(0 0)" fill="#2ec49f"/>
    </g>
    <path id="plus-01" d="M6.768,34.655V29.766H1.879a1.879,1.879,0,0,1,0-3.759H6.768V21.119a1.879,1.879,0,0,1,3.759,0v4.889h4.889a1.879,1.879,0,0,1,0,3.759H10.527v4.889a1.879,1.879,0,0,1-3.759,0Zm19.881-8.337V21.429H21.76a1.879,1.879,0,0,1,0-3.759h4.889V12.781a1.879,1.879,0,0,1,3.759,0V17.67H35.3a1.879,1.879,0,0,1,0,3.759H30.407v4.889a1.879,1.879,0,0,1-3.759,0Zm-13.468-10.9V10.527H8.292a1.879,1.879,0,0,1,0-3.759h4.889V1.879a1.879,1.879,0,0,1,3.759,0V6.768h4.889a1.879,1.879,0,0,1,0,3.759H16.94v4.889a1.879,1.879,0,0,1-3.759,0Z" transform="translate(1302.96 305.15)" fill="#fff"/>
  </g>
</svg>
