<svg xmlns="http://www.w3.org/2000/svg" width="553.666" height="345.55" viewBox="0 0 553.666 345.55">
  <g id="Grupo_155517" data-name="Grupo 155517" transform="translate(9270.441 7559.394)">
    <g id="Grupo_155506" data-name="Grupo 155506" transform="translate(-9226.869 -7539.268)">
      <g id="gbVqRU.tif" transform="translate(0 0)">
        <g id="Grupo_155512" data-name="Grupo 155512">
          <path id="Trazado_197440" data-name="Trazado 197440" d="M-837.616,4654.247v112.377c-.076.09-.2.171-.221.272-1.54,8.058-8.581,12.961-17.022,12.862-20.912-.244-41.828-.08-62.742-.08-29.74,0-59.479.037-89.218-.066a18.868,18.868,0,0,1-7.695-1.552c-6.047-2.819-8.851-7.918-8.851-14.567,0-51.137,0-55.018,0-106.154,0-.544-.008-1.09.037-1.631.36-4.352,1.977-8.2,5.534-10.763,2.235-1.613,4.971-2.531,7.482-3.76h159.634a8.186,8.186,0,0,0,.974.373,14.491,14.491,0,0,1,9.067,6.055A47,47,0,0,1-837.616,4654.247Zm-179.576,18.033v1.836c0,45.405,0,43.553,0,88.957,0,6.629,3.838,10.429,10.514,10.43q76.087.007,152.175,0c6.992,0,10.7-3.743,10.7-10.789,0-45.223,0-43.189,0-88.413v-2.022Zm173.342-6.458c0-3.317.1-6.454-.048-9.58a9.6,9.6,0,0,0-1.041-3.8c-1.958-3.835-5.375-5.089-9.477-5.088q-76.062.018-152.124.008c-.423,0-.847-.014-1.269.011-4.492.269-8.266,2.867-8.906,6.88-.6,3.764-.455,7.647-.641,11.565Z" transform="translate(1023.366 -4641.185)" fill="#12263f"/>
          <path id="Trazado_197441" data-name="Trazado 197441" d="M-944.9,4767.275q-19.034,0-38.067,0a11.9,11.9,0,0,1-1.5-.051,2.809,2.809,0,0,1-2.178-2.934,3.081,3.081,0,0,1,1.9-3.119,5.742,5.742,0,0,1,1.493-.1q38.545-.006,77.09.007a4.515,4.515,0,0,1,1.876.276c1.129.516,1.61,1.7,1.455,3.274-.149,1.508-.829,2.38-1.955,2.576a9.609,9.609,0,0,1-1.634.075Q-925.659,4767.279-944.9,4767.275Z" transform="translate(999.993 -4717.486)" fill="#12263f"/>
          <path id="Trazado_197442" data-name="Trazado 197442" d="M-955.369,4801.881q-14.259,0-28.519,0a9.164,9.164,0,0,1-1.123-.037,2.041,2.041,0,0,1-1.632-2.118,2.218,2.218,0,0,1,1.421-2.25,4.415,4.415,0,0,1,1.119-.075q28.877-.005,57.754,0a3.483,3.483,0,0,1,1.405.2,2.1,2.1,0,0,1,1.09,2.364c-.112,1.088-.621,1.718-1.464,1.859a7.48,7.48,0,0,1-1.224.054Q-940.956,4801.883-955.369,4801.881Z" transform="translate(999.993 -4740.611)" fill="#12263f"/>
          <path id="Trazado_197443" data-name="Trazado 197443" d="M-963.942,4832.249q-10.35,0-20.7,0a4.94,4.94,0,0,1-.815-.037c-.675-.114-1.161-1-1.184-2.119a2.354,2.354,0,0,1,1.031-2.25,2.373,2.373,0,0,1,.812-.075q20.96,0,41.921,0a1.9,1.9,0,0,1,1.02.2,2.411,2.411,0,0,1,.791,2.363c-.081,1.088-.451,1.718-1.063,1.859a3.954,3.954,0,0,1-.888.054Q-953.481,4832.251-963.942,4832.249Z" transform="translate(999.992 -4759.94)" fill="#12263f"/>
          <path id="Trazado_197444" data-name="Trazado 197444" d="M-976.189,4681.283c-.543,0-1.09.044-1.627-.008a2.943,2.943,0,0,1-2.85-2.931,2.972,2.972,0,0,1,2.636-3.148,18.234,18.234,0,0,1,3.614-.042,3.027,3.027,0,0,1,2.945,3.064,2.992,2.992,0,0,1-3.089,3.08c-.54.039-1.085.006-1.629.006Z" transform="translate(996.189 -4662.762)" fill="#12263f"/>
          <path id="Trazado_197445" data-name="Trazado 197445" d="M-897.934,4678.158a3.089,3.089,0,0,1-2.979,3.189,3.047,3.047,0,0,1-3.219-2.931,3.168,3.168,0,0,1,2.962-3.226A3.163,3.163,0,0,1-897.934,4678.158Z" transform="translate(947.476 -4662.828)" fill="#12263f"/>
          <path id="Trazado_197446" data-name="Trazado 197446" d="M-932.1,4678.328a3,3,0,0,1-3.122,3.043,3.113,3.113,0,0,1-3.065-2.958,3.238,3.238,0,0,1,3.072-3.185A3.127,3.127,0,0,1-932.1,4678.328Z" transform="translate(969.214 -4662.853)" fill="#12263f"/>
        </g>
      </g>
      <path id="Trazado_197447" data-name="Trazado 197447" d="M-700.179,4791.776c-3.805,0-7.611.013-11.416,0-2.831-.012-3.934-1.125-3.944-3.964-.013-3.624-.018-30.148,0-33.772.014-2.536,1.071-3.757,3.57-3.774,7.972-.059,41.391-.057,49.364,0,2.313.018,3.452,1.162,3.509,3.491.094,3.863.1,30.633,0,34.5-.064,2.463-1.308,3.506-3.858,3.519C-666.881,4791.791-696.253,4791.776-700.179,4791.776Zm34.7-35.1H-709.2v28.779h43.718Z" transform="translate(827.445 -4710.583)" fill="#12263f"/>
      <path id="Trazado_197448" data-name="Trazado 197448" d="M-784.93,4934.015h32.615l6.355-6.355-6.475-6.475H-785.17l5.935,5.936Z" transform="translate(871.757 -4819.401)" fill="none" stroke="#12263f" stroke-linejoin="round" stroke-width="2"/>
      <path id="Trazado_197449" data-name="Trazado 197449" d="M-886.525,4934.015h32.615l6.355-6.355-6.475-6.475h-32.734l5.935,5.936Z" transform="translate(936.421 -4819.401)" fill="none" stroke="#12263f" stroke-linejoin="round" stroke-width="2"/>
      <path id="Trazado_197450" data-name="Trazado 197450" d="M-988.12,4934.015h32.615l6.355-6.355-6.475-6.475H-988.36l5.935,5.936Z" transform="translate(1001.085 -4819.401)" fill="none" stroke="#12263f" stroke-linejoin="round" stroke-width="2"/>
      <path id="Trazado_197451" data-name="Trazado 197451" d="M-634.8,4913.922v15.842a39.125,39.125,0,0,0,26.517,0l-.344-15.842" transform="translate(776.052 -4814.778)" fill="none" stroke="#12263f" stroke-linejoin="round" stroke-width="2"/>
      <path id="Trazado_197452" data-name="Trazado 197452" d="M-706.488,4807.148l13.316-14.235,6.888,4.133,5.51-6.429,6.428.919,9.643-10.562" transform="translate(821.678 -4730.159)" fill="none" stroke="#12263f" stroke-linejoin="round" stroke-width="3"/>
      <ellipse id="Elipse_5993" data-name="Elipse 5993" cx="13.086" cy="4.821" rx="13.086" ry="4.821" transform="translate(141.248 94.322)" fill="none" stroke="#12263f" stroke-linejoin="round" stroke-width="2"/>
    </g>
    <g id="Grupo_155507" data-name="Grupo 155507" transform="translate(-8957.047 -7524.728)">
      <g id="gbVqRU.tif-2" data-name="gbVqRU.tif" transform="translate(0 0)">
        <g id="Grupo_155514" data-name="Grupo 155514">
          <path id="Trazado_197453" data-name="Trazado 197453" d="M-238.881,4654.247v83.3c-.076.09-.2.171-.221.272-1.541,8.057-8.581,12.961-17.022,12.863-20.912-.245-41.828-.081-62.742-.081-29.74,0-59.479.038-89.218-.066a18.851,18.851,0,0,1-7.695-1.552c-6.047-2.818-8.851-7.918-8.852-14.566,0-51.137,0-25.937,0-77.073,0-.544-.008-1.09.037-1.631.361-4.352,1.977-8.2,5.534-10.763,2.235-1.613,4.971-2.531,7.482-3.76h159.634a8.187,8.187,0,0,0,.974.373,14.493,14.493,0,0,1,9.067,6.055A47.036,47.036,0,0,1-238.881,4654.247Zm-179.576,18.033v1.836c0,45.405,0,14.471,0,59.875,0,6.629,3.838,10.429,10.514,10.43q76.087.007,152.175,0c6.991,0,10.7-3.744,10.7-10.789,0-45.224,0-14.109,0-59.332v-2.022Zm173.342-6.458c0-3.317.1-6.454-.048-9.58a9.6,9.6,0,0,0-1.04-3.8c-1.958-3.835-5.375-5.089-9.477-5.088q-76.062.018-152.125.008c-.423,0-.847-.014-1.269.011-4.492.269-8.266,2.867-8.906,6.88-.6,3.764-.455,7.647-.642,11.565Z" transform="translate(424.631 -4641.185)" fill="#12263f"/>
          <path id="Trazado_197454" data-name="Trazado 197454" d="M-346.162,4767.275q-19.034,0-38.068,0a11.9,11.9,0,0,1-1.5-.051,2.809,2.809,0,0,1-2.178-2.934,3.08,3.08,0,0,1,1.9-3.119,5.741,5.741,0,0,1,1.493-.1q38.545-.006,77.09.007a4.512,4.512,0,0,1,1.876.276c1.129.516,1.611,1.7,1.455,3.274-.149,1.508-.829,2.38-1.955,2.576a9.612,9.612,0,0,1-1.634.075Q-326.924,4767.279-346.162,4767.275Z" transform="translate(401.257 -4717.486)" fill="#12263f"/>
          <path id="Trazado_197455" data-name="Trazado 197455" d="M-356.633,4814.881h-28.519a9.164,9.164,0,0,1-1.123-.038,2.041,2.041,0,0,1-1.632-2.118,2.219,2.219,0,0,1,1.42-2.251,4.463,4.463,0,0,1,1.119-.075q28.876-.005,57.753,0a3.491,3.491,0,0,1,1.406.2,2.105,2.105,0,0,1,1.09,2.364c-.112,1.089-.621,1.719-1.465,1.859a7.42,7.42,0,0,1-1.224.054Q-342.221,4814.883-356.633,4814.881Z" transform="translate(401.257 -4748.886)" fill="#12263f"/>
          <path id="Trazado_197456" data-name="Trazado 197456" d="M-365.207,4863.249q-10.35,0-20.7,0a4.895,4.895,0,0,1-.815-.037c-.674-.114-1.161-1-1.184-2.118a2.354,2.354,0,0,1,1.031-2.251,2.373,2.373,0,0,1,.812-.075q20.961,0,41.921.005a1.9,1.9,0,0,1,1.02.2,2.411,2.411,0,0,1,.791,2.363c-.081,1.089-.451,1.719-1.063,1.859a3.928,3.928,0,0,1-.889.054Q-354.745,4863.251-365.207,4863.249Z" transform="translate(401.257 -4779.671)" fill="#12263f"/>
          <path id="Trazado_197457" data-name="Trazado 197457" d="M-377.453,4681.283c-.543,0-1.09.044-1.627-.008a2.943,2.943,0,0,1-2.85-2.931,2.972,2.972,0,0,1,2.635-3.148,18.238,18.238,0,0,1,3.614-.042,3.027,3.027,0,0,1,2.945,3.064,2.992,2.992,0,0,1-3.088,3.08c-.54.039-1.086.006-1.629.006Z" transform="translate(397.453 -4662.762)" fill="#12263f"/>
          <path id="Trazado_197458" data-name="Trazado 197458" d="M-299.2,4678.158a3.09,3.09,0,0,1-2.979,3.189,3.047,3.047,0,0,1-3.219-2.931,3.167,3.167,0,0,1,2.962-3.226A3.163,3.163,0,0,1-299.2,4678.158Z" transform="translate(348.741 -4662.828)" fill="#12263f"/>
          <path id="Trazado_197459" data-name="Trazado 197459" d="M-333.362,4678.328a3,3,0,0,1-3.122,3.043,3.112,3.112,0,0,1-3.066-2.958,3.238,3.238,0,0,1,3.072-3.185A3.127,3.127,0,0,1-333.362,4678.328Z" transform="translate(370.478 -4662.853)" fill="#12263f"/>
        </g>
      </g>
      <path id="Trazado_197460" data-name="Trazado 197460" d="M-88.812,4769.842H-56.2l6.355-6.355-6.475-6.475H-89.052l5.935,5.936Z" transform="translate(211.04 -4714.907)" fill="none" stroke="#12263f" stroke-linejoin="round" stroke-width="4"/>
      <path id="Trazado_197461" data-name="Trazado 197461" d="M-88.812,4817.21H-56.2l6.355-6.355-6.475-6.475H-89.052l5.935,5.936Z" transform="translate(211.04 -4745.056)" fill="none" stroke="#12263f" stroke-linejoin="round" stroke-width="4"/>
      <path id="Trazado_197462" data-name="Trazado 197462" d="M-88.812,4866.473H-56.2l6.355-6.355-6.475-6.475H-89.052l5.935,5.936Z" transform="translate(211.04 -4776.412)" fill="none" stroke="#12263f" stroke-linejoin="round" stroke-width="4"/>
    </g>
    <path id="Trazado_197436" data-name="Trazado 197436" d="M-10419.125-6917.625h43.572" transform="translate(1148.684 -557.164)" fill="none" stroke="#12263f" stroke-width="5"/>
    <path id="Trazado_197437" data-name="Trazado 197437" d="M0,0H69.565" transform="translate(-9133.995 -7334.587) rotate(-90)" fill="none" stroke="#12263f" stroke-width="5"/>
    <path id="Trazado_197438" data-name="Trazado 197438" d="M0,0H92.842" transform="translate(-8856.354 -7325.487) rotate(-90)" fill="none" stroke="#12263f" stroke-width="5"/>
    <path id="Trazado_197439" data-name="Trazado 197439" d="M-10419.125-6917.625h87.593" transform="translate(1378.005 -557.164)" fill="none" stroke="#12263f" stroke-width="5"/>
    <path id="Trazado_197440-2" data-name="Trazado 197440" d="M-10419.125-6917.625h36.4" transform="translate(1647.828 -557.164)" fill="none" stroke="#12263f" stroke-width="5"/>
    <path id="Polígono_73" data-name="Polígono 73" d="M12.2,0l12.2,20.457H0Z" transform="translate(-8716.775 -7487.031) rotate(90)" fill="#12263f"/>
    <g id="Rectángulo_46384" data-name="Rectángulo 46384" transform="translate(-9187.9 -7337.388)" fill="none" stroke="#12263f" stroke-width="8">
      <rect width="110.286" height="89.403" rx="5" stroke="none"/>
      <rect x="4" y="4" width="102.286" height="81.403" rx="1" fill="none"/>
    </g>
    <path id="Trazado_197441-2" data-name="Trazado 197441" d="M-10088.652-6500.5h81.2" transform="translate(914.982 -821.659)" fill="none" stroke="#12263f" stroke-width="3"/>
    <path id="Trazado_197443-2" data-name="Trazado 197443" d="M-10088.652-6500.5h81.2" transform="translate(914.982 -804.937)" fill="none" stroke="#12263f" stroke-width="3"/>
    <path id="Trazado_197445-2" data-name="Trazado 197445" d="M-10088.652-6500.5h81.2" transform="translate(914.619 -789.669)" fill="none" stroke="#12263f" stroke-width="3"/>
    <path id="Trazado_197447-2" data-name="Trazado 197447" d="M-10088.652-6500.5h81.2" transform="translate(914.619 -775.856)" fill="none" stroke="#12263f" stroke-width="3"/>
    <path id="Trazado_197449-2" data-name="Trazado 197449" d="M-10088.652-6500.5h81.2" transform="translate(914.982 -813.298)" fill="none" stroke="#12263f" stroke-width="3"/>
    <path id="Trazado_197451-2" data-name="Trazado 197451" d="M-10088.652-6500.5h81.2" transform="translate(914.982 -796.576)" fill="none" stroke="#12263f" stroke-width="3"/>
    <path id="Trazado_197453-2" data-name="Trazado 197453" d="M-10088.652-6500.5h81.2" transform="translate(914.982 -782.763)" fill="none" stroke="#12263f" stroke-width="3"/>
    <g id="Elipse_5993-2" data-name="Elipse 5993" transform="translate(-9142.986 -7272.229)" fill="none" stroke="#12263f" stroke-width="3">
      <circle cx="7.475" cy="7.475" r="7.475" stroke="none"/>
      <circle cx="7.475" cy="7.475" r="5.975" fill="none"/>
    </g>
    <circle id="Elipse_5995" data-name="Elipse 5995" cx="3.541" cy="3.541" r="3.541" transform="translate(-9139.053 -7268.295)" fill="#12263f"/>
    <path id="Trazado_197455-2" data-name="Trazado 197455" d="M-706.668,4774.231c-2.2,0-4.4.007-6.6,0-1.636-.007-2.273-.65-2.279-2.291-.008-2.093-.01-17.42,0-19.514.008-1.465.619-2.171,2.063-2.182,4.606-.033,23.917-.032,28.523,0a1.811,1.811,0,0,1,2.027,2.017c.054,2.232.056,17.7,0,19.932-.037,1.424-.756,2.026-2.229,2.033C-687.428,4774.24-704.4,4774.231-706.668,4774.231Zm20.047-20.279h-25.261v16.629h25.261Z" transform="translate(-8201.429 -12140.523)" fill="#12263f" stroke="rgba(0,0,0,0)" stroke-width="4"/>
    <path id="Trazado_197456-2" data-name="Trazado 197456" d="M-706.488,4796.1l7.694-8.225,3.98,2.388,3.184-3.715,3.714.531,5.572-6.1" transform="translate(-8208.588 -12164.818)" fill="none" stroke="#12263f" stroke-linejoin="round" stroke-width="2"/>
    <path id="Trazado_197457-2" data-name="Trazado 197457" d="M-634.8,4913.922v15.842a39.125,39.125,0,0,0,26.517,0l-.344-15.842" transform="translate(-8186.369 -12299.075)" fill="none" stroke="#12263f" stroke-linejoin="round" stroke-width="4"/>
    <ellipse id="Elipse_5997" data-name="Elipse 5997" cx="13.086" cy="4.821" rx="13.086" ry="4.821" transform="translate(-8821.173 -7389.974)" fill="none" stroke="#12263f" stroke-linejoin="round" stroke-width="4"/>
    <g id="Jh8W0t" transform="translate(-8942.337 -7401.518)">
      <g id="Grupo_155516" data-name="Grupo 155516">
        <path id="Trazado_197486" data-name="Trazado 197486" d="M-1399.06,4854.5a24.654,24.654,0,0,1-2.391.678c-3.788.68-7.643-1.54-8.943-5.939a10.874,10.874,0,0,1,2.3-10.639,8.76,8.76,0,0,1,6.271-3.188c.1-.008.2-.023.3-.039.014,0,.026-.023.048-.044-.121-.6-.287-1.2-.358-1.82a7.872,7.872,0,0,1,1.863-6.139,11.437,11.437,0,0,1,5.493-3.638,14.284,14.284,0,0,1,8.3-.181,20.859,20.859,0,0,1,3.011,1.223.463.463,0,0,0,.661-.128,11.559,11.559,0,0,1,5.168-3.5,13.458,13.458,0,0,1,7.242-.363,15.363,15.363,0,0,1,6.744,3.4.777.777,0,0,0,.67.145,18.891,18.891,0,0,1,6.64-1.261,8.926,8.926,0,0,1,5.464,1.724,7.28,7.28,0,0,1,2.739,5.893c.007.233,0,.468,0,.748.674-.105,1.3-.248,1.926-.294,2.514-.186,4.346,1.635,4.288,4.528-.015.742-.077,1.483-.115,2.2.8.171,1.627.276,2.419.528a8.085,8.085,0,0,1,5.58,5.593,8.868,8.868,0,0,1-.394,6.281,11.181,11.181,0,0,1-7.064,6.428,10.276,10.276,0,0,1-4.778.366c-.4-.059-.542.087-.662.548a8.346,8.346,0,0,1-5.2,6,12.181,12.181,0,0,1-7.761.3,19.119,19.119,0,0,1-5.727-2.656.642.642,0,0,0-.622.025,16.511,16.511,0,0,1-13.641,2.724,11.321,11.321,0,0,1-6.788-4.306c-.177-.235-.316-.268-.562-.115a8,8,0,0,1-4.891,1.27,8.1,8.1,0,0,1-7.044-5.917C-1398.927,4854.792-1399,4854.654-1399.06,4854.5Zm8.449-30.985a12.88,12.88,0,0,0-6.544,2,9.469,9.469,0,0,0-3.705,4.113,6.8,6.8,0,0,0-.353,4.936c.288.939.119,1.238-.7,1.335-.2.023-.4.068-.6.1-3.636.622-6.174,2.9-7.465,6.93a9.49,9.49,0,0,0,2.3,9.9,7.033,7.033,0,0,0,7.785,1.416c.965-.367,1.107-.29,1.5.791a7.775,7.775,0,0,0,6.882,5.358,8.084,8.084,0,0,0,4.262-1.155.819.819,0,0,1,1.273.227,9.9,9.9,0,0,0,3.483,2.923,14.414,14.414,0,0,0,8.441,1.474,16.827,16.827,0,0,0,7.95-3.021,1.183,1.183,0,0,1,1.041.043c.657.309,1.258.773,1.9,1.117a13.846,13.846,0,0,0,9.247,1.7,8.21,8.21,0,0,0,6.974-6.542c.147-.579.511-.606.926-.576a16.126,16.126,0,0,0,1.876.1,10.557,10.557,0,0,0,9.23-5.8,8.4,8.4,0,0,0-1.386-10.228,8.9,8.9,0,0,0-5.063-2.237c-.721-.092-.848-.341-.772-1.16a13.64,13.64,0,0,0,.056-2.365,3.323,3.323,0,0,0-2.628-3.162,8.946,8.946,0,0,0-2.417.085c-.915.139-1.112.015-1.127-1.048,0-.158,0-.317-.011-.476a6.777,6.777,0,0,0-2.546-5.089,8.345,8.345,0,0,0-5.02-1.66,15.658,15.658,0,0,0-6.25,1.105,1.625,1.625,0,0,1-2.009-.447,3.353,3.353,0,0,0-.587-.468,14.12,14.12,0,0,0-6.366-2.635,12.018,12.018,0,0,0-11.118,3.823.919.919,0,0,1-1.249.225A14.593,14.593,0,0,0-1390.611,4823.517Z" transform="translate(1410.911 -4820.458)" fill="#12263f" stroke="#12263f" stroke-width="4"/>
      </g>
    </g>
    <g id="Jh8W0t-2" data-name="Jh8W0t" transform="translate(-8847.46 -7401.518)">
      <g id="Grupo_155516-2" data-name="Grupo 155516">
        <path id="Trazado_197486-2" data-name="Trazado 197486" d="M-1399.06,4854.5a24.654,24.654,0,0,1-2.391.678c-3.788.68-7.643-1.54-8.943-5.939a10.874,10.874,0,0,1,2.3-10.639,8.76,8.76,0,0,1,6.271-3.188c.1-.008.2-.023.3-.039.014,0,.026-.023.048-.044-.121-.6-.287-1.2-.358-1.82a7.872,7.872,0,0,1,1.863-6.139,11.437,11.437,0,0,1,5.493-3.638,14.284,14.284,0,0,1,8.3-.181,20.859,20.859,0,0,1,3.011,1.223.463.463,0,0,0,.661-.128,11.559,11.559,0,0,1,5.168-3.5,13.458,13.458,0,0,1,7.242-.363,15.363,15.363,0,0,1,6.744,3.4.777.777,0,0,0,.67.145,18.891,18.891,0,0,1,6.64-1.261,8.926,8.926,0,0,1,5.464,1.724,7.28,7.28,0,0,1,2.739,5.893c.007.233,0,.468,0,.748.674-.105,1.3-.248,1.926-.294,2.514-.186,4.346,1.635,4.288,4.528-.015.742-.077,1.483-.115,2.2.8.171,1.627.276,2.419.528a8.085,8.085,0,0,1,5.58,5.593,8.868,8.868,0,0,1-.394,6.281,11.181,11.181,0,0,1-7.064,6.428,10.276,10.276,0,0,1-4.778.366c-.4-.059-.542.087-.662.548a8.346,8.346,0,0,1-5.2,6,12.181,12.181,0,0,1-7.761.3,19.119,19.119,0,0,1-5.727-2.656.642.642,0,0,0-.622.025,16.511,16.511,0,0,1-13.641,2.724,11.321,11.321,0,0,1-6.788-4.306c-.177-.235-.316-.268-.562-.115a8,8,0,0,1-4.891,1.27,8.1,8.1,0,0,1-7.044-5.917C-1398.927,4854.792-1399,4854.654-1399.06,4854.5Zm8.449-30.985a12.88,12.88,0,0,0-6.544,2,9.469,9.469,0,0,0-3.705,4.113,6.8,6.8,0,0,0-.353,4.936c.288.939.119,1.238-.7,1.335-.2.023-.4.068-.6.1-3.636.622-6.174,2.9-7.465,6.93a9.49,9.49,0,0,0,2.3,9.9,7.033,7.033,0,0,0,7.785,1.416c.965-.367,1.107-.29,1.5.791a7.775,7.775,0,0,0,6.882,5.358,8.084,8.084,0,0,0,4.262-1.155.819.819,0,0,1,1.273.227,9.9,9.9,0,0,0,3.483,2.923,14.414,14.414,0,0,0,8.441,1.474,16.827,16.827,0,0,0,7.95-3.021,1.183,1.183,0,0,1,1.041.043c.657.309,1.258.773,1.9,1.117a13.846,13.846,0,0,0,9.247,1.7,8.21,8.21,0,0,0,6.974-6.542c.147-.579.511-.606.926-.576a16.126,16.126,0,0,0,1.876.1,10.557,10.557,0,0,0,9.23-5.8,8.4,8.4,0,0,0-1.386-10.228,8.9,8.9,0,0,0-5.063-2.237c-.721-.092-.848-.341-.772-1.16a13.64,13.64,0,0,0,.056-2.365,3.323,3.323,0,0,0-2.628-3.162,8.946,8.946,0,0,0-2.417.085c-.915.139-1.112.015-1.127-1.048,0-.158,0-.317-.011-.476a6.777,6.777,0,0,0-2.546-5.089,8.345,8.345,0,0,0-5.02-1.66,15.658,15.658,0,0,0-6.25,1.105,1.625,1.625,0,0,1-2.009-.447,3.353,3.353,0,0,0-.587-.468,14.12,14.12,0,0,0-6.366-2.635,12.018,12.018,0,0,0-11.118,3.823.919.919,0,0,1-1.249.225A14.593,14.593,0,0,0-1390.611,4823.517Z" transform="translate(1410.911 -4820.458)" fill="#12263f" stroke="#12263f" stroke-width="4"/>
      </g>
    </g>
    <g id="Jh8W0t-3" data-name="Jh8W0t" transform="translate(-8971.646 -7346.602)">
      <g id="Grupo_155516-3" data-name="Grupo 155516">
        <path id="Trazado_197486-3" data-name="Trazado 197486" d="M-1375.7,4921.605a73.154,73.154,0,0,1-7.1,2.013c-11.255,2.02-22.708-4.575-26.57-17.646-3.581-12.121-.734-22.676,6.822-31.609a26.031,26.031,0,0,1,18.633-9.471c.3-.022.595-.069.891-.114.042-.008.078-.071.142-.133-.36-1.791-.854-3.577-1.065-5.409a23.388,23.388,0,0,1,5.534-18.239,33.962,33.962,0,0,1,16.32-10.81,42.45,42.45,0,0,1,24.651-.537,62.066,62.066,0,0,1,8.945,3.633,1.375,1.375,0,0,0,1.965-.381,34.339,34.339,0,0,1,15.355-10.387,39.971,39.971,0,0,1,21.517-1.079,45.657,45.657,0,0,1,20.036,10.1,2.3,2.3,0,0,0,1.99.427c6.443-2.244,12.973-3.9,19.728-3.745,5.751.131,11.31,1.331,16.234,5.122,5.373,4.138,7.919,10.09,8.137,17.507.02.694,0,1.389,0,2.223,2-.314,3.856-.737,5.723-.875,7.47-.554,12.913,4.856,12.739,13.454-.044,2.2-.227,4.405-.343,6.543,2.38.507,4.834.821,7.186,1.57,7.747,2.466,13.757,7.544,16.577,16.619a26.349,26.349,0,0,1-1.169,18.661,33.225,33.225,0,0,1-20.988,19.1,30.533,30.533,0,0,1-14.2,1.085c-1.187-.172-1.611.259-1.966,1.629-2.377,9.18-7.888,14.778-15.45,17.815-7.589,3.049-15.28,2.884-23.058.9a56.82,56.82,0,0,1-17.014-7.89,1.905,1.905,0,0,0-1.848.073c-12.62,8.832-26.211,11.333-40.526,8.094a33.642,33.642,0,0,1-20.169-12.792c-.525-.7-.938-.8-1.668-.344a23.761,23.761,0,0,1-14.531,3.771c-9.013-.691-17.535-6.839-20.928-17.579C-1375.307,4922.466-1375.514,4922.057-1375.7,4921.605Zm25.1-92.057a38.239,38.239,0,0,0-19.442,5.926,28.152,28.152,0,0,0-11.008,12.219,20.193,20.193,0,0,0-1.048,14.667c.854,2.792.353,3.677-2.094,3.967-.6.071-1.2.2-1.793.306-10.8,1.847-18.343,8.611-22.181,20.587-3.483,10.87-.789,22.445,6.822,29.426,6.979,6.4,14.81,7.373,23.13,4.206,2.866-1.089,3.29-.859,4.448,2.35,3.374,9.347,11.759,15.847,20.447,15.917a23.989,23.989,0,0,0,12.664-3.432c1.641-.971,2.7-.8,3.782.674a29.458,29.458,0,0,0,10.348,8.686,42.828,42.828,0,0,0,25.08,4.379,49.99,49.99,0,0,0,23.618-8.974,3.519,3.519,0,0,1,3.094.126c1.951.918,3.738,2.3,5.658,3.321,8.753,4.653,17.881,6.857,27.475,5.042,9.991-1.891,17.645-7.39,20.719-19.436.438-1.719,1.519-1.8,2.75-1.713a47.77,47.77,0,0,0,5.574.309c11.525-.522,20.987-5.735,27.423-17.221,5.47-9.761,4.293-22.683-4.117-30.386a26.431,26.431,0,0,0-15.043-6.646c-2.141-.273-2.52-1.014-2.294-3.446a40.462,40.462,0,0,0,.167-7.025c-.4-4.841-3.7-8.888-7.808-9.394a26.559,26.559,0,0,0-7.182.255c-2.718.412-3.3.043-3.348-3.113-.006-.471,0-.944-.034-1.413-.485-6.428-2.938-11.5-7.563-15.12-4.522-3.543-9.635-4.723-14.913-4.931a46.506,46.506,0,0,0-18.568,3.285c-2.3.882-4.208.651-5.969-1.326a9.932,9.932,0,0,0-1.743-1.391,41.943,41.943,0,0,0-18.915-7.829c-12.376-1.655-23.642,1.18-33.032,11.358a2.728,2.728,0,0,1-3.712.67C-1335.437,4831.092-1342,4829.576-1350.6,4829.548Z" transform="translate(1410.911 -4820.458)" fill="#12263f" stroke="#12263f" stroke-width="4"/>
      </g>
    </g>
    <path id="Trazado_197458-2" data-name="Trazado 197458" d="M-10419.125-6917.625h16.844" transform="translate(1554.35 -458.652)" fill="none" stroke="#12263f" stroke-width="8"/>
    <text id="Before" transform="translate(-9145.537 -7546.394)" fill="#12263f" font-size="12" font-family="Roboto-Bold, Roboto" font-weight="700"><tspan x="0" y="0">Before</tspan></text>
    <text id="After" transform="translate(-8873.353 -7530.387)" fill="#12263f" font-size="12" font-family="Roboto-Bold, Roboto" font-weight="700"><tspan x="0" y="0">After</tspan></text>
    <text id="Replatforming" transform="translate(-9035.824 -7483.031)" fill="#12263f" font-size="12" font-family="Roboto-Bold, Roboto" font-weight="700"><tspan x="0" y="0">Replatforming</tspan></text>
    <g id="Rectángulo_46385" data-name="Rectángulo 46385" transform="translate(-8907.962 -7325.487)" fill="none" stroke="#12263f" stroke-width="8">
      <rect width="103.129" height="83.601" rx="5" stroke="none"/>
      <rect x="4" y="4" width="95.129" height="75.601" rx="1" fill="none"/>
    </g>
    <path id="Trazado_197487" data-name="Trazado 197487" d="M-10088.652-6500.5h75.931" transform="translate(1193.998 -810.746)" fill="none" stroke="#12263f" stroke-width="3"/>
    <path id="Trazado_197488" data-name="Trazado 197488" d="M-10088.652-6500.5h75.931" transform="translate(1193.998 -795.109)" fill="none" stroke="#12263f" stroke-width="3"/>
    <path id="Trazado_197489" data-name="Trazado 197489" d="M-10088.652-6500.5h75.931" transform="translate(1193.658 -780.833)" fill="none" stroke="#12263f" stroke-width="3"/>
    <path id="Trazado_197490" data-name="Trazado 197490" d="M-10088.652-6500.5h75.931" transform="translate(1193.658 -767.915)" fill="none" stroke="#12263f" stroke-width="3"/>
    <path id="Trazado_197491" data-name="Trazado 197491" d="M-10088.652-6500.5h75.931" transform="translate(1193.998 -802.928)" fill="none" stroke="#12263f" stroke-width="3"/>
    <path id="Trazado_197492" data-name="Trazado 197492" d="M-10088.652-6500.5h75.931" transform="translate(1193.998 -787.291)" fill="none" stroke="#12263f" stroke-width="3"/>
    <path id="Trazado_197493" data-name="Trazado 197493" d="M-10088.652-6500.5h75.931" transform="translate(1193.998 -774.374)" fill="none" stroke="#12263f" stroke-width="3"/>
    <g id="Elipse_5998" data-name="Elipse 5998" transform="translate(-8865.963 -7264.557)" fill="none" stroke="#12263f" stroke-width="3">
      <ellipse cx="6.99" cy="6.99" rx="6.99" ry="6.99" stroke="none"/>
      <ellipse cx="6.99" cy="6.99" rx="5.49" ry="5.49" fill="none"/>
    </g>
    <ellipse id="Elipse_5999" data-name="Elipse 5999" cx="3.311" cy="3.311" rx="3.311" ry="3.311" transform="translate(-8862.284 -7260.878)" fill="#12263f"/>
  </g>
</svg>
