<svg xmlns="http://www.w3.org/2000/svg" width="580.713" height="148.29" viewBox="0 0 580.713 148.29">
  <g id="Grupo_155505" data-name="Grupo 155505" transform="translate(-591.676 -4526.185)">
    <g id="YkxbbZ" transform="translate(591.676 4537.812)">
      <g id="Grupo_155502" data-name="Grupo 155502" transform="translate(0)">
        <path id="Trazado_197427" data-name="Trazado 197427" d="M-1486.487,1778.521h7.809c.343.041.685.1,1.029.121,1.322.069,2.647.084,3.966.191a116.684,116.684,0,0,1,13.978,1.911,79.963,79.963,0,0,1,20.474,6.874,39.352,39.352,0,0,1,12.247,9.041,16.262,16.262,0,0,1,4.221,11.093q-.1,39.491-.025,78.983a16.189,16.189,0,0,1-2.957,9.467,28.792,28.792,0,0,1-9,8.09c-7.841,4.754-16.481,7.265-25.409,8.928a109.859,109.859,0,0,1-14.78,1.724c-1.2.058-2.4.158-3.6.239h-8.089a5.463,5.463,0,0,0-.682-.1,120.04,120.04,0,0,1-16.676-1.687,85.282,85.282,0,0,1-20.73-6.082,39.81,39.81,0,0,1-12.082-7.957,18.077,18.077,0,0,1-5.61-13.387c.078-26.3.041-52.608.028-78.912a14.152,14.152,0,0,1,2.106-7.53,27.57,27.57,0,0,1,8.015-8.126,62.923,62.923,0,0,1,17.523-8.278,88.013,88.013,0,0,1,15.1-3.352c3.127-.4,6.271-.672,9.409-.978C-1488.985,1778.669-1487.735,1778.609-1486.487,1778.521Zm3.913,47.7c0,.065.008.131.012.2,4.33-.293,8.667-.521,12.99-.9a85.57,85.57,0,0,0,15.223-2.789,55.736,55.736,0,0,0,14.6-6,19.883,19.883,0,0,0,6.6-5.985,7.425,7.425,0,0,0,.141-8.449,16.406,16.406,0,0,0-4.232-4.484,42.47,42.47,0,0,0-11.767-6.04c-9.961-3.529-20.292-4.905-30.8-5.151a113.715,113.715,0,0,0-24.387,1.941,69.888,69.888,0,0,0-18.5,6.005,26.879,26.879,0,0,0-7.929,5.7c-1.79,1.964-3.047,4.164-2.732,6.956a9.338,9.338,0,0,0,2.7,5.3c3.108,3.369,7.049,5.476,11.192,7.243a78.47,78.47,0,0,0,19.053,5.163A110.51,110.51,0,0,0-1482.574,1826.219Zm51.177-5.867c-.187.128-.279.187-.366.253a59.468,59.468,0,0,1-16.676,8.452,104.762,104.762,0,0,1-31.3,5.215,116.861,116.861,0,0,1-18.9-1.057,97.53,97.53,0,0,1-16.592-3.671,61.58,61.58,0,0,1-17.512-8.469c-.31-.224-.623-.444-1.027-.731v.806q0,7.32,0,14.642c0,3.22,0,3.218,2.369,5.445a39.889,39.889,0,0,0,12.413,7.554,82.645,82.645,0,0,0,18.8,5.076,112.194,112.194,0,0,0,15.252,1.321,110.494,110.494,0,0,0,24.847-2.2,69.56,69.56,0,0,0,19.272-6.74,28.861,28.861,0,0,0,9.045-7.188,1.728,1.728,0,0,0,.362-.992c.022-5.694.016-11.388.016-17.082Zm0,52.54a3.441,3.441,0,0,0-.307.176,54.355,54.355,0,0,1-16.64,8.641,104.865,104.865,0,0,1-31.166,5.146,120.406,120.406,0,0,1-17.388-.8,100.692,100.692,0,0,1-16.542-3.29,61.624,61.624,0,0,1-18.069-8.239c-.734-.51-1.442-1.058-2.266-1.664v.928c0,4.323.036,8.646-.016,12.968a8.437,8.437,0,0,0,1.786,5.3,22.192,22.192,0,0,0,6.6,5.593,56.28,56.28,0,0,0,13.614,5.69,102.3,102.3,0,0,0,25.188,3.719,113.668,113.668,0,0,0,27.752-2.34,69.326,69.326,0,0,0,15.272-5.026,31.626,31.626,0,0,0,9.044-6.037,9.818,9.818,0,0,0,3.172-7.579c-.144-4.085-.036-8.18-.036-12.27Zm-102.376-25.661c0,5.653,0,11.16.014,16.666a1.2,1.2,0,0,0,.311.734,38.5,38.5,0,0,0,2.9,3c4.567,3.953,9.966,6.394,15.611,8.321a96.269,96.269,0,0,0,26.809,4.764,112.244,112.244,0,0,0,27.228-1.93,72.778,72.778,0,0,0,18.291-5.979,31.258,31.258,0,0,0,10.74-8.007,2.136,2.136,0,0,0,.451-1.238c.03-5.2.019-10.41.019-15.615v-.722c-.416.313-.725.544-1.031.776a55.9,55.9,0,0,1-16.253,8.194,103.775,103.775,0,0,1-29.858,5,120.211,120.211,0,0,1-20.706-1.066,98.861,98.861,0,0,1-15.651-3.43,59.641,59.641,0,0,1-16.715-7.875C-1532.3,1848.332-1532.979,1847.814-1533.77,1847.231Z" transform="translate(1542.407 -1778.521)" fill="#12263f"/>
        <path id="Trazado_197428" data-name="Trazado 197428" d="M-847.333,2171.086a3.975,3.975,0,0,1-3.939,4.024,4.06,4.06,0,0,1-4.028-3.97,4,4,0,0,1,3.976-4A3.926,3.926,0,0,1-847.333,2171.086Z" transform="translate(951.119 -2112.946)" fill="#12263f"/>
        <path id="Trazado_197429" data-name="Trazado 197429" d="M-847.321,2548.353a3.97,3.97,0,0,1-3.952,4.01,4.056,4.056,0,0,1-4.013-3.983,3.971,3.971,0,0,1,3.984-3.977A3.9,3.9,0,0,1-847.321,2548.353Z" transform="translate(951.107 -2437.599)" fill="#12263f"/>
        <path id="Trazado_197430" data-name="Trazado 197430" d="M-851.283,2363.535a3.987,3.987,0,0,1-4.015-3.948,4.052,4.052,0,0,1,3.986-4.01,3.969,3.969,0,0,1,3.983,3.976A3.917,3.917,0,0,1-851.283,2363.535Z" transform="translate(951.118 -2275.105)" fill="#12263f"/>
      </g>
    </g>
    <g id="UyrgcM.tif" transform="translate(872.845 4561.825)">
      <g id="Grupo_151394" data-name="Grupo 151394" transform="translate(0 0)">
        <path id="Trazado_193789" data-name="Trazado 193789" d="M1997.5,51.271c.845.447,1.675.924,2.537,1.335a8.027,8.027,0,0,1,3.728,9.97c-.693,1.569-2.03,1.967-3.647,1.962-9.875-.026-19.749-.013-29.624-.013-3.949,0-7.9.01-11.85,0-2.816-.01-3.866-1.142-4.039-3.884-.257-4.1,1.1-7.119,5.188-8.55a11.107,11.107,0,0,0,1.741-1.079c-.818-.074-1.252-.147-1.687-.148-6.233-.012-12.466,0-18.7-.02-4.6-.012-7.359-2.752-7.363-7.381q-.024-27.773,0-55.546c0-4.416,2.738-7.173,7.109-7.276a9.877,9.877,0,0,1,1.48.007A5.975,5.975,0,0,0,1948.2-21.6c1.487-1.786,3.251-1.891,5.328-.739,1.334.74,2.034.364,2.424-1.047.634-2.292,1.883-3.221,4.288-3.259,1.3-.02,2.593-.032,3.888,0a3.849,3.849,0,0,1,4.027,3.138c.384,1.582,1.133,1.823,2.479,1.1,2-1.082,3.8-.926,5.329.872a6.342,6.342,0,0,0,5.481,2.217c11.972-.1,23.945-.052,35.918-.05,4.853,0,7.568,2.7,7.57,7.56q.012,27.587,0,55.175c0,4.7-2.778,7.461-7.485,7.468q-9.9.016-19.8,0Zm23.786-15.521V33.933q0-22.587,0-45.175c0-3.6-.907-4.5-4.476-4.5-11.417,0-22.834.044-34.25-.032-1.667-.011-2.675.227-3.313,1.975-.53,1.451-.465,2.116,1.11,2.518a3.8,3.8,0,0,1,3.134,4.015c.039,1.233.02,2.468.008,3.7-.026,2.679-.8,3.758-3.391,4.561-1.2.372-1.607.991-.992,2.164,1.368,2.614,1.18,3.79-.925,5.906-.87.875-1.718,1.778-2.643,2.592a3.919,3.919,0,0,1-4.645.554c-1.818-.9-2.153-.77-2.77,1.168a3.84,3.84,0,0,1-4.04,2.884c-2.856-.155-6.255,1.177-7.978-2.564a1.558,1.558,0,0,1-.055-.176c-.716-2.134-.981-2.254-2.9-1.312a3.766,3.766,0,0,1-4.743-.681c-1-1.006-2.037-1.978-3.009-3.012a3.863,3.863,0,0,1-.679-4.913c.853-1.7.67-2.126-1.171-2.719a3.835,3.835,0,0,1-2.953-4.169c.11-2.806-1.1-6.125,2.536-7.81.222-.1.521-.093.693-.241.5-.433,1.438-1.092,1.344-1.355-.383-1.075-.891-2.681-1.706-2.929-3.938-1.2-6.035.537-6.035,4.632q0,22.4,0,44.8V35.75Zm0,3.84h-83.847c0,1.2,0,2.293,0,3.388.014,3.233.958,4.194,4.173,4.2q25.641.01,51.281.007,12.311,0,24.622-.007c2.633-.006,3.722-1.1,3.767-3.68C2021.3,42.265,2021.279,41.036,2021.279,39.59ZM1964.39,12.637c1.3-4.558,4.225-5.771,8.53-3.67l3.367-3.3c-2.589-3.648-.62-7.463,3.434-8.571V-7.613c-4.179-.836-5.614-4.362-3.474-8.48l-3.285-3.339a5.37,5.37,0,0,1-8.609-3.415h-4.7c-.4,3.913-5.158,5.8-8.906,3.234a14.654,14.654,0,0,1-1.744,2.24,1.959,1.959,0,0,0-.485,2.813,4.773,4.773,0,0,1,.137,3.16c-.6,2.129-1.869,3.753-4.3,3.73v4.94c3.621.213,5.982,4.658,3.675,8.341l3.151,3.459c.544-.308,1-.615,1.494-.838,2.081-.941,5.758.2,6.284,2.351.548,2.242,1.842,2.176,3.479,2.06C1963.049,12.6,1963.665,12.637,1964.39,12.637Zm35.81,48.121c.524-3.212.092-3.8-2.484-5.239a18.743,18.743,0,0,1-4.45-3.5,3.218,3.218,0,0,0-2.646-1.193c-7.34.039-14.681.059-22.02-.009a3.866,3.866,0,0,0-3.425,1.518,14.045,14.045,0,0,1-4.047,3.127c-2.754,1.5-3.191,2.142-2.61,5.292Z" transform="translate(-1933.769 26.659)" fill="#12263f"/>
        <path id="Trazado_193790" data-name="Trazado 193790" d="M2087,64.513c-2.117-1.61-3.394-.48-4.42,1.914-.265.618-1.544,1.011-2.405,1.116a21.269,21.269,0,0,1-4.609.048A3.323,3.323,0,0,1,2072.523,65c-.323-1.26-.766-1.664-2.05-.966a3.671,3.671,0,0,1-4.715-.783c-.648-.66-1.318-1.3-1.966-1.959-1.869-1.906-2.033-2.634-.939-5.08.464-1.035.292-1.512-.837-1.88-2.191-.713-2.882-1.794-2.916-4.136-.015-.987-.02-1.975,0-2.961.046-2.237.747-3.271,2.869-3.964,1.082-.354,1.358-.762.8-1.857-1.052-2.056-.782-3.32.842-4.991.774-.8,1.556-1.586,2.372-2.338a3.406,3.406,0,0,1,4.255-.658c1.453.86,1.977.411,2.25-1.026a2.136,2.136,0,0,1,.486-.982c2.124-2.356,4.927-1.471,7.495-1.422,1.645.031,2.632,1.247,3.04,2.812.291,1.115.749,1.358,1.837.8,2.041-1.052,3.319-.781,5,.843.752.73,1.5,1.471,2.221,2.228a3.574,3.574,0,0,1,.668,4.567c-.691,1.217-.45,1.818.928,2.029a2.185,2.185,0,0,1,1.009.425c2.428,1.97,1.664,4.72,1.637,7.235a3.338,3.338,0,0,1-2.726,3.332c-1.47.356-1.462.986-.768,2.079a3.348,3.348,0,0,1,.481,1.565C2093.908,60.237,2089.769,64.469,2087,64.513Zm-21.084-6.327,2.462,2.534c3.781-1.565,5.386-.954,7.57,2.7a1.446,1.446,0,0,0,1.014.534c.958.073,1.923.025,2.819.025,1.208-3.823,3.98-4.966,7.658-3.25l2.51-2.542c-1.777-2.752-.842-6.3,3.136-7.776v-3.4c-3.394-.865-4.978-4.171-3.225-7.813l-2.407-2.46c-3.122,2.02-6.668.436-7.825-3.173a18.927,18.927,0,0,0-2.342.026,1.947,1.947,0,0,0-1.327.6c-2.066,3.555-3.518,4.1-7.576,2.657l-2.42,2.407c1.644,3.481.8,5.925-2.435,7.467a1.533,1.533,0,0,0-.706,1.056,23.578,23.578,0,0,0-.033,2.7C2066.617,52.044,2067.816,54.963,2065.917,58.186Z" transform="translate(-2012.482 -8.797)" fill="#12263f"/>
        <path id="Trazado_193791" data-name="Trazado 193791" d="M2054.6,157.287a2.506,2.506,0,1,1-2.515-2.443A2.569,2.569,0,0,1,2054.6,157.287Z" transform="translate(-2006.518 -87.344)" fill="#12263f"/>
        <path id="Trazado_193792" data-name="Trazado 193792" d="M1995.245,25.188a8.6,8.6,0,1,1,8.633-8.545A8.6,8.6,0,0,1,1995.245,25.188Zm.1-13.563a4.951,4.951,0,1,0,4.888,5A5.008,5.008,0,0,0,1995.343,11.624Z" transform="translate(-1966.975 4.894)" fill="#12263f"/>
        <path id="Trazado_193793" data-name="Trazado 193793" d="M2089.1,67.791a7.72,7.72,0,0,1,15.439-.114,7.72,7.72,0,1,1-15.439.114Zm3.671-.073a4.036,4.036,0,0,0,4.023,4.137,4.136,4.136,0,0,0,4.1-4.1,4.06,4.06,0,0,0-3.976-4.012A3.967,3.967,0,0,0,2092.775,67.718Z" transform="translate(-2031.336 -27.813)" fill="#12263f"/>
      </g>
    </g>
    <g id="Grupo_155302" data-name="Grupo 155302" transform="translate(796.542 4526.185)">
      <path id="Trazado_197171" data-name="Trazado 197171" d="M7469.126,4836.765v-4.877c-3.723,0-7.268-.071-10.809.025-2.46.065-3.366-.958-3.349-3.414q.118-17,.007-34.009c-.015-2.438.919-3.469,3.357-3.463q23.091.052,46.181,0c2.46,0,3.384,1.2,3.378,3.543q-.048,17,0,34.009c.009,2.465-1.1,3.4-3.5,3.337-3.439-.1-6.882-.024-10.591-.024v4.868c3.513,0,7.059.065,10.6-.024,2.41-.062,3.539.921,3.485,3.367-.063,2.862,0,5.727-.018,8.591-.012,2.041-1,3.015-3.105,3.012q-23.449-.043-46.9,0c-2.2,0-2.921-1.089-2.876-3.124.067-2.863.1-5.732-.011-8.591-.1-2.566,1.153-3.322,3.509-3.25C7461.925,4836.842,7465.366,4836.765,7469.126,4836.765Zm-9.671-9.438h44.13c0-10.151-.018-20.028.012-29.9.007-2.494-1.748-2.1-3.249-2.1q-17.531-.021-35.066-.009h-5.828Zm43.869,13.914h-43.756v5.925h43.756Zm-29.611-4.742h16.409c-1.108-1.981-1.747-4.331-2.57-4.4-4.556-.367-9.155-.175-13.839-.175Z" transform="translate(-7454.969 -4791.026)" fill="#12263f"/>
      <path id="Trazado_197172" data-name="Trazado 197172" d="M7487.688,4807.768a24.056,24.056,0,0,1-1.818,2.4c-4.011,4.055-7.975,8.166-12.165,12.029-.83.765-2.575.54-3.9.77.283-1.234.167-2.841.915-3.64,3.974-4.25,8.116-8.349,12.326-12.369a5.032,5.032,0,0,1,3.095-1.033C7486.6,4805.9,7487.091,4807.016,7487.688,4807.768Z" transform="translate(-7459.183 -4795.256)" fill="#12263f"/>
      <path id="Trazado_197173" data-name="Trazado 197173" d="M7476.241,4801.705c.459.317,1.374.618,1.487,1.1a3.252,3.252,0,0,1-.312,2.55c-2.661,2.872-5.426,5.658-8.322,8.288a3.047,3.047,0,0,1-2.77.113,2.507,2.507,0,0,1-.527-2.36c2.971-3.219,6.106-6.287,9.222-9.368C7475.234,4801.82,7475.685,4801.844,7476.241,4801.705Z" transform="translate(-7458.007 -4794.058)" fill="#12263f"/>
    </g>
    <text id="hosting" transform="translate(1050.674 4609.217)" fill="#12263f" font-size="34" font-family="Roboto-Black, Roboto" font-weight="800"><tspan x="-57.724" y="0">hosting</tspan></text>
    <text id="R" transform="translate(1150.389 4617.712)" fill="#12263f" font-size="67" font-family="Roboto-Black, Roboto" font-weight="800"><tspan x="-21.854" y="0">R</tspan></text>
    <path id="Trazado_197431" data-name="Trazado 197431" d="M-7871.43-7107.587h106.125v-17.265" transform="translate(8589.316 11713.731)" fill="none" stroke="#12263f" stroke-width="4"/>
    <path id="Trazado_197432" data-name="Trazado 197432" d="M-7871.43-7087.849h148.1" transform="translate(8589.316 11724.106)" fill="none" stroke="#12263f" stroke-width="4"/>
  </g>
</svg>
