<svg xmlns="http://www.w3.org/2000/svg" width="63" height="64" viewBox="0 0 63 64">
  <g id="Grupo_142438" data-name="Grupo 142438" transform="translate(-0.267 -0.152)">
    <ellipse id="Elipse_4775" data-name="Elipse 4775" cx="31.5" cy="32" rx="31.5" ry="32" transform="translate(0.267 0.152)" fill="#f59d36"/>
    <g id="bd2iio.tif" transform="translate(12.854 12.876)">
      <g id="Grupo_155491" data-name="Grupo 155491" transform="translate(0)">
        <path id="Trazado_197383" data-name="Trazado 197383" d="M-528.836,334.323a1.361,1.361,0,0,1,1.477-.916c3.726.021,7.452.009,11.179.01,1.067,0,1.462.4,1.462,1.455q0,8.818,0,17.637c0,1.053-.405,1.457-1.465,1.457-3.726,0-7.453-.011-11.179.01a1.362,1.362,0,0,1-1.474-.923Zm11.8,1.391h-9.474v15.94h9.474Z" transform="translate(528.836 -315.419)" fill="#fff"/>
        <path id="Trazado_197384" data-name="Trazado 197384" d="M-218.818,121.459q0,4.44,0,8.88c0,.981-.412,1.391-1.4,1.392q-5.631,0-11.262,0c-1.008,0-1.422-.414-1.423-1.423q0-8.86,0-17.72c0-1.022.4-1.416,1.412-1.416h11.3c.97,0,1.372.4,1.373,1.366Q-218.817,117-218.818,121.459Zm-2.3,7.956V113.461h-9.474v15.954Z" transform="translate(256.848 -111.163)" fill="#fff"/>
        <path id="Trazado_197385" data-name="Trazado 197385" d="M-305.184,397.725c.47.433.888.772,1.252,1.163a1.127,1.127,0,0,1-.508,1.9,1.013,1.013,0,0,1-1.045-.252c-1.009-.988-2.014-1.982-3-2.994a1.089,1.089,0,0,1,.012-1.565q1.467-1.5,2.971-2.964a1.081,1.081,0,0,1,1.559.019,1.125,1.125,0,0,1,.054,1.567c-.162.192-.344.367-.517.55l.05.1c.665-.236,1.351-.427,1.992-.715a13.351,13.351,0,0,0,7.715-8.971c.047-.168.082-.339.134-.505a1.13,1.13,0,0,1,1.389-.845,1.121,1.121,0,0,1,.814,1.407,15.052,15.052,0,0,1-1.357,3.734,15.5,15.5,0,0,1-8.325,7.483c-.846.328-1.745.519-2.621.77C-304.751,397.638-304.894,397.661-305.184,397.725Z" transform="translate(326.61 -362.072)" fill="#fff"/>
        <path id="Trazado_197386" data-name="Trazado 197386" d="M-470.326,114.177c-.436-.417-.8-.751-1.151-1.1a1.132,1.132,0,0,1-.063-1.684,1.152,1.152,0,0,1,1.685.086q1.376,1.363,2.741,2.738a1.141,1.141,0,0,1,.019,1.8q-1.375,1.393-2.769,2.767a1.136,1.136,0,0,1-1.684.067,1.132,1.132,0,0,1,.08-1.683,3.263,3.263,0,0,1,.416-.313l-.08-.123a1.7,1.7,0,0,0-.278.037,13.326,13.326,0,0,0-9.294,9.1,6.261,6.261,0,0,1-.205.609,1.136,1.136,0,0,1-1.332.648,1.079,1.079,0,0,1-.811-1.19,6.669,6.669,0,0,1,.365-1.355A15.66,15.66,0,0,1-471.5,114.419C-471.156,114.326-470.8,114.273-470.326,114.177Z" transform="translate(486.767 -111.062)" fill="#fff"/>
        <path id="Trazado_197387" data-name="Trazado 197387" d="M-483.459,381.828c-.833,0-1.667-.01-2.5,0a1.148,1.148,0,0,0-1.232,1.156,1.148,1.148,0,0,0,1.244,1.143q2.439.016,4.878-.005a1.605,1.605,0,0,0,.725-.193,1.1,1.1,0,0,0,.5-1.257,1.166,1.166,0,0,0-1.151-.842C-481.819,381.817-482.639,381.829-483.459,381.828Zm-.061,12.721v0c.806,0,1.613.006,2.419,0a1.158,1.158,0,0,0,1.282-1.145,1.149,1.149,0,0,0-1.269-1.156c-1.613-.009-3.226-.01-4.838.006a1.637,1.637,0,0,0-.727.187,1.1,1.1,0,0,0-.506,1.252,1.161,1.161,0,0,0,1.14.852C-485.187,394.561-484.353,394.549-483.52,394.549Zm-.009-5.226c.846,0,1.693.007,2.539,0a1.106,1.106,0,0,0,1.17-1.156,1.107,1.107,0,0,0-1.181-1.1q-2.5-.008-5,0a1.108,1.108,0,0,0-1.191,1.136,1.111,1.111,0,0,0,1.2,1.126C-485.168,389.329-484.349,389.323-483.529,389.322Z" transform="translate(490.565 -359.919)" fill="#fff"/>
        <path id="Trazado_197388" data-name="Trazado 197388" d="M-483.4,381.829c.82,0,1.64-.012,2.459,0a1.167,1.167,0,0,1,1.151.842,1.1,1.1,0,0,1-.5,1.257,1.605,1.605,0,0,1-.725.193q-2.439.025-4.878.005a1.148,1.148,0,0,1-1.244-1.143,1.148,1.148,0,0,1,1.232-1.156C-485.069,381.818-484.236,381.828-483.4,381.829Z" transform="translate(490.508 -359.919)" fill="#fff"/>
        <path id="Trazado_197389" data-name="Trazado 197389" d="M-483.52,512.891c-.833,0-1.667.012-2.5,0a1.161,1.161,0,0,1-1.14-.852,1.1,1.1,0,0,1,.506-1.252,1.637,1.637,0,0,1,.727-.187c1.613-.016,3.225-.015,4.838-.006a1.149,1.149,0,0,1,1.269,1.156,1.158,1.158,0,0,1-1.282,1.145c-.806.007-1.613,0-2.419,0Z" transform="translate(490.565 -478.261)" fill="#fff"/>
        <path id="Trazado_197390" data-name="Trazado 197390" d="M-483.456,448.753c-.82,0-1.639.006-2.459,0a1.111,1.111,0,0,1-1.2-1.126,1.108,1.108,0,0,1,1.191-1.136q2.5-.008,5,0a1.107,1.107,0,0,1,1.181,1.1,1.106,1.106,0,0,1-1.17,1.156C-481.763,448.76-482.609,448.753-483.456,448.753Z" transform="translate(490.491 -419.349)" fill="#fff"/>
        <path id="Trazado_197391" data-name="Trazado 197391" d="M-187.772,161.819c-.807,0-1.613,0-2.42,0a1.168,1.168,0,0,1-1.275-1.117,1.136,1.136,0,0,1,1.217-1.169q2.48-.027,4.961,0a1.155,1.155,0,0,1,1.22,1.172,1.178,1.178,0,0,1-1.283,1.114C-186.159,161.823-186.965,161.819-187.772,161.819Z" transform="translate(218.761 -155.598)" fill="#fff"/>
        <path id="Trazado_197392" data-name="Trazado 197392" d="M-187.839,290.561c-.834,0-1.667.009-2.5,0a1.149,1.149,0,0,1-1.142-.9,1.117,1.117,0,0,1,.565-1.227,1.57,1.57,0,0,1,.657-.154c1.64-.012,3.281-.022,4.921,0a1.134,1.134,0,0,1,1.17,1.476,1.148,1.148,0,0,1-1.17.808C-186.172,290.566-187.005,290.561-187.839,290.561Z" transform="translate(218.799 -273.926)" fill="#fff"/>
        <path id="Trazado_197393" data-name="Trazado 197393" d="M-187.717,224c.807,0,1.613,0,2.42,0a1.16,1.16,0,0,1,1.231,1.119,1.143,1.143,0,0,1-1.192,1.151q-2.52.019-5.041,0a1.119,1.119,0,0,1-1.165-1.131,1.15,1.15,0,0,1,1.207-1.137C-189.411,224-188.564,224-187.717,224Z" transform="translate(218.759 -214.865)" fill="#fff"/>
      </g>
    </g>
  </g>
</svg>
