<svg xmlns="http://www.w3.org/2000/svg" xmlns:xlink="http://www.w3.org/1999/xlink" width="1137.11" height="577" viewBox="0 0 1137.11 577">
  <defs>
    <filter id="Trazado_197369" x="0" y="273.293" width="282.365" height="22" filterUnits="userSpaceOnUse">
      <feOffset dy="3" input="SourceAlpha"/>
      <feGaussianBlur stdDeviation="3" result="blur"/>
      <feFlood flood-opacity="0.161"/>
      <feComposite operator="in" in2="blur"/>
      <feComposite in="SourceGraphic"/>
    </filter>
    <filter id="Trazado_197372" x="854.745" y="273.293" width="282.365" height="22" filterUnits="userSpaceOnUse">
      <feOffset dy="3" input="SourceAlpha"/>
      <feGaussianBlur stdDeviation="3" result="blur-2"/>
      <feFlood flood-opacity="0.161"/>
      <feComposite operator="in" in2="blur-2"/>
      <feComposite in="SourceGraphic"/>
    </filter>
    <filter id="Elipse_5973" x="108.11" y="258" width="53" height="52" filterUnits="userSpaceOnUse">
      <feOffset dy="3" input="SourceAlpha"/>
      <feGaussianBlur stdDeviation="3" result="blur-3"/>
      <feFlood flood-opacity="0.161"/>
      <feComposite operator="in" in2="blur-3"/>
      <feComposite in="SourceGraphic"/>
    </filter>
    <filter id="Trazado_197370" x="285.714" y="128.126" width="188.264" height="158.922" filterUnits="userSpaceOnUse">
      <feOffset dy="3" input="SourceAlpha"/>
      <feGaussianBlur stdDeviation="3" result="blur-4"/>
      <feFlood flood-opacity="0.161"/>
      <feComposite operator="in" in2="blur-4"/>
      <feComposite in="SourceGraphic"/>
    </filter>
    <filter id="Trazado_197371" x="284.233" y="119.177" width="599.077" height="393.207" filterUnits="userSpaceOnUse">
      <feOffset dy="3" input="SourceAlpha"/>
      <feGaussianBlur stdDeviation="3" result="blur-5"/>
      <feFlood flood-opacity="0.161"/>
      <feComposite operator="in" in2="blur-5"/>
      <feComposite in="SourceGraphic"/>
    </filter>
    <filter id="Elipse_5975" x="845.11" y="258" width="53" height="52" filterUnits="userSpaceOnUse">
      <feOffset dy="3" input="SourceAlpha"/>
      <feGaussianBlur stdDeviation="3" result="blur-6"/>
      <feFlood flood-opacity="0.161"/>
      <feComposite operator="in" in2="blur-6"/>
      <feComposite in="SourceGraphic"/>
    </filter>
    <filter id="Trazado_197374" x="107.296" y="280.562" width="185.239" height="201.997" filterUnits="userSpaceOnUse">
      <feOffset dy="3" input="SourceAlpha"/>
      <feGaussianBlur stdDeviation="3" result="blur-7"/>
      <feFlood flood-opacity="0.161"/>
      <feComposite operator="in" in2="blur-7"/>
      <feComposite in="SourceGraphic"/>
    </filter>
    <filter id="Trazado_197375" x="288.898" y="130.208" width="451.562" height="164.89" filterUnits="userSpaceOnUse">
      <feOffset dy="3" input="SourceAlpha"/>
      <feGaussianBlur stdDeviation="3" result="blur-8"/>
      <feFlood flood-opacity="0.161"/>
      <feComposite operator="in" in2="blur-8"/>
      <feComposite in="SourceGraphic"/>
    </filter>
    <filter id="Trazado_197376" x="289.637" y="280.262" width="579.3" height="107.17" filterUnits="userSpaceOnUse">
      <feOffset dy="3" input="SourceAlpha"/>
      <feGaussianBlur stdDeviation="3" result="blur-9"/>
      <feFlood flood-opacity="0.161"/>
      <feComposite operator="in" in2="blur-9"/>
      <feComposite in="SourceGraphic"/>
    </filter>
  </defs>
  <g id="Grupo_161555" data-name="Grupo 161555" transform="translate(-231.445 -1315.712)">
    <g id="Grupo_155475" data-name="Grupo 155475" transform="translate(-187.816 -535.301)">
      <g transform="matrix(1, 0, 0, 1, 419.26, 1851.01)" filter="url(#Trazado_197369)">
        <path id="Trazado_197369-2" data-name="Trazado 197369" d="M-8133.415-9652.9h264.365" transform="translate(8142.41 9934.19)" fill="none" stroke="#1565c0" stroke-width="4"/>
      </g>
      <g transform="matrix(1, 0, 0, 1, 419.26, 1851.01)" filter="url(#Trazado_197372)">
        <path id="Trazado_197372-2" data-name="Trazado 197372" d="M-8133.415-9652.9h264.365" transform="translate(8997.16 9934.19)" fill="none" stroke="#1565c0" stroke-width="4"/>
      </g>
      <rect id="Rectángulo_46353" data-name="Rectángulo 46353" width="26.137" height="26.137" transform="translate(872.283 1978.19) rotate(-45)" fill="#1565c0"/>
      <g transform="matrix(1, 0, 0, 1, 419.26, 1851.01)" filter="url(#Elipse_5973)">
        <ellipse id="Elipse_5973-2" data-name="Elipse 5973" cx="17.5" cy="17" rx="17.5" ry="17" transform="translate(117.11 264)" fill="#1565c0"/>
      </g>
      <ellipse id="Elipse_5980" data-name="Elipse 5980" cx="17.5" cy="17" rx="17.5" ry="17" transform="translate(1391.371 2115.012)" fill="#1565c0"/>
      <ellipse id="Elipse_5981" data-name="Elipse 5981" cx="17.5" cy="17" rx="17.5" ry="17" transform="translate(1503.371 2115.012)" fill="#1565c0"/>
      <g transform="matrix(1, 0, 0, 1, 419.26, 1851.01)" filter="url(#Trazado_197370)">
        <path id="Trazado_197370-2" data-name="Trazado 197370" d="M-7933.977-9616.266l167.724-137.832" transform="translate(8229.96 9889.77)" fill="none" stroke="#1565c0" stroke-width="4"/>
      </g>
      <g transform="matrix(1, 0, 0, 1, 419.26, 1851.01)" filter="url(#Trazado_197371)">
        <path id="Trazado_197371-2" data-name="Trazado 197371" d="M-7739.664-9760h245.153l136.831,153.328-93.786,217.879H-7813.81l-120.878-207.289" transform="translate(8229.65 9887.18)" fill="none" stroke="#1565c0" stroke-width="4"/>
      </g>
      <g transform="matrix(1, 0, 0, 1, 419.26, 1851.01)" filter="url(#Elipse_5975)">
        <ellipse id="Elipse_5975-2" data-name="Elipse 5975" cx="17.5" cy="17" rx="17.5" ry="17" transform="translate(854.11 264)" fill="#1565c0"/>
      </g>
      <ellipse id="Elipse_5976" data-name="Elipse 5976" cx="17" cy="17.5" rx="17" ry="17.5" transform="translate(1180.371 2332.012)" fill="#1565c0"/>
      <ellipse id="Elipse_5977" data-name="Elipse 5977" cx="17" cy="17.5" rx="17" ry="17.5" transform="translate(1049.371 2332.012)" fill="#1565c0"/>
      <circle id="Elipse_5978" data-name="Elipse 5978" cx="17.5" cy="17.5" r="17.5" transform="translate(935.371 2332.012)" fill="#1565c0"/>
      <circle id="Elipse_5979" data-name="Elipse 5979" cx="17.5" cy="17.5" r="17.5" transform="translate(821.371 2332.012)" fill="#1565c0"/>
      <path id="Trazado_197373" data-name="Trazado 197373" d="M-7806.043-9742.566l133.863-81.094h204.311l109.647,120.851-44.771,106.528" transform="translate(8705.381 11710.245)" fill="none" stroke="#707070" stroke-width="4" stroke-dasharray="10"/>
      <g transform="matrix(1, 0, 0, 1, 419.26, 1851.01)" filter="url(#Trazado_197374)">
        <path id="Trazado_197374-2" data-name="Trazado 197374" d="M-8058-9521.26l164.283-126.877-104.414,181.416" transform="translate(8175.52 9936.28)" fill="none" stroke="#707070" stroke-width="4" stroke-dasharray="10"/>
      </g>
      <ellipse id="Elipse_5986" data-name="Elipse 5986" cx="15.5" cy="16" rx="15.5" ry="16" transform="translate(521.371 2254.012)" fill="#707070"/>
      <circle id="Elipse_5992" data-name="Elipse 5992" cx="15.5" cy="15.5" r="15.5" transform="translate(580.371 2311.012)" fill="#707070"/>
      <circle id="Elipse_5987" data-name="Elipse 5987" cx="16" cy="16" r="16" transform="translate(1033.371 1870.012)" fill="#707070"/>
      <circle id="Elipse_5988" data-name="Elipse 5988" cx="16" cy="16" r="16" transform="translate(1224.371 1870.012)" fill="#707070"/>
      <circle id="Elipse_5989" data-name="Elipse 5989" cx="16" cy="16" r="16" transform="translate(1332.371 1995.012)" fill="#707070"/>
      <g transform="matrix(1, 0, 0, 1, 419.26, 1851.01)" filter="url(#Trazado_197375)">
        <path id="Trazado_197375-2" data-name="Trazado 197375" d="M-7932.34-9608.988l266.8-60.347h134.847l29.583-83.927" transform="translate(8230.68 9890.14)" fill="none" stroke="#f4c62f" stroke-width="4"/>
      </g>
      <g transform="matrix(1, 0, 0, 1, 419.26, 1851.01)" filter="url(#Trazado_197376)">
        <path id="Trazado_197376-2" data-name="Trazado 197376" d="M-7372.188-9646.035l-118.4,83.186h-202.844l-238.232-85.287" transform="translate(8230.98 9936.28)" fill="none" stroke="#f59d36" stroke-width="4"/>
      </g>
      <rect id="Rectángulo_46352" data-name="Rectángulo 46352" width="26.137" height="26.137" transform="translate(689.535 2132.159) rotate(-45)" fill="#1565c0"/>
      <rect id="Rectángulo_46354" data-name="Rectángulo 46354" width="26.137" height="26.137" transform="translate(961.274 2074.081) rotate(-45)" fill="#f4c62f"/>
      <ellipse id="Elipse_5974" data-name="Elipse 5974" cx="17.5" cy="17" rx="17.5" ry="17" transform="translate(1136.371 1961.012)" fill="#1565c0"/>
      <circle id="Elipse_5985" data-name="Elipse 5985" cx="16" cy="16" r="16" transform="translate(1142.371 2210.012)" fill="#f59d36"/>
      <circle id="Elipse_5990" data-name="Elipse 5990" cx="16" cy="16" r="16" transform="translate(945.371 2210.012)" fill="#f59d36"/>
      <circle id="Elipse_5991" data-name="Elipse 5991" cx="16" cy="16" r="16" transform="translate(1099.371 2056.013)" fill="#f4c62f"/>
      <text id="Rehosting" transform="translate(770.867 2071.189) rotate(-41)" fill="#1565c0" font-size="19" font-family="Roboto-Bold, Roboto" font-weight="700"><tspan x="0" y="0">Rehosting</tspan></text>
      <text id="Refactoring" transform="translate(757.071 2200.135) rotate(59)" fill="#1565c0" font-size="19" font-family="Roboto-Bold, Roboto" font-weight="700"><tspan x="0" y="0">Refactoring</tspan></text>
      <text id="Replatforming" transform="translate(805.22 2104.057) rotate(-13)" fill="#f4c62f" font-size="19" font-family="Roboto-Bold, Roboto" font-weight="700"><tspan x="0" y="0">Replatforming</tspan></text>
      <text id="Repurchasing" transform="translate(784.277 2155.64) rotate(20)" fill="#f59d36" font-size="19" font-family="Roboto-Bold, Roboto" font-weight="700"><tspan x="0" y="0">Repurchasing</tspan></text>
      <text id="_Lift_and_shift_" data-name="(Lift and shift)" transform="translate(784.026 2091.574) rotate(-41)" fill="#1565c0" font-size="15" font-family="Roboto-Bold, Roboto" font-weight="700"><tspan x="0" y="0">(Lift and shift)</tspan></text>
      <text id="_Re-writing_decoupling_applications_" data-name="(Re-writing / decoupling
applications)" transform="translate(758.238 2256.817) rotate(59)" fill="#1565c0" font-size="15" font-family="Roboto-Bold, Roboto" font-weight="700"><tspan x="-81.467" y="0">(Re-writing / decoupling</tspan><tspan x="-43.839" y="18">applications)</tspan></text>
      <text id="_Lift_and_Reshape_" data-name="(Lift and Reshape)" transform="translate(807.268 2128.234) rotate(-13)" fill="#f4c62f" font-size="15" font-family="Roboto-Bold, Roboto" font-weight="700"><tspan x="0" y="0">(Lift and Reshape)</tspan></text>
      <text id="_Replace_Drop_Shop_" data-name="(Replace Drop &amp; Shop)" transform="translate(762.755 2171.276) rotate(20)" fill="#f59d36" font-size="15" font-family="Roboto-Bold, Roboto" font-weight="700"><tspan x="0" y="0">(Replace Drop &amp; Shop)</tspan></text>
      <text id="Manual_install" data-name="Manual install" transform="translate(1056.371 1867.012)" fill="#12263f" font-size="15" font-family="Roboto-Bold, Roboto" font-weight="700"><tspan x="-47.443" y="0">Manual install</tspan></text>
      <text id="Determine_new_platform" data-name="Determine
new platform" transform="translate(980.371 2109.012)" fill="#12263f" font-size="15" font-family="Roboto-Bold, Roboto" font-weight="700"><tspan x="-34.988" y="0">Determine</tspan><tspan x="-44.557" y="18">new platform</tspan></text>
      <text id="Purchase_COTS_SaaS_licensing" data-name="Purchase COTS/
SaaS &amp; licensing" transform="translate(967.371 2256.012)" fill="#12263f" font-size="15" font-family="Roboto-Bold, Roboto" font-weight="700"><tspan x="-55.375" y="0">Purchase COTS/</tspan><tspan x="-56.389" y="18">SaaS &amp; licensing</tspan></text>
      <text id="Redesign_application_infraestructure_architecture" data-name="Redesign
application/
infraestructure architecture" transform="translate(833.371 2388.012)" fill="#12263f" font-size="15" font-family="Roboto-Bold, Roboto" font-weight="700"><tspan x="-31.447" y="0">Redesign</tspan><tspan x="-40.14" y="18">application/</tspan><tspan x="-93.003" y="36">infraestructure architecture</tspan></text>
      <text id="App_code_development" data-name="App code
development" transform="translate(950.371 2388.012)" fill="#12263f" font-size="15" font-family="Roboto-Bold, Roboto" font-weight="700"><tspan x="-31.791" y="0">App code</tspan><tspan x="-43.81" y="18">development</tspan></text>
      <text id="Retire_decommission" data-name="Retire /
decommission" transform="translate(587.371 2356.012)" fill="#12263f" font-size="15" font-family="Roboto-Bold, Roboto" font-weight="700"><tspan x="-24.822" y="0">Retire /</tspan><tspan x="-49.548" y="18">decommission</tspan></text>
      <text id="Retire_not_moving" data-name="Retire / not
moving" transform="translate(466.371 2266.012)" fill="#12263f" font-size="15" font-family="Roboto-Bold, Roboto" font-weight="700"><tspan x="-37.665" y="0">Retire / not</tspan><tspan x="-24.939" y="18">moving</tspan></text>
      <text id="Discover_Assess_Prioritize_applications" data-name="Discover / Assess / Prioritize
applications" transform="translate(545.371 2165.012)" fill="#12263f" font-size="15" font-family="Roboto-Bold, Roboto" font-weight="700"><tspan x="-97.914" y="0">Discover / Assess / Prioritize</tspan><tspan x="-41.195" y="18">applications</tspan></text>
      <text id="Determine_migration_path" data-name="Determine
migration
path" transform="translate(704.371 2073.012)" fill="#12263f" font-size="15" font-family="Roboto-Bold, Roboto" font-weight="700"><tspan x="-34.988" y="0">Determine</tspan><tspan x="-32.373" y="18">migration</tspan><tspan x="-14.974" y="36">path</tspan></text>
      <text id="Full_ALM_SDLC" data-name="Full ALM /
SDLC" transform="translate(1065.371 2388.012)" fill="#12263f" font-size="15" font-family="Roboto-Bold, Roboto" font-weight="700"><tspan x="-34.417" y="0">Full ALM /</tspan><tspan x="-18.453" y="18">SDLC</tspan></text>
      <text id="Integration" transform="translate(1197.371 2389.012)" fill="#12263f" font-size="16" font-family="Roboto-Bold, Roboto" font-weight="700"><tspan x="-39.324" y="0">Integration</tspan></text>
      <text id="Manual_install_setup" data-name="Manual install
&amp; setup" transform="translate(1156.371 2258.012)" fill="#12263f" font-size="15" font-family="Roboto-Bold, Roboto" font-weight="700"><tspan x="-47.443" y="0">Manual install</tspan><tspan x="-25.653" y="18">&amp; setup</tspan></text>
      <text id="Modify_underlying_infraestructure" data-name="Modify underlying
infraestructure" transform="translate(1111.371 2109.012)" fill="#12263f" font-size="15" font-family="Roboto-Bold, Roboto" font-weight="700"><tspan x="-60.981" y="0">Modify underlying</tspan><tspan x="-50.332" y="18">infraestructure</tspan></text>
      <text id="Automate" transform="translate(1010.371 1971.012)" fill="#1565c0" font-size="15" font-family="Roboto-Bold, Roboto" font-weight="700"><tspan x="-32.97" y="0">Automate</tspan></text>
      <text id="Use_migration_tools" data-name="Use migration tools" transform="translate(1158.371 1956.012)" fill="#12263f" font-size="15" font-family="Roboto-Bold, Roboto" font-weight="700"><tspan x="-65.706" y="0">Use migration tools</tspan></text>
      <text id="Manual" transform="matrix(0.839, -0.545, 0.545, 0.839, 955.854, 1921.842)" fill="#afafaf" font-size="15" font-family="Roboto-Bold, Roboto" font-weight="700"><tspan x="-24.998" y="0">Manual</tspan></text>
      <text id="Manual_config" data-name="Manual config" transform="translate(1252.371 1867.012)" fill="#12263f" font-size="15" font-family="Roboto-Bold, Roboto" font-weight="700"><tspan x="-48.062" y="0">Manual config</tspan></text>
      <text id="Manual_deploy" data-name="Manual deploy" transform="translate(1423.371 2014.012)" fill="#12263f" font-size="15" font-family="Roboto-Bold, Roboto" font-weight="700"><tspan x="-49.362" y="0">Manual deploy</tspan></text>
      <text id="Validation" transform="translate(1328.371 2169.012)" fill="#12263f" font-size="16" font-family="Roboto-Bold, Roboto" font-weight="700"><tspan x="-36.207" y="0">Validation</tspan></text>
      <text id="Transition" transform="translate(1414.371 2169.012)" fill="#12263f" font-size="16" font-family="Roboto-Bold, Roboto" font-weight="700"><tspan x="-36.328" y="0">Transition</tspan></text>
      <text id="Production" transform="translate(1506.371 2169.012)" fill="#12263f" font-size="16" font-family="Roboto-Bold, Roboto" font-weight="700"><tspan x="-39.445" y="0">Production</tspan></text>
    </g>
  </g>
</svg>
