<svg xmlns="http://www.w3.org/2000/svg" width="553.666" height="307.564" viewBox="0 0 553.666 307.564">
  <g id="Grupo_155531" data-name="Grupo 155531" transform="translate(10594.833 6685.55)">
    <g id="Grupo_155530" data-name="Grupo 155530" transform="translate(-1324.392 870)">
      <g id="Grupo_155506" data-name="Grupo 155506" transform="translate(-9203.509 -7539.268)">
        <g id="gbVqRU.tif" transform="translate(0 0)">
          <g id="Grupo_155512" data-name="Grupo 155512">
            <path id="Trazado_197440" data-name="Trazado 197440" d="M-837.616,4654.247v112.377c-.076.09-.2.171-.221.272-1.54,8.058-8.581,12.961-17.022,12.862-20.912-.244-41.828-.08-62.742-.08-29.74,0-59.479.037-89.218-.066a18.868,18.868,0,0,1-7.695-1.552c-6.047-2.819-8.851-7.918-8.851-14.567,0-51.137,0-55.018,0-106.154,0-.544-.008-1.09.037-1.631.36-4.352,1.977-8.2,5.534-10.763,2.235-1.613,4.971-2.531,7.482-3.76h159.634a8.186,8.186,0,0,0,.974.373,14.491,14.491,0,0,1,9.067,6.055A47,47,0,0,1-837.616,4654.247Zm-179.576,18.033v1.836c0,45.405,0,43.553,0,88.957,0,6.629,3.838,10.429,10.514,10.43q76.087.007,152.175,0c6.992,0,10.7-3.743,10.7-10.789,0-45.223,0-43.189,0-88.413v-2.022Zm173.342-6.458c0-3.317.1-6.454-.048-9.58a9.6,9.6,0,0,0-1.041-3.8c-1.958-3.835-5.375-5.089-9.477-5.088q-76.062.018-152.124.008c-.423,0-.847-.014-1.269.011-4.492.269-8.266,2.867-8.906,6.88-.6,3.764-.455,7.647-.641,11.565Z" transform="translate(1023.366 -4641.185)" fill="#12263f"/>
            <path id="Trazado_197441" data-name="Trazado 197441" d="M-944.9,4767.275q-19.034,0-38.067,0a11.9,11.9,0,0,1-1.5-.051,2.809,2.809,0,0,1-2.178-2.934,3.081,3.081,0,0,1,1.9-3.119,5.742,5.742,0,0,1,1.493-.1q38.545-.006,77.09.007a4.515,4.515,0,0,1,1.876.276c1.129.516,1.61,1.7,1.455,3.274-.149,1.508-.829,2.38-1.955,2.576a9.609,9.609,0,0,1-1.634.075Q-925.659,4767.279-944.9,4767.275Z" transform="translate(999.993 -4717.486)" fill="#12263f"/>
            <path id="Trazado_197442" data-name="Trazado 197442" d="M-955.369,4801.881q-14.259,0-28.519,0a9.164,9.164,0,0,1-1.123-.037,2.041,2.041,0,0,1-1.632-2.118,2.218,2.218,0,0,1,1.421-2.25,4.415,4.415,0,0,1,1.119-.075q28.877-.005,57.754,0a3.483,3.483,0,0,1,1.405.2,2.1,2.1,0,0,1,1.09,2.364c-.112,1.088-.621,1.718-1.464,1.859a7.48,7.48,0,0,1-1.224.054Q-940.956,4801.883-955.369,4801.881Z" transform="translate(999.993 -4740.611)" fill="#12263f"/>
            <path id="Trazado_197443" data-name="Trazado 197443" d="M-963.942,4832.249q-10.35,0-20.7,0a4.94,4.94,0,0,1-.815-.037c-.675-.114-1.161-1-1.184-2.119a2.354,2.354,0,0,1,1.031-2.25,2.373,2.373,0,0,1,.812-.075q20.96,0,41.921,0a1.9,1.9,0,0,1,1.02.2,2.411,2.411,0,0,1,.791,2.363c-.081,1.088-.451,1.718-1.063,1.859a3.954,3.954,0,0,1-.888.054Q-953.481,4832.251-963.942,4832.249Z" transform="translate(999.992 -4759.94)" fill="#12263f"/>
            <path id="Trazado_197444" data-name="Trazado 197444" d="M-976.189,4681.283c-.543,0-1.09.044-1.627-.008a2.943,2.943,0,0,1-2.85-2.931,2.972,2.972,0,0,1,2.636-3.148,18.234,18.234,0,0,1,3.614-.042,3.027,3.027,0,0,1,2.945,3.064,2.992,2.992,0,0,1-3.089,3.08c-.54.039-1.085.006-1.629.006Z" transform="translate(996.189 -4662.762)" fill="#12263f"/>
            <path id="Trazado_197445" data-name="Trazado 197445" d="M-897.934,4678.158a3.089,3.089,0,0,1-2.979,3.189,3.047,3.047,0,0,1-3.219-2.931,3.168,3.168,0,0,1,2.962-3.226A3.163,3.163,0,0,1-897.934,4678.158Z" transform="translate(947.476 -4662.828)" fill="#12263f"/>
            <path id="Trazado_197446" data-name="Trazado 197446" d="M-932.1,4678.328a3,3,0,0,1-3.122,3.043,3.113,3.113,0,0,1-3.065-2.958,3.238,3.238,0,0,1,3.072-3.185A3.127,3.127,0,0,1-932.1,4678.328Z" transform="translate(969.214 -4662.853)" fill="#12263f"/>
          </g>
        </g>
        <path id="Trazado_197447" data-name="Trazado 197447" d="M-700.179,4791.776c-3.805,0-7.611.013-11.416,0-2.831-.012-3.934-1.125-3.944-3.964-.013-3.624-.018-30.148,0-33.772.014-2.536,1.071-3.757,3.57-3.774,7.972-.059,41.391-.057,49.364,0,2.313.018,3.452,1.162,3.509,3.491.094,3.863.1,30.633,0,34.5-.064,2.463-1.308,3.506-3.858,3.519C-666.881,4791.791-696.253,4791.776-700.179,4791.776Zm34.7-35.1H-709.2v28.779h43.718Z" transform="translate(827.445 -4710.583)" fill="#12263f"/>
        <path id="Trazado_197448" data-name="Trazado 197448" d="M-784.93,4934.015h32.615l6.355-6.355-6.475-6.475H-785.17l5.935,5.936Z" transform="translate(871.757 -4819.401)" fill="none" stroke="#12263f" stroke-linejoin="round" stroke-width="2"/>
        <path id="Trazado_197449" data-name="Trazado 197449" d="M-886.525,4934.015h32.615l6.355-6.355-6.475-6.475h-32.734l5.935,5.936Z" transform="translate(936.421 -4819.401)" fill="none" stroke="#12263f" stroke-linejoin="round" stroke-width="2"/>
        <path id="Trazado_197450" data-name="Trazado 197450" d="M-988.12,4934.015h32.615l6.355-6.355-6.475-6.475H-988.36l5.935,5.936Z" transform="translate(1001.085 -4819.401)" fill="none" stroke="#12263f" stroke-linejoin="round" stroke-width="2"/>
        <path id="Trazado_197451" data-name="Trazado 197451" d="M-634.8,4913.922v15.842a39.125,39.125,0,0,0,26.517,0l-.344-15.842" transform="translate(776.052 -4814.778)" fill="none" stroke="#12263f" stroke-linejoin="round" stroke-width="2"/>
        <path id="Trazado_197452" data-name="Trazado 197452" d="M-706.488,4807.148l13.316-14.235,6.888,4.133,5.51-6.429,6.428.919,9.643-10.562" transform="translate(821.678 -4730.159)" fill="none" stroke="#12263f" stroke-linejoin="round" stroke-width="3"/>
        <ellipse id="Elipse_5993" data-name="Elipse 5993" cx="13.086" cy="4.821" rx="13.086" ry="4.821" transform="translate(141.248 94.322)" fill="none" stroke="#12263f" stroke-linejoin="round" stroke-width="2"/>
      </g>
      <g id="Grupo_155530-2" data-name="Grupo 155530" transform="translate(-8953.528 -7539.268)">
        <g id="gbVqRU.tif-2" data-name="gbVqRU.tif" transform="translate(0 0)">
          <g id="Grupo_155512-2" data-name="Grupo 155512">
            <path id="Trazado_197440-2" data-name="Trazado 197440" d="M-837.616,4654.247v112.377c-.076.09-.2.171-.221.272-1.54,8.058-8.581,12.961-17.022,12.862-20.912-.244-41.828-.08-62.742-.08-29.74,0-59.479.037-89.218-.066a18.868,18.868,0,0,1-7.695-1.552c-6.047-2.819-8.851-7.918-8.851-14.567,0-51.137,0-55.018,0-106.154,0-.544-.008-1.09.037-1.631.36-4.352,1.977-8.2,5.534-10.763,2.235-1.613,4.971-2.531,7.482-3.76h159.634a8.186,8.186,0,0,0,.974.373,14.491,14.491,0,0,1,9.067,6.055A47,47,0,0,1-837.616,4654.247Zm-179.576,18.033v1.836c0,45.405,0,43.553,0,88.957,0,6.629,3.838,10.429,10.514,10.43q76.087.007,152.175,0c6.992,0,10.7-3.743,10.7-10.789,0-45.223,0-43.189,0-88.413v-2.022Zm173.342-6.458c0-3.317.1-6.454-.048-9.58a9.6,9.6,0,0,0-1.041-3.8c-1.958-3.835-5.375-5.089-9.477-5.088q-76.062.018-152.124.008c-.423,0-.847-.014-1.269.011-4.492.269-8.266,2.867-8.906,6.88-.6,3.764-.455,7.647-.641,11.565Z" transform="translate(1023.366 -4641.185)" fill="#12263f"/>
            <path id="Trazado_197441-2" data-name="Trazado 197441" d="M-944.9,4767.275q-19.034,0-38.067,0a11.9,11.9,0,0,1-1.5-.051,2.809,2.809,0,0,1-2.178-2.934,3.081,3.081,0,0,1,1.9-3.119,5.742,5.742,0,0,1,1.493-.1q38.545-.006,77.09.007a4.515,4.515,0,0,1,1.876.276c1.129.516,1.61,1.7,1.455,3.274-.149,1.508-.829,2.38-1.955,2.576a9.609,9.609,0,0,1-1.634.075Q-925.659,4767.279-944.9,4767.275Z" transform="translate(999.993 -4717.486)" fill="#12263f"/>
            <path id="Trazado_197442-2" data-name="Trazado 197442" d="M-955.369,4801.881q-14.259,0-28.519,0a9.164,9.164,0,0,1-1.123-.037,2.041,2.041,0,0,1-1.632-2.118,2.218,2.218,0,0,1,1.421-2.25,4.415,4.415,0,0,1,1.119-.075q28.877-.005,57.754,0a3.483,3.483,0,0,1,1.405.2,2.1,2.1,0,0,1,1.09,2.364c-.112,1.088-.621,1.718-1.464,1.859a7.48,7.48,0,0,1-1.224.054Q-940.956,4801.883-955.369,4801.881Z" transform="translate(999.993 -4740.611)" fill="#12263f"/>
            <path id="Trazado_197443-2" data-name="Trazado 197443" d="M-963.942,4832.249q-10.35,0-20.7,0a4.94,4.94,0,0,1-.815-.037c-.675-.114-1.161-1-1.184-2.119a2.354,2.354,0,0,1,1.031-2.25,2.373,2.373,0,0,1,.812-.075q20.96,0,41.921,0a1.9,1.9,0,0,1,1.02.2,2.411,2.411,0,0,1,.791,2.363c-.081,1.088-.451,1.718-1.063,1.859a3.954,3.954,0,0,1-.888.054Q-953.481,4832.251-963.942,4832.249Z" transform="translate(999.992 -4759.94)" fill="#12263f"/>
            <path id="Trazado_197444-2" data-name="Trazado 197444" d="M-976.189,4681.283c-.543,0-1.09.044-1.627-.008a2.943,2.943,0,0,1-2.85-2.931,2.972,2.972,0,0,1,2.636-3.148,18.234,18.234,0,0,1,3.614-.042,3.027,3.027,0,0,1,2.945,3.064,2.992,2.992,0,0,1-3.089,3.08c-.54.039-1.085.006-1.629.006Z" transform="translate(996.189 -4662.762)" fill="#12263f"/>
            <path id="Trazado_197445-2" data-name="Trazado 197445" d="M-897.934,4678.158a3.089,3.089,0,0,1-2.979,3.189,3.047,3.047,0,0,1-3.219-2.931,3.168,3.168,0,0,1,2.962-3.226A3.163,3.163,0,0,1-897.934,4678.158Z" transform="translate(947.476 -4662.828)" fill="#12263f"/>
            <path id="Trazado_197446-2" data-name="Trazado 197446" d="M-932.1,4678.328a3,3,0,0,1-3.122,3.043,3.113,3.113,0,0,1-3.065-2.958,3.238,3.238,0,0,1,3.072-3.185A3.127,3.127,0,0,1-932.1,4678.328Z" transform="translate(969.214 -4662.853)" fill="#12263f"/>
          </g>
        </g>
        <path id="Trazado_197447-2" data-name="Trazado 197447" d="M-700.179,4791.776c-3.805,0-7.611.013-11.416,0-2.831-.012-3.934-1.125-3.944-3.964-.013-3.624-.018-30.148,0-33.772.014-2.536,1.071-3.757,3.57-3.774,7.972-.059,41.391-.057,49.364,0,2.313.018,3.452,1.162,3.509,3.491.094,3.863.1,30.633,0,34.5-.064,2.463-1.308,3.506-3.858,3.519C-666.881,4791.791-696.253,4791.776-700.179,4791.776Zm34.7-35.1H-709.2v28.779h43.718Z" transform="translate(827.445 -4710.583)" fill="#12263f"/>
        <path id="Trazado_197448-2" data-name="Trazado 197448" d="M-784.93,4934.015h32.615l6.355-6.355-6.475-6.475H-785.17l5.935,5.936Z" transform="translate(871.757 -4819.401)" fill="none" stroke="#12263f" stroke-linejoin="round" stroke-width="2"/>
        <path id="Trazado_197449-2" data-name="Trazado 197449" d="M-886.525,4934.015h32.615l6.355-6.355-6.475-6.475h-32.734l5.935,5.936Z" transform="translate(936.421 -4819.401)" fill="none" stroke="#12263f" stroke-linejoin="round" stroke-width="2"/>
        <path id="Trazado_197450-2" data-name="Trazado 197450" d="M-988.12,4934.015h32.615l6.355-6.355-6.475-6.475H-988.36l5.935,5.936Z" transform="translate(1001.085 -4819.401)" fill="none" stroke="#12263f" stroke-linejoin="round" stroke-width="2"/>
        <path id="Trazado_197451-2" data-name="Trazado 197451" d="M-634.8,4913.922v15.842a39.125,39.125,0,0,0,26.517,0l-.344-15.842" transform="translate(776.052 -4814.778)" fill="none" stroke="#12263f" stroke-linejoin="round" stroke-width="2"/>
        <path id="Trazado_197452-2" data-name="Trazado 197452" d="M-706.488,4807.148l13.316-14.235,6.888,4.133,5.51-6.429,6.428.919,9.643-10.562" transform="translate(821.678 -4730.159)" fill="none" stroke="#12263f" stroke-linejoin="round" stroke-width="3"/>
        <ellipse id="Elipse_5993-2" data-name="Elipse 5993" cx="13.086" cy="4.821" rx="13.086" ry="4.821" transform="translate(141.248 94.322)" fill="none" stroke="#12263f" stroke-linejoin="round" stroke-width="2"/>
      </g>
      <path id="Trazado_197436" data-name="Trazado 197436" d="M-10419.125-6917.625h69.564" transform="translate(1148.684 -557.164)" fill="none" stroke="#12263f" stroke-width="5"/>
      <path id="Trazado_197437" data-name="Trazado 197437" d="M0,0H69.565" transform="translate(-9110.635 -7334.587) rotate(-90)" fill="none" stroke="#12263f" stroke-width="5"/>
      <path id="Trazado_197533" data-name="Trazado 197533" d="M0,0H69.565" transform="translate(-8860.654 -7334.587) rotate(-90)" fill="none" stroke="#12263f" stroke-width="5"/>
      <path id="Trazado_197439" data-name="Trazado 197439" d="M-10419.125-6917.625h64.231" transform="translate(1401.365 -557.164)" fill="none" stroke="#12263f" stroke-width="5"/>
      <path id="Trazado_197440-3" data-name="Trazado 197440" d="M-10419.125-6917.625h36.4" transform="translate(1647.828 -557.164)" fill="none" stroke="#12263f" stroke-width="5"/>
      <path id="Polígono_73" data-name="Polígono 73" d="M12.2,0l12.2,20.457H0Z" transform="translate(-8716.775 -7487.031) rotate(90)" fill="#12263f"/>
      <g id="Rectángulo_46384" data-name="Rectángulo 46384" transform="translate(-9164.54 -7337.388)" fill="none" stroke="#12263f" stroke-width="8">
        <rect width="110.286" height="89.403" rx="5" stroke="none"/>
        <rect x="4" y="4" width="102.286" height="81.403" rx="1" fill="none"/>
      </g>
      <g id="Rectángulo_46390" data-name="Rectángulo 46390" transform="translate(-8914.56 -7337.388)" fill="none" stroke="#12263f" stroke-width="8">
        <rect width="110.286" height="89.403" rx="5" stroke="none"/>
        <rect x="4" y="4" width="102.286" height="81.403" rx="1" fill="none"/>
      </g>
      <path id="Trazado_197441-3" data-name="Trazado 197441" d="M-10088.652-6500.5h81.2" transform="translate(938.343 -821.659)" fill="none" stroke="#12263f" stroke-width="3"/>
      <path id="Trazado_197534" data-name="Trazado 197534" d="M-10088.652-6500.5h81.2" transform="translate(1188.323 -821.659)" fill="none" stroke="#12263f" stroke-width="3"/>
      <path id="Trazado_197443-3" data-name="Trazado 197443" d="M-10088.652-6500.5h81.2" transform="translate(938.343 -804.937)" fill="none" stroke="#12263f" stroke-width="3"/>
      <path id="Trazado_197535" data-name="Trazado 197535" d="M-10088.652-6500.5h81.2" transform="translate(1188.323 -804.937)" fill="none" stroke="#12263f" stroke-width="3"/>
      <path id="Trazado_197445-3" data-name="Trazado 197445" d="M-10088.652-6500.5h81.2" transform="translate(937.979 -789.669)" fill="none" stroke="#12263f" stroke-width="3"/>
      <path id="Trazado_197536" data-name="Trazado 197536" d="M-10088.652-6500.5h81.2" transform="translate(1187.96 -789.669)" fill="none" stroke="#12263f" stroke-width="3"/>
      <path id="Trazado_197447-3" data-name="Trazado 197447" d="M-10088.652-6500.5h81.2" transform="translate(937.979 -775.856)" fill="none" stroke="#12263f" stroke-width="3"/>
      <path id="Trazado_197537" data-name="Trazado 197537" d="M-10088.652-6500.5h81.2" transform="translate(1187.96 -775.856)" fill="none" stroke="#12263f" stroke-width="3"/>
      <path id="Trazado_197449-3" data-name="Trazado 197449" d="M-10088.652-6500.5h81.2" transform="translate(938.343 -813.298)" fill="none" stroke="#12263f" stroke-width="3"/>
      <path id="Trazado_197538" data-name="Trazado 197538" d="M-10088.652-6500.5h81.2" transform="translate(1188.323 -813.298)" fill="none" stroke="#12263f" stroke-width="3"/>
      <path id="Trazado_197451-3" data-name="Trazado 197451" d="M-10088.652-6500.5h81.2" transform="translate(938.343 -796.576)" fill="none" stroke="#12263f" stroke-width="3"/>
      <path id="Trazado_197539" data-name="Trazado 197539" d="M-10088.652-6500.5h81.2" transform="translate(1188.323 -796.576)" fill="none" stroke="#12263f" stroke-width="3"/>
      <path id="Trazado_197453" data-name="Trazado 197453" d="M-10088.652-6500.5h81.2" transform="translate(938.343 -782.763)" fill="none" stroke="#12263f" stroke-width="3"/>
      <path id="Trazado_197540" data-name="Trazado 197540" d="M-10088.652-6500.5h81.2" transform="translate(1188.323 -782.763)" fill="none" stroke="#12263f" stroke-width="3"/>
      <g id="Elipse_5993-3" data-name="Elipse 5993" transform="translate(-9119.626 -7272.229)" fill="none" stroke="#12263f" stroke-width="3">
        <circle cx="7.475" cy="7.475" r="7.475" stroke="none"/>
        <circle cx="7.475" cy="7.475" r="5.975" fill="none"/>
      </g>
      <g id="Elipse_5998" data-name="Elipse 5998" transform="translate(-8869.646 -7272.229)" fill="none" stroke="#12263f" stroke-width="3">
        <circle cx="7.475" cy="7.475" r="7.475" stroke="none"/>
        <circle cx="7.475" cy="7.475" r="5.975" fill="none"/>
      </g>
      <circle id="Elipse_5995" data-name="Elipse 5995" cx="3.541" cy="3.541" r="3.541" transform="translate(-9115.692 -7268.295)" fill="#12263f"/>
      <circle id="Elipse_5999" data-name="Elipse 5999" cx="3.541" cy="3.541" r="3.541" transform="translate(-8865.712 -7268.295)" fill="#12263f"/>
      <text id="Before" transform="translate(-9122.215 -7542.55)" fill="#12263f" font-size="12" font-family="Roboto-Bold, Roboto" font-weight="700"><tspan x="0" y="0">Before</tspan></text>
      <text id="After" transform="translate(-8872.234 -7542.55)" fill="#12263f" font-size="12" font-family="Roboto-Bold, Roboto" font-weight="700"><tspan x="0" y="0">After</tspan></text>
      <text id="Retire" transform="translate(-9000.766 -7482.031)" fill="#12263f" font-size="12" font-family="Roboto-Bold, Roboto" font-weight="700"><tspan x="0" y="0">Retire</tspan></text>
    </g>
    <g id="Rectángulo_46391" data-name="Rectángulo 46391" transform="translate(-10146 -6677)" fill="#fff" stroke="#12263f" stroke-width="4">
      <rect width="52" height="28" rx="14" stroke="none"/>
      <rect x="2" y="2" width="48" height="24" rx="12" fill="none"/>
    </g>
    <g id="Elipse_6000" data-name="Elipse 6000" transform="translate(-10119 -6680)" fill="#fff" stroke="#12263f" stroke-width="4">
      <circle cx="16.5" cy="16.5" r="16.5" stroke="none"/>
      <circle cx="16.5" cy="16.5" r="14.5" fill="none"/>
    </g>
    <g id="Elipse_6001" data-name="Elipse 6001" transform="translate(-10109.126 -6669.328)" fill="#fff" stroke="#12263f" stroke-width="2">
      <circle cx="6.947" cy="6.947" r="6.947" stroke="none"/>
      <circle cx="6.947" cy="6.947" r="5.947" fill="none"/>
    </g>
    <path id="Trazado_197541" data-name="Trazado 197541" d="M-9935-6639.1v6.64" transform="translate(-167.179 -32.598)" fill="none" stroke="#12263f" stroke-width="2"/>
    <text id="Off" transform="translate(-10134 -6660.5)" fill="#12263f" font-size="8" font-family="Roboto-Bold, Roboto" font-weight="700"><tspan x="0" y="0">Off</tspan></text>
  </g>
</svg>
