<svg xmlns="http://www.w3.org/2000/svg" width="63" height="64" viewBox="0 0 63 64">
  <g id="Grupo_155490" data-name="Grupo 155490" transform="translate(0.085 -0.152)">
    <ellipse id="Elipse_4870" data-name="Elipse 4870" cx="31.5" cy="32" rx="31.5" ry="32" transform="translate(-0.085 0.152)" fill="#2ec49f"/>
    <g id="igIudo.tif" transform="translate(10.297 10.44)">
      <g id="Grupo_155494" data-name="Grupo 155494" transform="translate(0 0)">
        <path id="Trazado_197412" data-name="Trazado 197412" d="M-1323.714,1303.719h-2.161c-.083.421-.154.843-.251,1.258a8.258,8.258,0,0,1-2.983,4.7.762.762,0,0,0-.346.726c.031.358.007.72.007,1.135h1.413V1313h-1.4v2.839h-10.06v-2.815h-1.391v-1.452h1.348v-1.125c-.953.255-1.888.558-2.844.751a17.488,17.488,0,0,1-10.682-1.108,17.685,17.685,0,0,1-6.578-4.909,17.681,17.681,0,0,1-4.1-9.389,20.048,20.048,0,0,1,0-4.326.845.845,0,0,0-.213-.59c-.914-.947-1.853-1.869-2.784-2.8-.1-.1-.194-.206-.337-.358.389-.373.758-.738,1.141-1.086a.349.349,0,0,0,.1-.482c-.173-.348-.311-.713-.475-1.1h-1.833v-5.74c.5,0,1-.013,1.5.005.252.009.347-.1.48-.307a1.236,1.236,0,0,0-.416-1.932,6.117,6.117,0,0,1-.483-.39l4.156-4.151c.305.334.657.693.978,1.079a.4.4,0,0,0,.625.095.2.2,0,0,1,.08-.033c.859-.145,1.079-.684.944-1.475a4.316,4.316,0,0,1,0-.779h5.73v1.865c.373.159.734.3,1.083.468a.353.353,0,0,0,.486-.084c.358-.391.737-.763,1.125-1.16,1.072,1.077,2.1,2.1,3.108,3.131a.681.681,0,0,0,.644.227,16.871,16.871,0,0,1,4.54.006,17.49,17.49,0,0,1,10.755,5.632,17.567,17.567,0,0,1,4.541,15.1.84.84,0,0,0,.18.6,8.46,8.46,0,0,1,1.839,3.3c.159.563.26,1.142.392,1.732h2.131Zm-19.352-1.464a8.518,8.518,0,0,1,4.9-7.035,8.443,8.443,0,0,1,8.526.6,12.731,12.731,0,0,0,.088-3.86,16.075,16.075,0,0,0-2.463-7.093,16.333,16.333,0,0,0-9.514-7.085,16.253,16.253,0,0,0-6.654-.455c-.737.1-.97.494-.671,1.171a2.585,2.585,0,0,1,.171.444.427.427,0,0,0,.52.375c.5-.029,1-.008,1.495-.008v5.738a3.738,3.738,0,0,1-.664-.006,1.245,1.245,0,0,0-1.66,1.08c-.049.225-.073.361.107.525.382.348.745.717,1.055,1.019l-4.12,4.122c-.135-.16-.318-.348-.467-.559-.44-.621-.953-.866-1.641-.368a.4.4,0,0,1-.161.062c-.262.047-.337.2-.327.459.02.513.006,1.027.006,1.534h-5.739c0-.543.013-1.061-.009-1.578a.5.5,0,0,0-.2-.365,8,8,0,0,0-1-.415.3.3,0,0,0-.266.033,2.077,2.077,0,0,0-.488.773,15.626,15.626,0,0,0,.1,5.261,16.188,16.188,0,0,0,3.358,7.324,16.3,16.3,0,0,0,6.8,5.012,16.292,16.292,0,0,0,8.851.912c.9-.151,1.774-.427,2.684-.652a1.173,1.173,0,0,0-.089-.163,8.613,8.613,0,0,1-2.468-5.091c-.012-.1-.217-.249-.337-.255-.617-.026-1.234-.012-1.868-.012v-1.449Zm-20.914-24.7c-.413,1.072-.767,2.013-1.147,2.944a.5.5,0,0,1-.361.242c-.4.031-.8.011-1.191.011v2.842c.426,0,.816-.013,1.2.008a.434.434,0,0,1,.329.173c.387.97.752,1.949,1.163,3.031l-.957.907,2.07,2.062.858-1.018c1.042.4,1.971.739,2.888,1.113a.548.548,0,0,1,.27.391c.037.4.013.8.013,1.19h2.853v-1.412l3.212-1.333.876,1.029,2.053-2.052-1-.877c.413-1.087.767-2.043,1.146-2.989a.458.458,0,0,1,.338-.214c.41-.026.824-.01,1.229-.01v-2.842c-.424,0-.828.017-1.228-.01a.464.464,0,0,1-.343-.216c-.38-.944-.735-1.9-1.142-2.969l.974-.836-2.085-2.085-.862.967c-1.046-.4-2-.761-2.945-1.142a.452.452,0,0,1-.229-.325c-.028-.411-.011-.825-.011-1.231h-2.842c0,.426.014.829-.009,1.23a.423.423,0,0,1-.186.319c-.958.383-1.925.745-3.049,1.173l-.836-1.007-2.069,2.075Zm33.076,33.976c0-.586.036-1.123-.01-1.653a1.06,1.06,0,0,1,.527-1.059,6.87,6.87,0,0,0,2.9-7.365,7.118,7.118,0,0,0-9.679-5.114,7.208,7.208,0,0,0-4.418,7.472,7.287,7.287,0,0,0,3.254,5.2.745.745,0,0,1,.273.511c.032.66.013,1.322.013,1.994h2.846v-5.761l-.327-.131a2.853,2.853,0,0,1-1.767-3.14,2.9,2.9,0,0,1,2.795-2.395,2.934,2.934,0,0,1,2.855,2.336,2.857,2.857,0,0,1-1.718,3.172.5.5,0,0,0-.386.557c.014,1.649.006,3.3.008,4.948,0,.139.017.277.027.43Zm-.024,1.5h-7.09v1.359h7.09Zm-4.953-10.088a1.419,1.419,0,0,0,1.412,1.45,1.428,1.428,0,0,0,1.414-1.408,1.419,1.419,0,0,0-1.416-1.443A1.413,1.413,0,0,0-1335.881,1302.947Z" transform="translate(1368.138 -1271.425)" fill="#fff"/>
        <path id="Trazado_197413" data-name="Trazado 197413" d="M-1274.219,1535.331l-1.286,2.132-1.241-.738,2.5-4.164,4.909,2.449-.646,1.3-2.835-1.413a10.575,10.575,0,0,0,3.577,5.51,10.624,10.624,0,0,0,6.011,2.38v1.443a11.983,11.983,0,0,1-6.9-2.678A12.192,12.192,0,0,1-1274.219,1535.331Z" transform="translate(1284.695 -1509.848)" fill="#fff"/>
        <path id="Trazado_197414" data-name="Trazado 197414" d="M-1104.488,1388.2v-1.487a12.387,12.387,0,0,1,11.023,8.866l1.248-2.062,1.24.74c-.788,1.311-1.557,2.6-2.34,3.879a.356.356,0,0,1-.3.14c-1.548-.5-3.09-1.026-4.667-1.554l.456-1.366,3.013,1a10.526,10.526,0,0,0-3.522-5.67A10.614,10.614,0,0,0-1104.488,1388.2Z" transform="translate(1127.419 -1376.687)" fill="#fff"/>
        <path id="Trazado_197415" data-name="Trazado 197415" d="M-1310.735,1334.927a5.708,5.708,0,0,1,5.726-5.735,5.726,5.726,0,0,1,5.743,5.724,5.742,5.742,0,0,1-5.733,5.742A5.725,5.725,0,0,1-1310.735,1334.927Zm9.143,2.469.18-.031.711-1.745h-1.407v-1.434h1.4l-.763-1.842-.954,1.042-1.1-1.076,1.02-.823-.037-.151-1.765-.715v1.417h-1.436v-1.417l-1.847.775,1.061.85-1.162,1.217-.794-1.04a3.706,3.706,0,0,0-.7,1.785h1.294v1.436h-1.406l.722,1.735.173.043.814-.964,1.135,1.091-1.12.912,1.854.75v-1.386h1.457v1.389l1.849-.768-1.039-.933,1.051-1.1Z" transform="translate(1315.728 -1324.168)" fill="#fff"/>
        <path id="Trazado_197416" data-name="Trazado 197416" d="M-1045.318,1627.513h-1.4V1626.1h1.4Z" transform="translate(1074.674 -1595.254)" fill="#fff"/>
        <path id="Trazado_197417" data-name="Trazado 197417" d="M-951.128,1583.29l.955-.9.971.981-.988.872Z" transform="translate(987.398 -1555.341)" fill="#fff"/>
        <path id="Trazado_197418" data-name="Trazado 197418" d="M-987.441,1568.279v1.408h-1.379v-1.408Z" transform="translate(1021.812 -1542.46)" fill="#fff"/>
        <path id="Trazado_197419" data-name="Trazado 197419" d="M-949.088,1664.994l-.929.938-.939-.983.972-.954Z" transform="translate(987.241 -1629.851)" fill="#fff"/>
        <path id="Trazado_197420" data-name="Trazado 197420" d="M-1031.236,1583.6l-.939.962-.989-1.008,1.028-.915Z" transform="translate(1062.299 -1555.574)" fill="#fff"/>
        <path id="Trazado_197421" data-name="Trazado 197421" d="M-1031.339,1664.289l.977.918-1.019.981-.886-.97Z" transform="translate(1061.48 -1630.119)" fill="#fff"/>
        <path id="Trazado_197422" data-name="Trazado 197422" d="M-929.857,1627.527h-1.378v-1.4h1.378Z" transform="translate(969.235 -1595.273)" fill="#fff"/>
      </g>
    </g>
  </g>
</svg>
