<svg xmlns="http://www.w3.org/2000/svg" width="64" height="64" viewBox="0 0 64 64">
  <g id="Grupo_142439" data-name="Grupo 142439" transform="translate(0.184 -0.152)">
    <circle id="Elipse_4868" data-name="Elipse 4868" cx="32" cy="32" r="32" transform="translate(-0.184 0.152)" fill="#2ec49f"/>
    <g id="C2bJTg" transform="translate(17.765 12.929)">
      <g id="Grupo_155492" data-name="Grupo 155492">
        <path id="Trazado_197394" data-name="Trazado 197394" d="M-715.008,84.291a2.953,2.953,0,0,0,.2,1.818,2.834,2.834,0,0,0,2.64,1.772c2.672.036,5.344.028,8.017.005a2.986,2.986,0,0,0,2.867-3.395c-.007-.049-.012-.1-.022-.185.1-.006.2-.015.292-.015,1.171,0,2.343-.024,3.513.012a4.11,4.11,0,0,1,1.342.264,2.223,2.223,0,0,1,1.516,2.249q-.009,6.1,0,12.19v5.639l-3,.3V90.923h-21V114.9h13.736l.675,3.016H-719.18a2.387,2.387,0,0,1-2.492-2.492q0-14.337,0-28.674a2.535,2.535,0,0,1,1.076-2.168,1.6,1.6,0,0,1,.856-.282c1.471-.028,2.942-.013,4.413-.013Z" transform="translate(721.673 -80.083)" fill="#fff"/>
        <path id="Trazado_197395" data-name="Trazado 197395" d="M-411.667,462.2a7.8,7.8,0,0,1,7.85-7.785,7.8,7.8,0,0,1,7.763,7.843,7.8,7.8,0,0,1-7.806,7.77A7.8,7.8,0,0,1-411.667,462.2Zm7.067,1.378c-.715-.571-1.39-1.119-2.074-1.655a1.184,1.184,0,0,0-1.713.139,1.2,1.2,0,0,0,.24,1.746l2.857,2.286a1.2,1.2,0,0,0,1.781-.139q2.355-2.643,4.7-5.293a1.191,1.191,0,0,0-.035-1.72,1.2,1.2,0,0,0-1.758.133c-.682.759-1.355,1.525-2.033,2.287Z" transform="translate(430.284 -427.986)" fill="#fff"/>
        <path id="Trazado_197396" data-name="Trazado 197396" d="M-586,20.951q-1.935,0-3.871,0a1.774,1.774,0,0,1-1.833-1.807,1.779,1.779,0,0,1,1.844-1.8c.27,0,.54,0,.81,0a.9.9,0,0,0,.95-.938,2.088,2.088,0,0,1,1.881-2.06,2.1,2.1,0,0,1,2.3,1.738,2.334,2.334,0,0,1,.023.329.9.9,0,0,0,.957.931c.28,0,.56,0,.84,0a1.773,1.773,0,0,1,1.805,1.8,1.771,1.771,0,0,1-1.807,1.8C-583.4,20.954-584.7,20.951-586,20.951Zm-.005-3.6a.91.91,0,0,0,.907-.89.906.906,0,0,0-.889-.907.906.906,0,0,0-.907.889A.909.909,0,0,0-586,17.346Z" transform="translate(599.506 -14.342)" fill="#fff"/>
        <path id="Trazado_197397" data-name="Trazado 197397" d="M-533.829,258.066h4.624c.6,0,.789.192.792.791,0,.12,0,.24,0,.36a.61.61,0,0,1-.662.653q-4.744,0-9.488,0a.593.593,0,0,1-.664-.644c-.027-.843-.066-1.2,1.1-1.168C-536.692,258.093-535.261,258.066-533.829,258.066Z" transform="translate(550.192 -243.42)" fill="#fff"/>
        <path id="Trazado_197398" data-name="Trazado 197398" d="M-537.237,359.1h4.709c.5,0,.709.22.7.715,0,.14,0,.28,0,.419a.611.611,0,0,1-.672.671q-3.563,0-7.127,0l-2.217,0c-.569,0-.781-.206-.8-.77q-.005-.18,0-.36a.607.607,0,0,1,.689-.678Q-539.592,359.094-537.237,359.1Z" transform="translate(553.389 -338.393)" fill="#fff"/>
        <path id="Trazado_197399" data-name="Trazado 197399" d="M-537.811,471.261q-1.589,0-3.179,0c-.479,0-.689-.215-.693-.7-.009-1.018.08-1.107,1.1-1.107h5.667c.806,0,1.042.239,1.039,1.051,0,.03,0,.06,0,.09a.6.6,0,0,1-.669.664C-535.632,471.263-536.721,471.261-537.811,471.261Z" transform="translate(552.492 -442.125)" fill="#fff"/>
        <path id="Trazado_197400" data-name="Trazado 197400" d="M-632.425,238.029l1.834-2.061a.485.485,0,0,1,.586-.176.783.783,0,0,1,.376.408.606.606,0,0,1-.127.486c-.716.833-1.45,1.652-2.186,2.467a.535.535,0,0,1-.778.067q-.7-.54-1.379-1.106a.538.538,0,0,1-.07-.776.546.546,0,0,1,.754-.087C-633.086,237.494-632.771,237.756-632.425,238.029Z" transform="translate(639.549 -222.452)" fill="#fff"/>
        <path id="Trazado_197401" data-name="Trazado 197401" d="M-635.775,346.379c.612-.687,1.193-1.345,1.783-2a.858.858,0,0,1,.356-.251.5.5,0,0,1,.6.225.53.53,0,0,1-.049.667c-.5.571-1.005,1.136-1.508,1.7-.218.246-.434.5-.657.737a.553.553,0,0,1-.845.083q-.662-.514-1.31-1.049a.55.55,0,0,1-.11-.816.562.562,0,0,1,.8-.047C-636.405,345.872-636.1,346.117-635.775,346.379Z" transform="translate(642.698 -324.303)" fill="#fff"/>
        <path id="Trazado_197402" data-name="Trazado 197402" d="M-634.908,453.558l1.821-2.048a.549.549,0,0,1,.7-.169.5.5,0,0,1,.3.563.789.789,0,0,1-.184.365q-1.046,1.194-2.109,2.374a.557.557,0,0,1-.868.064q-.637-.5-1.263-1.01a.57.57,0,0,1-.151-.815.57.57,0,0,1,.849-.054C-635.52,453.059-635.228,453.3-634.908,453.558Z" transform="translate(641.877 -425.04)" fill="#fff"/>
      </g>
    </g>
  </g>
</svg>
